<?xml version="1.0" encoding="UTF-8"?> <svg xmlns="http://www.w3.org/2000/svg" width="137" height="130" viewBox="0 0 137 130" fill="none"><rect width="137" height="130" fill="white"></rect><g clip-path="url(#clip0_5_7)"><path d="M150.7 -13H-13.7V143H150.7V-13Z" fill="white"></path><path d="M150.7 -13H-13.7V143H150.7V-13Z" fill="white"></path><path d="M150.7 -13H-13.7V143H150.7V-13Z" fill="white"></path><path d="M32.8047 46.443H38.4238V49.9977H32.8047V46.443Z" fill="white"></path><path d="M110.994 48.629H116.613V52.1837H110.994V48.629Z" fill="white"></path><path d="M97.8522 103.188C97.5937 99.3302 98.8235 94.0028 101.315 90.9394C111.239 78.7189 115.641 68.1328 113.562 55.1062C113.533 54.9257 113.501 54.7413 113.473 54.5647C113.262 53.3329 112.145 52.431 110.835 52.431H31.9847C30.4956 52.431 29.2657 53.5821 29.3103 54.9912C29.3103 54.9985 29.3103 55.0104 29.3103 55.0176C29.3995 57.6506 29.881 61.5313 29.8727 64.0683C29.8483 73.0688 21.6398 76.7689 21.4781 79.636C21.2189 84.3418 27.045 82.872 29.0999 89.5271C31.7095 97.9787 27.9711 107.617 40.1082 107.022C44.9553 106.838 52.8238 105.053 56.1978 108.027C58.3502 109.928 60.0818 118.207 60.7577 121.872C60.9438 122.889 61.8782 123.626 62.9667 123.626H99.4179C100.915 123.626 101.991 122.275 101.575 120.912C100.361 116.952 98.2689 109.39 97.8522 103.188Z" fill="#007F87"></path><path d="M73.3151 52.4191C69.3906 52.4191 65.5316 51.057 62.9541 48.4736C57.5858 43.096 57.5976 34.8824 62.9743 29.7778C67.4249 25.5593 74.6627 25.5593 79.1084 29.7778C82.7618 33.2439 82.7618 38.886 79.1084 42.3514C76.0905 45.2191 71.1751 45.2191 68.1572 42.3514C65.6445 39.9717 65.6445 36.0917 68.1572 33.712C70.2651 31.7119 73.6913 31.7119 75.795 33.712C77.5754 35.4008 77.5754 38.1488 75.795 39.8375C75.3135 40.2944 74.5331 40.2944 74.0516 39.8375C73.5701 39.3806 73.5701 38.6401 74.0516 38.1832C74.869 37.4042 74.869 36.1413 74.0516 35.3624C72.9067 34.276 71.0455 34.28 69.9007 35.3624C68.3509 36.8363 68.3509 39.2272 69.9007 40.6971C71.9556 42.651 75.3101 42.651 77.365 40.6971C80.0596 38.1448 80.0596 33.9884 77.365 31.4322C73.8816 28.1234 68.2053 28.1234 64.7184 31.4322C60.2922 35.6348 60.3006 42.4129 64.7463 46.8656C68.3147 50.4427 74.9052 51.1568 79.7481 48.4849C80.3383 48.1629 81.0909 48.3506 81.4351 48.9113C81.7744 49.4674 81.5765 50.1855 80.9856 50.5082C78.6513 51.7975 75.9651 52.4191 73.3151 52.4191Z" fill="#007F87"></path><path d="M83.7088 47.7827C83.405 47.7827 83.1019 47.6788 82.8629 47.4679C82.3654 47.0269 82.341 46.2857 82.8064 45.8136C83.2879 45.3262 83.6761 44.8773 84.1172 44.144C84.453 43.5839 85.2098 43.3882 85.7958 43.7102C86.3909 44.0289 86.593 44.747 86.2571 45.3071C85.6669 46.2857 85.1122 46.896 84.607 47.4144C84.3638 47.6597 84.0363 47.7827 83.7088 47.7827Z" fill="#007F87"></path><path d="M102.149 49.0224C100.3 49.0224 98.5113 48.4545 97.0104 47.38C95.5018 46.2976 94.5269 44.7199 94.2635 42.9426C94.005 41.1619 94.49 39.3925 95.6314 37.961C96.5818 36.7668 97.9692 35.9959 99.535 35.7882C101.097 35.5813 102.655 35.9648 103.917 36.8706C104.976 37.6304 105.664 38.7359 105.847 39.9876C106.029 41.2347 105.689 42.4784 104.888 43.4881C104.208 44.3397 103.217 44.8925 102.096 45.0426C100.984 45.1881 99.8632 44.9156 98.9608 44.267C98.4186 43.8795 98.3092 43.1423 98.7218 42.6278C99.1308 42.1134 99.9078 42.0103 100.45 42.4017C100.825 42.6702 101.287 42.7852 101.756 42.7237C102.225 42.6629 102.634 42.4321 102.921 42.0751C103.326 41.5686 103.496 40.9391 103.403 40.3096C103.314 39.6801 102.966 39.1201 102.432 38.7359C101.696 38.2063 100.785 37.9802 99.875 38.1025C98.9608 38.2255 98.1559 38.6744 97.5971 39.3733C96.8529 40.3057 96.5372 41.4615 96.7073 42.6206C96.8773 43.7797 97.5121 44.8079 98.4995 45.5147C99.7942 46.4431 101.396 46.8385 103.007 46.6275C104.617 46.4126 106.04 45.6179 107.019 44.39C109.621 41.1236 108.934 36.4944 105.454 33.8542C103.581 32.4299 100.867 31.977 98.1964 32.6448C95.6997 33.2664 93.7214 34.7944 92.904 36.7325C92.6497 37.3348 91.9292 37.6231 91.2986 37.3851C90.6672 37.1431 90.3634 36.464 90.6143 35.8649C91.7389 33.2016 94.2719 31.2054 97.565 30.3802C100.988 29.5246 104.512 30.1421 106.995 32.0266C111.527 35.4662 112.4 41.515 108.99 45.7984C107.61 47.5294 105.604 48.6462 103.342 48.9418C102.946 48.9953 102.545 49.0224 102.149 49.0224Z" fill="#007F87"></path><path d="M91.4156 28.78C90.291 28.78 89.1942 28.4725 88.2353 27.8702C86.9372 27.0642 86.055 25.8204 85.7393 24.381C85.1972 21.8789 86.9044 19.4185 89.5468 18.9041C91.7961 18.4624 93.9966 19.8404 94.4579 21.9708C94.6523 22.8575 94.4663 23.7634 93.9402 24.5191C93.4183 25.2756 92.6128 25.7933 91.6783 25.9738C91.0066 26.108 90.3599 25.6974 90.222 25.068C90.0847 24.4312 90.5132 23.8169 91.1808 23.6867C91.4721 23.6292 91.7187 23.4678 91.8811 23.2337C92.0469 22.9997 92.0992 22.7193 92.0428 22.4429C91.8525 21.5754 90.9543 21.0147 90.0443 21.1952C88.7336 21.4485 87.8876 22.6691 88.1545 23.9128C88.3371 24.738 88.8464 25.4521 89.5907 25.9163C90.3355 26.3844 91.2296 26.5418 92.0992 26.3772C94.5185 25.9011 96.0843 23.6483 95.5868 21.3526C94.9352 18.3593 91.8609 16.4437 88.5712 16.9965C86.8076 17.2921 85.2056 18.52 84.2788 20.2781C83.4175 21.9173 83.3444 23.7171 84.0809 25.103C84.3882 25.6783 84.1457 26.3811 83.5388 26.6727C82.9319 26.9643 82.1911 26.7342 81.8838 26.1583C80.7752 24.0894 80.8442 21.5642 82.0699 19.2341C83.3444 16.816 85.6139 15.1193 88.1427 14.6935C92.7549 13.9179 97.0794 16.6355 98.0019 20.8805C98.7747 24.4424 96.347 27.9356 92.5967 28.6643C92.2044 28.745 91.8079 28.78 91.4156 28.78Z" fill="#007F87"></path><path d="M88.1712 42.4017C87.9204 42.4017 87.6654 42.3289 87.4424 42.1749C86.8968 41.7953 86.7748 41.062 87.1755 40.5397C88.0458 39.4156 88.3329 39.093 88.381 39.0434C88.8304 38.5554 89.6074 38.5058 90.1209 38.9316C90.6345 39.3581 90.6875 40.0987 90.238 40.582C90.2303 40.5899 89.9753 40.8743 89.1663 41.9216C88.9231 42.2364 88.551 42.4017 88.1712 42.4017Z" fill="#007F87"></path><path d="M59.1229 48.2892C58.9006 48.2892 58.6776 48.2316 58.4797 48.1166C57.8442 47.7483 57.1446 47.2993 56.2986 46.4973C55.8178 46.0404 55.8137 45.2992 56.2952 44.8429C56.7767 44.386 57.5571 44.386 58.0386 44.8429C58.6699 45.4373 59.1674 45.7752 59.766 46.121C60.3486 46.4583 60.5304 47.1803 60.1709 47.7291C59.9402 48.0901 59.5354 48.2892 59.1229 48.2892Z" fill="#007F87"></path><path d="M39.6021 49.9587C39.2057 49.9587 38.8057 49.9323 38.4092 49.8787C36.1473 49.5832 34.1405 48.4657 32.765 46.7346C29.3506 42.4513 30.2244 36.4025 34.7558 32.9596C37.2399 31.0791 40.7679 30.4648 44.1865 31.3171C47.4797 32.1423 50.0119 34.1379 51.1366 36.8019C51.3874 37.4003 51.0843 38.08 50.453 38.3214C49.8217 38.5594 49.0977 38.2678 48.8468 37.6687C48.0295 35.7307 46.0512 34.2033 43.5552 33.5811C40.885 32.9133 38.1744 33.3662 36.2971 34.7865C32.8179 37.4314 32.1302 42.0599 34.7314 45.3263C35.7104 46.5548 37.1347 47.3489 38.7451 47.5598C40.3547 47.7754 41.9574 47.38 43.2514 46.451C44.2388 45.7448 44.8743 44.716 45.0436 43.5569C45.2136 42.3938 44.898 41.2426 44.1538 40.3096C43.5956 39.6114 42.7908 39.1585 41.8759 39.0394C40.9658 38.9204 40.0558 39.1432 39.3192 39.6729C38.7855 40.0564 38.4371 40.6131 38.3486 41.2466C38.2552 41.876 38.4252 42.5016 38.8301 43.012C39.1172 43.3691 39.5255 43.5992 39.9952 43.6607C40.4641 43.7222 40.9254 43.6071 41.3017 43.338C41.8438 42.9466 42.6208 43.0504 43.0291 43.5648C43.4416 44.0792 43.3329 44.8118 42.7908 45.2033C41.8884 45.8486 40.7714 46.1243 39.6551 45.9749C38.5346 45.8294 37.5431 45.2767 36.8637 44.4204C36.0623 43.4147 35.723 42.1716 35.9048 40.9239C36.0867 39.6729 36.7745 38.5673 37.8343 37.8036C39.097 36.9017 40.6502 36.5176 42.2159 36.7252C43.7817 36.9282 45.169 37.7038 46.1202 38.8973C47.2609 40.3288 47.7466 42.0982 47.4873 43.8795C47.2246 45.6562 46.2498 47.2339 44.7405 48.3163C43.2395 49.3907 41.4515 49.9587 39.6021 49.9587Z" fill="#007F87"></path><path d="M54.0056 43.7796C53.7018 43.7796 53.3987 43.6719 53.1638 43.4609C52.1402 42.5551 51.6183 41.6571 51.5619 41.5573C51.2378 40.9853 51.4643 40.2752 52.0678 39.9717C52.6663 39.6689 53.4147 39.8838 53.7345 40.4517C53.7345 40.4517 54.1185 41.1083 54.8466 41.753C55.3442 42.194 55.3686 42.9353 54.9031 43.4074C54.6606 43.6527 54.3331 43.7796 54.0056 43.7796Z" fill="#007F87"></path><path d="M84.182 32.9483C84.1332 32.9483 84.0809 32.9483 84.0322 32.9404C83.3528 32.8637 82.8755 32.2805 82.9563 31.6391C82.9563 31.6391 83.0127 31.0176 82.7661 29.7275C82.6406 29.0948 83.0852 28.4845 83.7569 28.3687C84.437 28.2537 85.0676 28.6762 85.1896 29.3096C85.5045 30.9481 85.4237 31.7733 85.4035 31.9234C85.331 32.5146 84.7966 32.9483 84.182 32.9483Z" fill="#007F87"></path><path d="M50.336 29.7163C49.943 29.7163 49.5465 29.6779 49.1542 29.6012C45.4039 28.8719 42.9769 25.3794 43.7497 21.8174C44.6716 17.5724 49.0044 14.8548 53.6089 15.6298C56.137 16.0562 58.4065 17.7523 59.681 20.167C60.9067 22.5004 60.9757 25.0256 59.8671 27.0946C59.5598 27.6705 58.8198 27.9006 58.2128 27.609C57.6059 27.3174 57.3627 26.6112 57.6707 26.0353C58.4065 24.6534 58.3341 22.8535 57.4721 21.2144C56.546 19.4569 54.9441 18.2283 53.1797 17.9328C49.8907 17.38 46.8157 19.2955 46.1648 22.2895C45.6673 24.5846 47.2324 26.8373 49.6517 27.3095C50.5255 27.4827 51.4161 27.3214 52.1603 26.8532C52.9045 26.3884 53.4145 25.6743 53.5964 24.8458C53.8633 23.606 53.018 22.3854 51.7073 22.1282C50.7966 21.9556 49.8991 22.5117 49.7089 23.3792C49.6517 23.6516 49.7047 23.9359 49.8705 24.17C50.0322 24.4041 50.2789 24.5654 50.5701 24.619C51.2377 24.7499 51.6669 25.3675 51.5289 26.0009C51.3917 26.6344 50.7443 27.041 50.0726 26.9107C49.1382 26.7302 48.3333 26.2118 47.8114 25.4561C47.2853 24.6996 47.0993 23.7938 47.2937 22.9071C47.7585 20.7773 49.9632 19.4027 52.2049 19.8364C54.8465 20.3548 56.5537 22.8112 56.0116 25.3179C55.6959 26.7567 54.8144 28.0004 53.5156 28.8064C52.5568 29.4055 51.4607 29.7163 50.336 29.7163Z" fill="#007F87"></path><path d="M56.9343 33.2783C56.2584 33.2783 55.7086 32.7638 55.7002 32.1231C55.7002 32.0193 55.7086 31.048 56.2179 29.4207C56.4165 28.8025 57.1043 28.4534 57.7558 28.6339C58.4067 28.8184 58.7795 29.4703 58.585 30.0925C58.1802 31.3707 58.1683 32.1039 58.1683 32.1112C58.16 32.7526 57.6137 33.2783 56.9343 33.2783Z" fill="#007F87"></path><path d="M68.76 21.0458C68.3028 21.0458 67.8618 20.8038 67.6513 20.3853C67.2792 19.6526 66.5427 18.5583 65.1351 17.4951C63.0516 15.9214 61.7848 13.4577 61.7444 10.9054C61.7082 8.56406 62.6788 6.47992 64.471 5.04045C68.0436 2.16946 73.23 2.45312 76.2765 5.68117C77.5106 6.99765 78.1377 8.68639 78.0325 10.4446C77.9315 12.2027 77.1141 13.8181 75.7302 14.993C74.5735 15.9716 73.0886 16.4629 71.5354 16.3862C69.9898 16.3056 68.5655 15.6569 67.5343 14.5593C66.6597 13.6343 66.2228 12.4441 66.296 11.2083C66.3685 9.96848 66.9434 8.83252 67.9182 8.00732C68.7439 7.30511 69.8198 6.95533 70.9201 7.00955C72.0287 7.06707 73.0482 7.53125 73.7882 8.31809C75.1031 9.71127 74.9777 11.8569 73.5095 13.1046C72.9994 13.5344 72.219 13.4961 71.766 13.0121C71.3124 12.5327 71.357 11.7914 71.8629 11.3617C72.0852 11.1739 72.2148 10.9167 72.2308 10.6363C72.2468 10.356 72.15 10.0875 71.9521 9.87657C71.6483 9.55787 71.2358 9.36612 70.7828 9.34297C70.3215 9.3238 69.8965 9.46596 69.5606 9.74962C69.0791 10.1602 68.792 10.7249 68.7558 11.3392C68.7195 11.9528 68.9376 12.5399 69.3704 13.0008C69.9655 13.6303 70.7828 14.0026 71.6727 14.0488C72.5709 14.0945 73.4203 13.8108 74.0837 13.2468C74.9777 12.4904 75.5038 11.4503 75.5728 10.3143C75.6376 9.18164 75.2369 8.09196 74.4355 7.24362C72.2873 4.96375 68.6101 4.77927 66.0654 6.82507C64.8438 7.80367 64.1839 9.24313 64.2125 10.8704C64.2411 12.7324 65.1588 14.5249 66.6723 15.6681C68.4401 17.0038 69.3906 18.4201 69.8721 19.3683C70.1675 19.9522 69.909 20.6504 69.2937 20.9308C69.1195 21.0114 68.9418 21.0458 68.76 21.0458Z" fill="#007F87"></path><path d="M70.7786 25.6934C70.212 25.6934 69.7027 25.3212 69.5731 24.7763C69.5731 24.7763 69.4434 24.2388 69.0511 23.3719C68.7843 22.7768 69.0755 22.0898 69.7027 21.8366C70.3291 21.5833 71.0496 21.8591 71.3207 22.4502C71.8022 23.5174 71.9639 24.1971 71.9841 24.2738C72.1297 24.9033 71.7088 25.5288 71.0455 25.667C70.9563 25.6862 70.8636 25.6934 70.7786 25.6934Z" fill="#007F87"></path><path d="M57.2785 39.1042C56.8291 39.1042 56.3963 38.8701 56.1775 38.4595C56.0967 38.3061 55.3685 36.8977 55.3609 35.5237C55.3567 34.8784 55.903 34.3488 56.5866 34.3455C56.5866 34.3455 56.5907 34.3455 56.5942 34.3455C57.2701 34.3455 57.8206 34.8632 57.8241 35.5079C57.8325 36.2141 58.2373 37.1391 58.3788 37.4082C58.6861 37.9874 58.4436 38.6903 57.8325 38.9779C57.6541 39.0659 57.468 39.1042 57.2785 39.1042Z" fill="#007F87"></path><path d="M83.2717 38.7399C83.1059 38.7399 82.9317 38.7055 82.7658 38.6321C82.1471 38.3676 81.8718 37.6727 82.1505 37.0855C82.1547 37.0782 82.5638 36.1988 82.6279 35.2506C82.6725 34.6059 83.2313 34.1186 83.9351 34.1609C84.6187 34.1993 85.1323 34.756 85.0877 35.4007C84.995 36.7635 84.457 37.9226 84.3964 38.0489C84.1901 38.4826 83.7407 38.7399 83.2717 38.7399Z" fill="#007F87"></path></g><defs><clipPath id="clip0_5_7"><rect width="137" height="130" fill="white"></rect></clipPath></defs></svg> 