<?xml version="1.0" encoding="UTF-8"?> <svg xmlns="http://www.w3.org/2000/svg" width="137" height="130" viewBox="0 0 137 130" fill="none"><rect width="137" height="130" fill="white"></rect><path d="M104.274 73.8537C107.844 68.923 114.607 61.2146 114.607 44.6558C114.607 28.101 98.7851 11.082 70.3445 11.082C45.1705 11.082 34.6374 32.3962 34.6374 43.6673C34.6374 43.6673 36.3035 54.2963 32.8543 58.5221C29.4043 62.7519 22.4389 67.9173 26.7258 70.1496C31.0084 72.3785 32.6745 74.1393 32.6745 76.3703C32.6745 78.6032 31.3366 80.6126 33.1658 81.2282C34.9956 81.8458 35.1315 82.3747 34.4605 82.7721C33.7894 83.1689 31.6934 85.3687 33.8807 86.6006C36.068 87.8351 37.2721 89.6838 36.8707 90.9183C36.4694 92.1515 32.6745 97.1278 38.2999 98.6241C43.9225 100.121 52.1338 99.3296 54.903 101.266C57.6701 103.202 61.6851 113.681 59.4539 118.964H107.267C107.267 118.964 102.661 99.7019 102.303 93.1631C102.303 93.1631 100.703 78.7857 104.274 73.8537Z" fill="#007F87"></path><path d="M70.5395 31.5366L62.8508 38.8556C61.1311 40.4928 60.1841 42.6695 60.1841 44.9837C60.1841 47.298 61.1311 49.4754 62.8508 51.1105C64.5685 52.7471 66.8554 53.6483 69.2866 53.6483C71.7171 53.6483 74.0048 52.7471 75.7224 51.1105L83.4111 43.7916L70.5395 31.5366ZM71.5025 37.6866L66.3377 42.2225C65.5795 42.9439 65.1489 43.9331 65.1489 44.9837C65.1489 46.0344 65.5795 47.0242 66.3607 47.7694C66.6833 48.0762 66.6833 48.5755 66.3607 48.8829C66.1983 49.037 65.9865 49.113 65.7747 49.113C65.5628 49.113 65.351 49.0357 65.1886 48.8829C64.0967 47.8415 63.494 46.4569 63.494 44.9837C63.494 43.5106 64.0967 42.126 65.1907 41.0846L70.3806 36.5275C70.7179 36.2326 71.2405 36.2531 71.5506 36.5731C71.86 36.8925 71.8384 37.3904 71.5025 37.6866Z" fill="white"></path><path d="M92.2712 23.1035C90.5535 21.467 88.2666 20.5657 85.8354 20.5657C83.4042 20.5657 81.1172 21.467 79.3996 23.1035L71.7095 30.4225L84.5811 42.6761L92.2698 35.3564C93.9909 33.7213 94.9372 31.5445 94.9372 29.2303C94.9372 26.916 93.9909 24.7387 92.2712 23.1035Z" fill="white"></path><path d="M96.0014 34.8334C95.8265 34.6747 95.5813 34.602 95.345 34.6245C95.1032 34.6496 94.8865 34.7739 94.7507 34.9643C94.3597 35.5112 93.9214 36.0183 93.4434 36.4719L86.9811 42.6205H95.7652C96.2216 42.6205 96.5923 42.9736 96.5923 43.4087C96.5923 43.8431 96.2216 44.1962 95.7652 44.1962H85.3262L78.6437 50.5578C78.3225 50.8633 78.3211 51.3565 78.6367 51.6653C80.9982 53.9604 84.1409 55.224 87.4905 55.224C94.3353 55.224 99.9022 49.9243 99.9022 43.4087C99.9022 40.1364 98.517 37.0915 96.0014 34.8334Z" fill="white"></path></svg> 