<?xml version="1.0" encoding="UTF-8"?> <svg xmlns="http://www.w3.org/2000/svg" width="137" height="130" viewBox="0 0 137 130" fill="none"><rect width="137" height="130" fill="white"></rect><path d="M104.274 73.8537C107.844 68.923 114.607 61.2146 114.607 44.6558C114.607 28.101 98.7851 11.082 70.3445 11.082C45.1705 11.082 34.6374 32.3962 34.6374 43.6673C34.6374 43.6673 36.3035 54.2963 32.8543 58.5221C29.4043 62.7519 22.4389 67.9173 26.7258 70.1496C31.0084 72.3785 32.6745 74.1393 32.6745 76.3703C32.6745 78.6025 31.3366 80.6126 33.1658 81.2282C34.9956 81.8458 35.1315 82.3747 34.4605 82.7721C33.7894 83.1689 31.6934 85.3687 33.8807 86.6006C36.068 87.8351 37.2721 89.6838 36.8707 90.9183C36.4694 92.1515 32.6745 97.1278 38.2999 98.6241C43.9225 100.121 52.1338 99.3289 54.903 101.266C57.6701 103.202 61.6851 113.681 59.4539 118.964H107.267C107.267 118.964 102.661 99.7012 102.303 93.1631C102.303 93.1631 100.703 78.7857 104.274 73.8537Z" fill="#007F87"></path><path d="M60.1758 33.8105C60.1758 45.3394 81.9611 59.4008 81.9611 59.4008C81.9611 59.4008 103.65 45.2403 103.746 33.8105C103.746 27.9098 98.6826 23.1008 92.4698 23.1008C87.6945 23.1008 83.5819 26.0062 81.9611 29.9953C80.3403 26.0062 76.227 23.1008 71.4517 23.1008C65.2389 23.1008 60.1758 27.9098 60.1758 33.8105Z" fill="white"></path></svg> 