<?xml version="1.0" encoding="UTF-8"?> <svg xmlns="http://www.w3.org/2000/svg" width="137" height="130" viewBox="0 0 137 130" fill="none"><rect width="137" height="130" fill="white"></rect><path d="M102.784 73.8308C106.354 68.9002 113.117 61.1917 113.117 44.6329C113.117 28.0781 97.295 11.0591 68.8544 11.0591C43.6805 11.0591 33.1474 32.3734 33.1474 43.6444C33.1474 43.6444 34.8135 54.2735 31.3643 58.4993C27.9143 62.7291 20.949 67.8945 25.2358 70.1267C29.5184 72.3557 31.1845 74.1165 31.1845 76.3474C31.1845 78.5803 29.8466 80.5898 31.6758 81.2054C33.5056 81.8229 33.6415 82.3519 32.9704 82.7493C32.2994 83.146 30.2034 85.3459 32.3907 86.5777C34.578 87.8122 35.7821 89.661 35.3807 90.8955C34.9794 92.1286 31.1845 97.1049 36.8099 98.6012C42.4325 100.098 50.6438 99.3068 53.413 101.243C56.18 103.179 60.1951 113.658 57.9639 118.941H105.777C105.777 118.941 101.171 99.679 100.813 93.1403C100.813 93.1403 99.2127 78.7628 102.784 73.8308Z" fill="#007F87"></path><path d="M75.8761 28.1105H87.8021L78.1509 39.7653L87.8021 40.0665L73.5989 53.9919L75.6933 43.246L68.4998 43.6997L75.8761 28.1105Z" fill="white"></path></svg> 