<?xml version="1.0" encoding="UTF-8"?> <!-- Generator: Adobe Illustrator 26.2.1, SVG Export Plug-In . SVG Version: 6.00 Build 0) --> <svg xmlns="http://www.w3.org/2000/svg" xmlns:xlink="http://www.w3.org/1999/xlink" version="1.1" id="Layer_1" x="0px" y="0px" viewBox="0 0 137 130" style="enable-background:new 0 0 137 130;" xml:space="preserve"> <style type="text/css"> .st0{fill-rule:evenodd;clip-rule:evenodd;fill:#01D0D9;} .st1{fill:#007F87;} .st2{fill:#FFFFFF;} </style> <path class="st0" d="M130.7,0.3c17.6,53.2-11.3,110.6-64.5,128.2l0.3,0.9c53.7-17.8,82.9-75.7,65.1-129.5L130.7,0.3z M82.5,100.1 c-22.6,22.6-59.2,22.6-81.8,0L0,100.8c23,23,60.2,23,83.2,0L82.5,100.1z"></path> <g> <path class="st1" d="M62.6,79c-0.2-2.8,0.7-6.8,2.5-9c6.9-9,10-16.8,8.6-26.4C71.3,28,60.3,19.8,45.1,19.1 c-16.7-0.9-31,9.8-30.5,24.5c0.1,1.9,0.4,4.8,0.4,6.7c0,6.6-5.8,9.3-5.9,11.4c-0.2,3.4,3.9,2.4,5.4,7.3c1.8,6.2-0.8,13.3,7.7,12.8 c3.4-0.2,8.9-1.4,11.3,0.7c1.5,1.4,2.7,7.5,3.2,10.2c0.1,0.4,0.3,0.7,0.5,1c0.3,0.3,0.6,0.4,1,0.4h25.5c0.3,0,0.5-0.1,0.7-0.2 c0.2-0.1,0.4-0.3,0.5-0.4c0.2-0.2,0.3-0.4,0.3-0.6c0.1-0.3,0-0.5,0-0.7C64.3,89.1,62.9,83.5,62.6,79L62.6,79z"></path> </g> <path class="st2" d="M55.1,20.8L55.1,20.8l0,20.7c4,1.1,6.8,4.8,6.8,9.1c0,5.2-4.3,9.5-9.5,9.5c-1.8,0-3.6-0.5-5-1.4c0,0,0,0,0,0 c-4.4,3.5-9.6,6.1-15.5,7.5c-1,0.2-2,0.4-3,0.6c-0.1,0-0.2,0-0.2,0c-0.7,0-1.2-0.5-1.3-1.1c-0.1-0.7,0.4-1.4,1.1-1.6 c1-0.2,1.9-0.4,2.8-0.6c5.2-1.3,10-3.6,14-6.6c0.2,0.3,0.6,0.7,1,1c0.4,0.3,0.8,0.6,1.1,0.8c2.3-1.8,4.3-3.9,6-6.2 c0.5-0.6,0.3-1.5-0.3-1.9c-0.6-0.5-1.5-0.3-1.9,0.3c-1.7,2.2-3.7,4.3-6,6c-1.5-1.7-2.4-3.9-2.4-6.3c0-4.3,2.9-8,6.8-9.1l0-21.9 L55.1,20.8z"></path> </svg> 