<?xml version="1.0" encoding="UTF-8"?> <!-- Generator: Adobe Illustrator 26.3.1, SVG Export Plug-In . SVG Version: 6.00 Build 0) --> <svg xmlns="http://www.w3.org/2000/svg" xmlns:xlink="http://www.w3.org/1999/xlink" version="1.1" id="Layer_1" x="0px" y="0px" viewBox="0 0 137 130" style="enable-background:new 0 0 137 130;" xml:space="preserve"> <style type="text/css"> .st0{fill-rule:evenodd;clip-rule:evenodd;fill:#01D0D9;} .st1{fill:#007F87;} .st2{fill:#FFFFFF;} </style> <path class="st0" d="M130.7,0.3c17.6,53.2-11.3,110.6-64.5,128.2l0.3,0.9c53.7-17.8,82.9-75.7,65.1-129.5L130.7,0.3z M82.5,100.1 c-22.6,22.6-59.2,22.6-81.8,0L0,100.8c23,23,60.2,23,83.2,0L82.5,100.1z"></path> <g> <path class="st1" d="M58.4,30.7c2.1,7,3.3,14.1,3.5,21.4c1.2-0.7,5-6.6,6.2-9.4c-0.7-1.5-1.3-2.8-1.9-4.2c-0.2-0.5-0.4-0.5-0.8-0.6 c-1.3-0.2-2.2-1-2.5-2c-0.2-0.9,0-1.1,0.9-1.3c0.4-0.1,0.9-0.3,1-0.7c0.2-0.5,0.5-0.5,0.9-0.4c1.4,0.3,2.2,2.3,1.5,3.7 c-0.2,0.3-0.3,0.8-0.1,1.1c0.4,1,0.9,2.1,1.3,3.1c0.1,0,0.2,0,0.3-0.1c0.5-1.4,0.9-2.8,1.3-4.2c0-0.2-0.1-0.4-0.1-0.6 c-0.4-0.9-0.9-1.7-1.2-2.6c-0.2-0.4-0.3-0.6-0.7-0.7c-1.4-0.2-2.2-1.1-2-2.4c1.6-0.3,1.6-0.4,1.6-1.3c0.2,0,0.3,0,0.5,0 c-0.9-1.1-1.8-2.1-2.8-3c-1.8,1.7-3.9,3-6.4,3.8C58.7,30.5,58.6,30.6,58.4,30.7z"></path> <path class="st1" d="M70.1,35.6c0.1,0,0.2,0,0.3,0c0.1-0.6,0.1-1.2,0.2-1.8c-0.3-0.6-0.7-1.2-1-1.8c0,0.2-0.1,0.3-0.1,0.5 C69.1,33.7,69.7,34.6,70.1,35.6z"></path> <path class="st1" d="M70.6,38.9c-0.2,0.9-0.6,1.7-0.9,2.7c1.2-0.5,2.3-1,3.2-1.6c-0.3-1.2-0.7-2.4-1.1-3.5 C71.1,37.1,70.8,37.9,70.6,38.9z"></path> <path class="st1" d="M62,62.1c0.1-4,2-7.1,5.3-9.5c2.1-1.5,4.4-2.8,6.8-3.6c0.1-1.8,0-3.6-0.3-5.5c-0.1-0.9-0.3-1.9-0.5-2.7 c-1.1,0.7-2.2,1.2-3.4,1.7c-0.3,0.1-0.7,0.5-0.8,0.8c-1.8,3.7-4,7.1-6.7,10.2c-0.3,0.3-0.4,0.8-0.4,1.2c-0.1,4.6-0.6,9.1-1.8,13.5 c-0.1,0.2-0.1,0.5-0.2,0.7c0,0.1-0.1,0.1-0.1,0.2c-0.3-0.1-0.6-0.2-0.9-0.3c0.4-2.2,0.9-4.4,1.2-6.5c1-6.6,0.9-13.2-0.2-19.8 c-0.6-3.7-1.6-7.3-2.4-11c-0.1-0.6-0.4-0.8-1-0.9c-3.7-0.7-7.3-1.7-10.6-3.5c-2-1-3.8-2.3-5.2-4.1c-0.9-1.2-1.4-2.6-1.5-3.9 c-14,1.6-25.1,11.4-24.6,24.3c0.1,1.9,0.4,4.8,0.4,6.7c0,6.6-5.8,9.3-5.9,11.4c-0.2,3.4,3.9,2.4,5.4,7.3c1.8,6.2-0.8,13.3,7.7,12.8 c3.4-0.2,8.9-1.4,11.3,0.7c1.5,1.4,2.7,7.5,3.2,10.2c0.1,0.4,0.3,0.7,0.5,1c0.3,0.3,0.6,0.4,1,0.4h25.5c0.3,0,0.5-0.1,0.7-0.2 c0.2-0.1,0.4-0.3,0.5-0.4c0.2-0.2,0.3-0.4,0.3-0.6c0.1-0.3,0-0.5,0-0.7c-0.9-3.1-2.3-8.7-2.6-13.2c-0.2-2.8,0.7-6.8,2.5-9 c2.1-2.8,3.9-5.5,5.3-8.1c-1.8,1-3.7,1.9-5.7,2.5C61.6,65.3,61.9,65.4,62,62.1z M54.5,59.2c-5.7-1.9-9.5-5.9-11.9-11.3 c-1.3-3-2.5-6-2.8-9.2c-0.1-0.8-0.1-1.6,0.1-2.4c0.2-0.9,0.8-1.3,1.7-1c1.2,0.4,2.4,0.9,3.5,1.6c5.3,3.3,9.8,7.5,12.8,13.1 c1.1,2,1.7,4.1,2,6.8c0,0.5-0.1,1.5-0.2,2.4c0,0.6-0.4,1-1,0.9C57.2,59.7,55.8,59.6,54.5,59.2z"></path> <path class="st1" d="M74.8,39.7c0.2-0.2,0.5-0.2,0.7-0.3c0.7-0.4,1.5-0.8,2.1-1.3c0.3-0.3,0.5-1-0.2-1.2c-0.8-0.2-1.2-0.5-1.2-1.3 c-1.5-0.1-2.5,1.3-2.1,2.7c0.1,0.3,0.1,0.7,0,0.9c-0.4,0.3-0.7,0.6-1.1,0.9c0.1,0.3,0.2,0.6,0.2,0.9C73.8,40.5,74.3,40.1,74.8,39.7 z"></path> <path class="st1" d="M68,29.7c0.6,0.7,1.1,1.5,1.6,2.3C69.8,30.8,69.1,29.8,68,29.7z"></path> <path class="st1" d="M45.1,19.1c8.1,0.4,15,2.9,20.1,7.6c0.9-0.9,1.7-1.8,2.5-2.9c2.1-3,3.4-6.3,2.9-10.1c-0.3-2.6-2.3-4.8-4.9-5.5 c-2.5-0.7-4.6,0.1-6.4,2.3c-1.2,1.6-2,3.5-2.6,5.5c-0.3,1.2-0.6,2.5-1,3.7c-0.1,0-0.1,0-0.1-0.1c-0.1-0.2-0.2-0.4-0.4-0.6 c-2.1-3.2-4.8-5.8-8.4-7.2c-1.9-0.7-3.9-0.7-5.4,0.9c-1.3,1.4-2.4,3.9-2.2,6.5C41.1,19.1,43.1,19,45.1,19.1z"></path> <path class="st1" d="M73,35.9c0.2,0,0.3-0.2,0.5-0.3c1-0.8,2-1.7,3.2-2.2c0.9-0.4,1.1-1.2,0.7-2c-1,0-1.1,0-1.8-1.2 c-1.5,0.3-2.3,1.7-1.7,3.1c0.1,0.2,0.2,0.6,0.1,0.7c-0.7,0.8-1.5,1.3-2.5,1.8c0.2-1.3,0.4-2.5,0.5-3.7c0.1-0.6,0.2-1,0.7-1.5 c1.3-1.1,1.4-2.7,0.3-3.7c-1,1-2,0.6-2.6-0.2c-1.4,0.9-1.4,2.8,0,4c0.2,0.2,0.5,0.4,0.5,0.6c-0.1,0.8-0.2,1.7-0.2,2.5 c0.4,0.8,0.8,1.7,1.2,2.7C72.1,36.2,72.5,36,73,35.9z"></path> <path class="st1" d="M80.7,48.3c-0.9-0.1-1.7-0.1-2.6-0.2c-1.4,0.1-2.8,0.5-4.1,0.9c-0.2,4.4-1.4,8.6-3.6,12.8 c4-2.3,7.5-5.4,10.5-9.1c0.5-0.6,0.9-1.4,1.1-2.2C82.5,49.3,82,48.5,80.7,48.3z"></path> <path class="st1" d="M54,11.9c0.4-0.1,0.8-0.5,0.9-0.9c0.3-1,0.1-2-0.4-2.9c-0.4-0.6-0.9-1.2-1.7-0.9c-0.8,0.3-0.7,1-0.9,1.8 c0.3,0.8,0.6,1.7,1.1,2.4C53.1,11.7,53.7,12,54,11.9z"></path> <path class="st1" d="M56.6,11.4c0.5,0.4,1.2,0,1.5-0.5c0.4-0.6,0.6-1.3,0.9-2c-0.2-0.7-0.4-1.3-1.1-1.5c-0.7-0.2-1.2,0.3-1.4,0.9 c-0.2,0.5-0.5,1.1-0.5,1.7C55.9,10.5,56.2,11.1,56.6,11.4z"></path> <path class="st1" d="M50.9,12.5c0.7,0.2,1.3-0.3,1.3-1c0-1-1.2-2.3-2.2-2.4c-0.6-0.1-0.9,0.2-1,0.8C48.8,10.8,49.9,12.3,50.9,12.5z "></path> </g> <g id="XdkHL6_00000002369583212766407440000013770312204941295028_"> <g> <path d="M-504.2-175.4c2.8,0.5,5.7,1,8.5,1.4c3.8,0.5,6.4,2.4,8.1,5.8c2.4,4.8,4.3,9.7,3.5,15.1c-0.3,2.5-1.6,4.1-4.1,4.8 c-2.7,0.8-5.4,1.8-8.1,2.6c-1.2,0.4-2.5,0.5-3.8,0.7c-3.3,0.3-5.9-1-7.4-4c-2-3.9-3.8-7.8-5.7-11.7c-0.3-0.6-0.5-1.2-1-1.8 c-2.8,14.6-4.4,29.4-4.5,44.4c0.1-0.4,0.3-0.7,0.4-1.1c2.2-7,5.2-13.5,10.9-18.4c3.9-3.4,8.6-5,14.2-5c-0.6,2.9-1,5.7-1.8,8.4 c-3.5,11.3-10.8,18.6-22.5,21.4c-0.8,0.2-1.7,0.3-1.6,1.6c0.4,11.5,1.4,22.8,5,33.8c0.7,2.2,1.7,4.3,2.5,6.6 c3-0.5,5.4-1.9,7.6-3.6c3.4-2.7,6.1-6,8.2-9.8c2.4-4.4,4.6-9,6.6-13.6c1.1-2.5,1.5-5.3,2.2-7.8c-1,0.8-2.3,1.7-3.6,2.6 c-4.9,3.3-8.5,1.6-11.4-2.6c-0.2-0.2-0.3-0.5-0.4-0.7c-0.9-2.2,1.3-8.5,3.4-9.5c0.7-0.3,1.5-0.4,2.2-0.3c2.6,0.4,5.1,0.9,7.8,1.1 c-0.4-0.3-0.7-0.7-1.1-0.9c-2.1-1.5-2.9-3.6-2.3-6.1c0.2-0.9,0.5-1.7,0.8-2.5c1.9-4.3,5.1-5.6,9.5-4.1c1.2,0.4,2.1,1.2,2.2,2.5 c0.1,1.8,0.2,3.5,0.1,5.3c0,1.3-0.2,2.5-0.4,4.3c0.5-0.6,0.8-0.9,1.1-1.2c2.2-2.9,5.2-3.9,8.6-2.6c2.3,0.9,4.5,2.4,6.7,3.7 c0.9,0.5,1.1,1.4,0.6,2.3c-0.7,1.3-1.3,2.6-2.1,3.8c-1.4,2-3.3,3.2-5.9,3c-1.4-0.1-2.7,0-4.1,0c0.1,0.3,0.1,0.4,0.1,0.5 c3.6,2.8,4.3,5.1,2.6,9.4c-0.2,0.4-0.3,0.8-0.5,1.2c-3.2,6.5-7,7.3-13.5,2.8c-0.3-0.2-0.6-0.5-1-0.9c-1.1,2.3-2,4.5-3.1,6.6 c-1.1,2.1-2.3,4.2-3.6,6.7c7.7-5.1,15.3-6.2,23.5-1.2c-1,1-1.9,2-2.9,2.8c-4.4,3.5-9.4,4.3-14.8,3.6c-2.4-0.3-4.8-1.1-7.1-1.5 c-0.6-0.1-1.5,0.1-1.8,0.5c-3.4,4-7.3,7.3-12.7,8.8c1.9,3.8,4.4,7,7.5,10c-0.5,0.6-1,1.1-1.5,1.7c-3.1-2.8-5.5-6.1-7.5-9.6 c-1.2-2.1-2.1-4.4-3.2-6.6c-0.2-0.5-0.8-1-1.2-1.1c-7.8-0.3-14.1-3.7-19.4-9.2c-7.9,6.5-15.7,3.4-23.8,0.1 c5.4-4.7,13.4-7.1,21.3-2.6c-1.9-3.1-3.9-5.9-5.5-9c-1.7-3.1-3-6.3-4.6-9.8c-0.1,1.3-0.1,2.2-0.2,3.1c-0.3,2.9-1.6,5.1-4.2,6.3 c-4.1,2-8.4,2.9-12.9,2.6c-2.3-0.2-3.1-0.8-3.8-3.1c-1.1-3.4-1.7-6.9-1.4-10.5c0.2-2.7,1.3-5,3.7-6.3c2-1.1,4.1-2,6.1-3 c0.5-0.3,1.1-0.5,1.6-1c-1.3-0.2-2.7-0.5-4-0.7c-5.8-0.9-9.6-3.9-10.1-10.1c-0.2-3-0.3-6.1-0.2-9.1c0-1.7,0.9-2.9,2.8-3.2 c4.1-0.6,8.1-0.3,12,1.1c2.6,0.9,4.2,2.8,5.1,5.4c0.6,1.7,1,3.4,1.8,5.1c0.2-1.3,0.4-2.6,0.5-4c0.4-4.3,2.4-7.2,6.7-8.3 c2.6-0.7,5.1-1.3,7.7-1.9c2-0.4,3.6,0.2,4.8,2.1c2,3.1,3.6,6.3,2.2,10.2c-0.9,2.6-2.9,4.3-4.9,6c-1.5,1.2-3.1,2.3-5,3.6 c0.8,0.1,1.2,0.2,1.7,0.2c9,0.4,12.6,8,12.7,13.8c0,1.7-0.7,3-2.2,3.9c-2.7,1.7-5.6,2.8-8.7,3.1c-2,0.3-3.9-0.2-5.5-1.4 c-0.9-0.7-1.7-1.4-2.7-2.1c0,0.2-0.1,0.4-0.1,0.5c3,7.1,6.7,13.8,12.5,19.1c4.1,3.8,8.9,6.1,14.6,6.6c0.3,0,0.6,0,0.8,0 c0.1,0,0.2-0.1,0.3-0.2c-0.8-3.1-1.7-6.2-2.3-9.3c-2.6-12.6-3.1-25.4-2.3-38.2c0.6-9.7,1.8-19.5,2.8-29.2c0.1-0.7,0.2-1.4,0.3-2.2 c-0.3,0.1-0.4,0.1-0.5,0.2c-6.7,7.2-15.2,8.9-24.5,8c-2.5-0.3-4-1.8-4.5-4.4c-0.7-4.1-1.7-8.2-1-12.4c0.7-4.2,2.9-7.3,6.9-8.7 c4.5-1.5,9.1-2.5,13.6-3.7c0.4-0.1,0.8-0.2,1.2-0.7c-0.6-0.1-1.2-0.2-1.8-0.4c-4.1-1.3-8.3-2.4-12.3-4c-3.9-1.5-6.4-4.4-6.8-8.9 c-0.3-4.4-0.6-8.8,0.9-13c0.8-2.4,2.3-4,4.8-4.6c5.2-1.3,10.3-1.2,15.5,0.2c3.5,1,5.7,3.1,6.6,6.6c1.1,4.4,1.9,8.8,2.9,13.2 c0.1,0.4,0.2,0.8,0.7,1.3c0.1-0.9,0.1-1.9,0.2-2.8c0.3-3.5,1.1-6.9,2.7-10.1c2.4-4.6,6.2-7.3,11.2-8.2c4-0.7,7.8-0.4,11.7,0.8 c3.9,1.2,6.2,3.6,6.9,7.7c0.9,5.2,0.5,10.2-2.1,14.9c-1.6,2.8-3.7,4.9-6.8,5.8c-3.4,1-6.9,1.8-10.3,2.7c-0.6,0.1-1.1,0.3-1.7,0.4 C-504.2-175.6-504.2-175.5-504.2-175.4z"></path> <path d="M-496.7,123.1c-4.6-5.1-7.8-10.9-10.1-16.8c-0.8,0.7-1.6,1.5-2.5,1.9c-12,5.1-22.8,3.1-32.5-5.4 c-6.7-5.9-11.2-13.5-14.8-21.5c-1.5-3.3-2.7-6.8-4.1-10.2c-0.2-0.4-0.2-0.8-0.4-1.5c1.7,1.3,3.1,2.5,4.6,3.5c4.6,3,9.7,3.9,15,4.2 c10.9,0.6,20.3,4.4,27.6,12.7c1.2,1.4,2.2,3,3.4,4.7c-0.6-3.6-1.1-7.1-1.6-10.5c-0.3-2.4-0.5-4.9-0.7-7.3c-0.1-1-0.5-1.3-1.4-1.3 c-12.6-0.3-24-8.3-27.8-23.1c-0.4-1.8-0.8-3.6-1.2-5.7c1.7,0.7,3,1.3,4.4,1.8c2.7,0.9,5.4,2,8.2,2.7c8.4,2.1,14,7.2,16.7,15.4 c0.1,0.4,0.3,0.8,0.4,1.2c0.1,0,0.3,0,0.4,0c0-2.8-0.2-5.7,0-8.5c0.5-7.5,1.1-15.1,1.7-22.6c0-0.3,0-0.6,0.1-0.8 c1.1-2,2.2-3.9,3.5-5.9c-0.1,0.8-0.1,1.6-0.2,2.4c-1.8,12.8-2.8,25.6-2.4,38.5c0.3,9.3,1.3,18.5,3.8,27.5c0.1,0.5,0.3,0.9,0.4,1.4 c0.2,0,0.3,0,0.5,0c0-1.7-0.1-3.3,0-5c0.6-7.6,4.1-14,9.1-19.6c4-4.4,8.2-8.6,12.3-12.9c2.5-2.6,4.9-5.3,5.6-9 c0.3-1.6,0.3-3.2,0.5-5.3c0.7,0.9,1.2,1.5,1.7,2.2c5.7,8,9.1,16.8,8.2,26.8c-0.6,7.2-4,13.1-9.1,18c-6.7,6.5-15,10.2-23.7,13.2 c-0.6,0.2-1.1,0.4-2.2,0.7c2.8,4.3,5.3,8.3,8,12.5C-495.4,121.8-496,122.4-496.7,123.1z M-475.7,56.5c-0.4,0.1-0.5,0.1-0.5,0.1 c-0.1,0.2-0.1,0.4-0.2,0.6c-0.6,5.4-3,9.9-6.7,13.8c-2.6,2.8-5.1,5.7-7.5,8.7c-4.9,6.2-8.7,12.9-10,20.8c-0.1,0.6-0.1,1.2-0.2,2 c0.4-0.3,0.5-0.4,0.5-0.4c0.2-0.4,0.5-0.7,0.7-1.1c2.6-4.4,6.2-7.8,10.8-10.1c1.9-1,3.8-2.1,5.7-3.2c4.4-2.6,7.3-6.3,8.3-11.3 c1-4.7,1.1-9.5,0.2-14.2C-474.7,60.3-475.3,58.4-475.7,56.5z M-510.9,105.2c0.2-0.3,0.3-0.5,0.5-0.8c-1.2-1.1-2.2-2.4-3.5-3.2 c-6.9-4.2-13.7-8.5-20.7-12.2c-6-3.2-12.8-5-18.6-8.9c0,0-0.1,0.1-0.3,0.2C-543.4,96-528.1,102.4-510.9,105.2z M-550.4,79 c-0.1,0.1-0.1,0.3-0.2,0.4c2.4,1.2,4.8,2.5,7.3,3.5c8.7,3.4,17.1,7.4,24.9,12.6c2.3,1.5,4.6,3,7.1,4.7c-0.2-0.7-0.3-1.1-0.4-1.4 c-2.5-6.5-7.2-10.9-13.1-14.3C-532.8,79.9-541.8,80.3-550.4,79z M-498.9,104.4c0.4,0,0.6,0,0.7,0c6.7-2.5,13.1-5.6,18.4-10.5 c7.6-6.9,10.7-15.4,8.6-25.7c-0.1-0.5-0.2-1-0.3-1.4c-0.3,2.1-0.3,4-0.5,6c-0.6,7.2-3.4,13.2-10,16.8c-2,1.1-4.1,2.3-6.1,3.3 C-493,95.5-496.4,99.4-498.9,104.4z M-516.7,72.7c-1.2-2.2-2.1-4.4-3.4-6.3c-1.3-1.8-2.7-3.7-4.5-4.8c-4.3-2.6-8.9-4.8-13.6-7.2 C-536.8,63-526.5,71.8-516.7,72.7z M-547.8,91.2c6.3,12.6,25.2,21.4,33.6,15.6c-6.3-0.9-12.2-2.8-17.8-5.5 C-537.6,98.5-543,95.4-547.8,91.2z M-502.6,98.9c0.2-0.2,0.3-0.3,0.4-0.3c1.9-8.5,6.4-15.7,11.9-22.3c2.6-3.2,5.4-6.1,8-9.3 c1.1-1.4,1.9-3,2.8-4.5c-0.2-0.1-0.3-0.2-0.5-0.4c-4.9,5.2-9.9,10.3-14.6,15.6c-3.3,3.7-5.8,7.8-7.1,12.7 C-502.5,93.2-503,95.9-502.6,98.9z M-536.7,52.8c0.8,0.5,1.6,1.1,2.5,1.5c2.4,1.2,4.8,2.3,7.2,3.4c4.4,2,7.7,5.2,9.7,9.6 c0.2,0.5,0.5,0.9,0.7,1.3c-0.5-3.5-2.1-6.5-4.5-9.1C-525.2,54.9-531,53.9-536.7,52.8z"></path> <path d="M-718.3,124.5c0.8-4.6,1.3-9.1,2.4-13.6c2.1-8.5,6.1-15.8,13.7-20.8c3.5-2.3,7.3-3.6,11.5-4.2c0.1,0.3,0.2,0.5,0.3,0.7 c0.5,10.3,0,20.4-3.6,30.2c-2.1,5.5-5.1,10.4-10.5,13.3c-2.7,1.5-5.7,2.1-8.8,2.1c-0.5,0-1.1,0-2.2,0c2.4,3.9,4.6,7.4,6.9,11.1 c-0.4,0.3-0.9,0.8-1.5,1.3c-1-1.3-2-2.4-2.7-3.7c-0.7-1.2-1.6-1.8-2.9-2.2c-10.1-3.2-18.4-9.3-25.8-16.6c-2.5-2.5-4.6-4.6-8.6-4.2 c-3.5,0.3-6.6-1.6-9.7-3.3c-0.7-0.4-1.6-0.5-2.4-0.4c-2.1,0.3-4.6-0.8-6-3.1c-1.2-1.9-1.2-3.8,0-5.3c1.3-1.7,3.4-2.2,5.2-1.2 c2.3,1.3,3.7,3.2,3.6,5.9c0,1.1,0.3,1.6,1.1,2.1c3.2,1.9,6.6,3.2,10.6,3c-3.1-4.1-6.1-8-9.2-12c-3.4,0.5-5.7-0.6-7.2-3.3 c-1.1-2.1-0.8-4.1,0.9-5.6c1.6-1.3,3.7-1.3,5.5,0.1c1.8,1.5,2.8,3.4,2.6,5.8c0,0.5,0,1.1,0.3,1.5c4.8,7.1,10.2,13.6,16.4,19.4 c0.1,0.1,0.2,0.1,0.5,0.2c0-2.5-0.9-4.7-1.8-6.8c-0.3-0.8-0.8-1.5-1.1-2.2c-0.4-0.9-0.9-1.2-2-1.2c-2.4,0.1-5-2-5.8-4.3 c-0.5-1.6-0.2-3.1,1-4.3c1.3-1.2,2.8-1.6,4.4-1c3.1,1.1,4.7,4.4,3.8,7.7c-0.1,0.4,0.1,1.1,0.3,1.5c2.1,3.8,3.8,7.8,3.6,12.3 c0,0.4,0.2,0.9,0.5,1.1c5.7,4.8,11.9,8.9,19.5,11.5c-5.7-11-7.9-22.5-9-34.2c-2.1,0.5-4,1.1-6,1.4c-6.8,0.8-12.3-1.8-16.9-6.5 c-5.8-5.7-9.5-12.8-12.5-20.3c-1.3-3.3-2.4-6.8-3.6-10.3c10.7-2,19.4,1,26.8,8.3c4.4,4.4,7.7,9.6,10.3,15.2 c0.4,0.8,0.7,1.6,1.3,2.4c0-16.9,1.7-33.6,5-50.1c0.2,0,0.3,0,0.5,0c-0.2,2.3-0.6,4.6-0.7,7c-0.8,13.7-1.8,27.5-2.2,41.2 c-0.3,10.7,1,21.4,4,31.8C-718.8,123.2-718.5,123.9-718.3,124.5z M-713.9,129.4c0.3,0,0.6,0.1,0.9,0.1c6.1-0.2,10.6-3.2,13.6-8.2 c5-8.3,5.9-17.6,6.1-27.1c-1.8,6.6-4.8,12.8-8.6,18.4C-705.7,118.3-709.8,123.8-713.9,129.4z M-758.4,73.5 c2.5,7.1,5.7,13.8,10.7,19.6c2.6,3,5.5,5.6,9.4,7c3.7,1.4,7.4,1.3,11.4-0.3C-738.9,92.4-750.3,84.9-758.4,73.5z M-758,70.1 c6.8,12,17.7,19.4,29.1,26.3C-736.5,85.3-745.2,75.5-758,70.1z M-694.7,91.2c-10.3,9.3-15.3,21.4-18.8,34.4 C-705.1,115.3-697.1,104.8-694.7,91.2z M-714.9,122.3c2.3-5.4,4.5-11,7-16.4c2.6-5.5,6.1-10.3,10.6-14.9 C-706.5,93.3-715.6,110.1-714.9,122.3z M-728.8,93.3c0.2-0.1,0.4-0.3,0.6-0.4c-2.4-3.9-4.5-8-7.2-11.7c-4.4-6-10-10.5-17.5-12.1 c-0.8-0.2-1.6-0.2-2.4-0.3C-744.2,74.7-736,83.5-728.8,93.3z"></path> <path d="M-826,95.7c2.1-2.7,3.8-5.3,6-7.4c2.8-2.8,6.3-2.6,9.2,0c2.1,1.9,2.3,4.1,0.6,6.4c-2.2,2.9-5.3,4.7-8.5,6.3 c-2,1-4,1.9-6.1,2.8c-0.9,0.4-1.3,0.9-1.4,1.9c-0.1,2.8-0.5,5.5-0.7,8.4c-0.7-0.1-1.1-0.1-1.7-0.2c0.1-1.1,0.1-2.1,0.2-3.1 c-2.1-0.6-4.2-1.1-6.2-1.8c-3.6-1.2-7.2-2.6-10.1-5.3c-2.6-2.4-2.7-5.2-0.4-8c1.9-2.3,4.4-3.1,6.9-1.5c2.5,1.7,4.8,3.9,7,6.1 c1.2,1.2,2.1,2.7,3.3,4.3c0.1-0.6,0.2-1,0.2-1.4c0-5.2-0.1-10.3-0.1-15.5c0-1.6-0.6-2.2-2.2-2.7c-3.7-1.2-7.3-2.5-10.9-4 c-1.5-0.7-2.9-1.9-4.1-3.1c-1.5-1.5-1.5-3.4-0.3-5.2c2.3-3.5,6-4.4,9.5-2c2,1.4,3.6,3.3,5.3,5c0.5,0.5,0.9,1.2,1.7,1.6 c-0.3-2.5-0.6-4.9-1-7.4c-0.1-0.4-0.6-0.8-0.9-0.9c-8.3-1.8-14.6-6.8-20.6-12.4c-6.5-6.1-12-13.1-17.1-20.4 c-0.4-0.5-1.1-1-1.8-1.1c-1.3-0.4-2.1-1.2-2.8-3.4c1.4-0.6,2.9-1.2,4.7-1.9c0.2,1,0.5,2.2,0.7,3.4c0.1,0.6,0.1,1.2,0.4,1.7 c6.5,9.4,13.6,18.3,22.7,25.4c3.8,3,7.9,5.4,12.5,6.7c0.4,0.1,0.8,0.2,1.1,0.2c0.1,0,0.2-0.1,0.5-0.1c-0.5-2.7-0.9-5.4-1.5-8.1 c-1.2-5.2-2.5-10.5-3.9-15.7c-0.1-0.6-0.8-1.3-1.3-1.4c-6.9-1.3-12-5.2-16.4-10.4c-1.3-1.6-2.4-3.4-3.6-5c-1-1.3-2.2-2.4-3.3-3.7 c-0.3-0.3-0.4-0.8-0.5-0.9c1.6-0.4,3.2-0.8,5.2-1.3c0,1,0,2.3,0,3.6c0,0.5-0.1,1,0.1,1.4c3.6,5.8,8,10.6,14.4,13.4 c1.3,0.6,2.7,0.9,4.4,1.4c-0.2-0.8-0.2-1.3-0.3-1.7c-3.4-9.3-6.8-18.7-10.2-28c-0.3-0.7-1-1.2-1.5-1.9c-0.7-1-1.2-2-1.8-3 c1.8-0.6,3.3-1.1,4.9-1.7c0.5,1.5,1.3,3-0.1,4.7c-0.2,0.3-0.1,0.9,0.1,1.4c6.2,14.3,11,29.1,14.4,44.3c0,0.2,0.1,0.3,0.6,0.5 c0.5-2.8,1-5.5,1.4-8.3c0.4-2.8,0.7-5.6,1-8.4c0.3-2.9,0.5-5.8,0.8-8.6c0.2-2.8,0.5-5.7,0.5-8.5c0-2.8-0.3-5.7-0.5-8.4 c1.4,0.4,2.8,0.9,4.5,1.4c-0.3,0.7-0.5,1.7-1.1,2.3c-0.9,0.8-1,1.7-1.1,2.8c-1,10.9-2,21.8-3.2,32.6c-0.2,2.2-1.1,4.3-1.7,6.4 c-0.1,0.4-0.2,0.9-0.1,1.3c1.2,8.7,2.4,17.5,3.6,26.2c0,0,0.1,0.1,0.3,0.3c0.3-1.2,0.6-2.3,0.9-3.3c5-17.5,10.5-34.9,18.3-51.4 c1.7-3.6,3.7-7,5.5-10.5c0.3-0.5,0.4-1.2,0.3-1.8c-0.2-1.6,0.4-2.8,1.3-3.8c1.4,0.9,2.8,1.7,4.2,2.6c-0.6,1.3-1.5,2.4-3.1,3 c-0.6,0.2-1.2,0.8-1.4,1.4c-3.5,7.2-7.2,14.4-10.3,21.8c-3.2,7.7-5.7,15.8-8.5,23.7c-0.1,0.4-0.2,0.8-0.4,1.5 c0.4-0.1,0.7-0.2,1-0.3c11.5-5.6,21.4-13.1,29-23.4c0.5-0.7,0.9-1.5,1.2-2.3c0.3-0.8,0.5-1.7,0.7-2.4c1.6,0.6,3.1,1.2,4.6,1.8 c-0.4,2.6-1.4,3.4-4,3.3c-0.4,0-0.9,0.3-1.1,0.7c-8.2,10.9-18.9,18.9-31.2,24.6c-0.6,0.3-1.2,1-1.4,1.6 c-1.8,6.2-3.6,12.5-5.3,18.7C-825.9,92.7-825.9,94.1-826,95.7z"></path> <path d="M-730.1-152.7c-3.6,1.6-7.2,2.2-11,1.2c-0.3-0.1-1,0.5-1.2,1c-1.9,2.9-3.7,5.9-5.7,8.8c-0.5,0.8-1.5,1.2-2.2,1.8 c-0.2-0.1-0.4-0.3-0.6-0.4c0.2-0.8,0.3-1.7,0.7-2.4c1.7-2.8,3.5-5.5,5.2-8.3c0.3-0.5,0.7-1,1.1-1.6c-3.4-2.1-5.6-4.9-6.9-8.6 c-0.1-0.3-1-0.4-1.5-0.4c-4.5,0.4-9.1,0.8-13.6,1.1c-0.9,0.1-1.9-0.3-2.8-0.8c5.6-2.1,11.4-1.8,17.3-2.5c-0.2-4.2,1-7.7,4.9-10.1 c-1.4-2-2.7-3.8-3.9-5.8c-1.5-2.5-2.9-5.1-4.2-7.8c-0.3-0.6,0-1.4,0-2.2c0.7,0.3,1.7,0.4,2.1,0.9c2.2,3.2,4.2,6.5,6.3,9.8 c0.7,1.2,1,2.9,2,3.5c0.9,0.5,2.5-0.3,3.8-0.2c2.6,0.1,5.3,0.4,8.1,0.6c0.9-2.2,1.8-4.7,2.9-7.1c1-2.3,1.7-4.9,3.9-6.4 c0.2,0.1,0.4,0.1,0.6,0.2c-0.1,0.9,0,1.9-0.4,2.8c-1.4,3.5-3,7-4.5,10.5c-0.2,0.3-0.3,0.7-0.6,1.2c0.6,0.3,1.2,0.5,1.6,0.9 c1.5,1.1,3.4,1.9,4.4,3.4c1.6,2.3,3.1,2,5.2,1.2c3.1-1.1,6.3-1.8,9.4-2.6c0.5-0.1,1-0.1,1.5-0.1c1.1,0.1,1.4,0.8,0.6,1.6 c-0.8,0.8-1.9,1.5-2.9,1.8c-3.1,1-6.3,1.9-9.4,2.7c-1,0.2-1.5,0.4-1.5,1.7c0.1,2.9-1.4,5.1-3.4,6.9c-1,0.9-2,1.7-3.2,2.6 c1.1,1.8,2.3,3.5,3.2,5.4c1.1,2.1,2.1,4.3,2.9,6.5c0.2,0.6-0.2,1.4-0.3,2.1c-0.8-0.1-1.8,0-2.2-0.5c-1.2-1.4-2.4-2.9-3.2-4.6 C-728.4-147.4-729.1-150-730.1-152.7z"></path> <path d="M-407.6-68.6c-0.7-0.5-1.2-0.9-1.6-1.2c0-0.2,0-0.3,0-0.4c6.4-9.1,7.7-19.3,6.7-30.1c-1.2-12.4-4.9-24.2-9.6-35.6 c-4.1-9.9-5.5-20.1-4.5-30.7c0.1-0.8,0.1-1.7,0.2-2.5c0.2-0.7,0.5-1.4,0.8-2.2c-0.9-0.2-1.6-0.4-2.3-0.4c-6-0.3-9.6-4.9-9.1-11.1 c0.2-3.1,1.1-5.9,3.6-8c3.8-3.1,8.9-3.3,13.6-0.7c2.3,1.3,4.2,3.1,5.5,5.4c2.2,4.2,1,8.5-3.6,11.6c-1.7,1.2-3.8,1.7-5.7,2.7 c-0.5,0.2-1.2,0.8-1.2,1.2c0.6,9.3-0.6,18.7,2.6,27.7c2.1,5.9,4.5,11.7,6.5,17.7c3.9,11.7,6.5,23.5,5.6,36.3 c5.4-3.3,9.2-7.6,12-12.8c-6.2-7.3-5.6-16-5.5-24.8c0.9,0.1,1.6,0.1,2.3,0.1c0.1,7.7-0.6,15.4,4.2,22.5c4.1-8.8,4-17.6,3-26.6 c0.8-0.1,1.4-0.3,2.2-0.4c1.5,8.9,0.8,17.5-2.3,26.3c5-2.3,7.9-6.1,10-10.7c0.7,0.3,1.3,0.5,2.1,0.8c-0.9,2.7-2.4,5-4.3,7.1 c-2.4,2.5-5.1,4.4-8.4,5.6c-0.5,0.2-1,0.7-1.3,1.1c-3.3,6-7.8,10.8-13.7,14.2c-0.5,0.3-0.9,1.1-1,1.7c-1,5-2.7,9.7-5.5,14 C-406.6-70-407-69.4-407.6-68.6z M-419.4-184.9c-0.6-1.9-2-2.9-3.7-2.8C-422.8-185.8-421.4-184.7-419.4-184.9z M-407.4-179.5 c-0.9-1.4-2.1-1.9-3.7-2C-410.4-179.4-409.2-178.7-407.4-179.5z M-416.4-186.9c0.2,0,0.4,0.1,0.6,0.1c1.2-1.4,1.4-3.3,0.1-4.9 C-416-189.9-416.2-188.4-416.4-186.9z M-412.4-174.6c1.2-2.3,0.4-3.7-1.9-3.6C-413.7-177-413.2-176-412.4-174.6z M-417.7-179 c-0.2-0.1-0.4-0.1-0.5-0.2c-0.4,1.3-0.9,2.5-1.4,4.2C-417.6-175.8-417.1-177.2-417.7-179z M-420.8-181.4c-1.6,0.3-2.6,1-3.2,2.5 C-422.1-178.6-421.1-179.4-420.8-181.4z M-406.6-185c-1.1,0.4-2,0.7-3.4,1.2C-407.3-183-406.9-183.1-406.6-185z"></path> <path d="M-440.4-142c20.2,7.7,37.1,29.4,33.6,62.4c-0.8-0.5-1.5-0.8-2.1-1.3c-5.6-4.2-9.8-9.8-12.6-16.1c-2.3-5.2-4-10.7-5.8-16.1 C-430.6-123.1-434.7-132.8-440.4-142z"></path> <path d="M-627.9-155.8c-0.7,4.9-1.5,9.8-2.2,14.7c-2.5,15.6-3.6,31.2-1.1,46.9c0.7,4.7,2,9.3,3.3,13.9c1.9-9.9,5.2-18.9,11.7-26.6 c6.5-7.7,15-12,24.9-14c-4.5,20.5-13.4,37.4-35.2,44.6c0.7,1.6,1.4,3.1,2.1,4.6c0.8,1.5,1.6,3,2.5,4.7c-0.6,0.4-1.2,0.7-1.9,1.2 c-2.9-4.5-5-9.3-6.6-14.3c-4.1-12.7-5.1-25.8-4.5-39c0.5-11.5,2.2-22.8,4.7-33.9c0.2-1.1,0.9-2.1,1.4-3.1 C-628.5-156-628.2-155.9-627.9-155.8z M-622.1-81.1c9.4-1.6,26.6-23.3,26.3-32.8C-604.5-103.2-613.3-92.1-622.1-81.1z M-624-82.2 c4.8-4.3,24.8-29.5,25.6-32.2C-605.7-110.5-621.8-90.3-624-82.2z M-601.3-114.5c-8.3,2.7-20.8,17.2-20.5,23.9 C-616.1-99.8-609-107.4-601.3-114.5z"></path> <path d="M-674-102.3c14.1-3.1,37.3,12.8,41.5,28.6C-648.2-71-671.6-87.1-674-102.3z"></path> <path d="M-385.3,111.7c2.7-4.2,4.1-8.5,5.1-13c2.1-9.7,2.6-19.5,2.6-29.3c0-0.8,0.3-1.5,0.5-2.7c3.7,7.7,0.5,38.6-6.8,47.3 c0.9,1.3,1.9,2.6,2.9,3.9c-0.7,0.6-1.4,1.2-2.1,1.8c-3-3.5-5.5-7.3-7.2-11.4c-1.3-3.1-2.9-4.8-6.3-5.7 c-6.6-1.8-11.4-6.4-15.8-11.5c-4.3-5-7.6-10.7-10.5-16.5c-0.5-1.1-0.5-2.4-0.9-3.5c-0.8-2.6-1.6-5.1-2.5-7.7 c0.1-0.1,0.3-0.2,0.4-0.3c0.4,0.6,0.9,1.1,1.2,1.8c3.2,8,7,15.6,12.2,22.5c4.2,5.5,9.1,10.3,15.7,13c0.7,0.3,1.5,0.5,2.2,0.7 c0.3,0.1,0.5,0.1,1,0.1c-0.1-0.4-0.1-0.7-0.2-1c-3.8-11-5.2-22.4-5.4-33.9c-0.4-17,1.8-33.8,5.3-50.4c0.5-2.4,0.9-3.1,2.7-4.8 c1,0.8,1,1.8,0.7,3c-4,17.2-6.3,34.6-5.9,52.3c0.3,13.1,2,25.9,7.3,38c0.9,2,1.9,3.9,2.9,5.8C-386.1,110.6-385.8,111-385.3,111.7z "></path> <path d="M-404.2-70.8c4.1-9.5,10.3-16,20.5-18.2c6.4-1.4,12.7-3.2,18.3-6.7c2.1-1.3,4-2.9,6.2-4.4c-3.8,9-9.8,16.2-18,21.3 C-385.4-73.7-394.4-71.3-404.2-70.8z"></path> <path d="M-506.8,20.7c-1.1-0.2-3.3-0.5-5.4-1.2c-3.7-1.4-6.6-6.9-5.9-10.8c0.6-3.5,4.7-7.2,8.4-7.3c4.9-0.1,9.6,0.4,13.8,3.3 c2.4,1.7,4.6,3.5,3.9,6.9c-0.2,1-0.8,2.1-1.5,2.9C-496.5,18.3-500.5,20.6-506.8,20.7z"></path> <path d="M-713.6-90.3c0.7,0.4,1.3,0.8,2.1,1.3c-2.4,3-4.6,5.9-7,9c3.7-1,7.3-2.3,11.2-1.7c0,0.2,0.1,0.3,0.1,0.5 c-1.7,0.3-3.4,0.6-5.1,0.9c-1,0.2-2,0.3-3,0.4c-2.9,0.3-5.3,1.4-7.6,3.2c-3,2.3-6.4,4.1-9.7,6c-0.9,0.5-1.2,1-1.2,1.9 c0,3.1,0,6.2,0,9.4c-1,0-1.7,0-2.3,0c-0.1-0.1-0.2-0.2-0.2-0.3c0.7-3.2-0.8-4.3-3.8-5.2c-4.6-1.3-8.2-4.6-10.8-8.5 c-1.9-2.9-4.5-4.2-7.7-4.6c-1.8-0.2-3.7-0.6-5.5-1c3.2-0.7,6.4-0.5,9.7,1.1c-1.9-4.3-3.7-8.4-5.6-12.8c3,1.3,3,1.3,4.1,3.8 c2.4,5.5,5.1,10.8,9.5,15.2c2.8,2.8,6,4.9,10.4,5.7c0-1.2,0-2.3,0-3.4c0-5.3,0-10.7-0.1-16c0-0.7-0.4-1.5-0.9-2 c-2.5-2.1-5-4.1-7.5-6.3c3.7,0.5,5.8,3.2,8.2,6c0-3.5,0.1-6.7,0-9.9c-0.4-8.9-1-17.7-1.5-26.6c-0.1-1.1-0.6-1.7-1.5-2.1 c-2.5-1.2-5.1-2.4-7.6-3.7c3.1,0.3,6.1,1.2,8.8,3.4c0.9-6.2-1.2-12.6,2.8-18.2c0,10.4,0,20.7,0,31c0.2,0,0.3,0.1,0.5,0.1 c2.2-2.9,3.8-6.4,7.7-7.6c-0.5,0.6-1,1.1-1.5,1.7c-1.7,1.9-3.6,3.8-5.2,5.8c-0.6,0.7-0.9,1.9-0.8,2.8c0.3,12.3,0.6,24.5,0.9,36.8 c0,0.4,0.1,0.9,0.1,1.5C-725.2-76.7-718.6-82.6-713.6-90.3z"></path> <path d="M-660.5-139.6c12.6,4.4,25.7,25.1,25.3,40c-2-0.6-4-1.1-5.8-1.9c-10.3-4.5-16.2-12.7-18.4-23.5c-0.9-4.5-0.8-9.2-1.2-13.9 C-660.7-139-660.6-139.3-660.5-139.6z M-639.3-107.4c-1.3-8.8-10.5-23.2-15.7-24.9C-649.7-124-644.5-115.7-639.3-107.4z M-640.9-105.9c0.2-0.1,0.3-0.2,0.5-0.3c-5.4-8.5-10.7-17.1-16.1-25.6c-0.1,0.1-0.3,0.2-0.4,0.3 C-653.4-121.8-648.6-112.9-640.9-105.9z M-656.8-126.1c1.6,8.3,5.5,15.1,12.8,19.8C-649.5-112.2-653.5-118.9-656.8-126.1z"></path> <path d="M-698.6-112c2.4-0.1,4.7-0.3,6.9-0.3c0.5,0,1,0.5,1.5,0.7c-0.4,0.4-0.9,1.2-1.3,1.2c-1.7,0.2-3.4,0.2-5.1,0.2 c-0.5,0-1.1-0.1-1.4-0.1c-0.8,2.2-1.5,4.2-2.3,6.4c1.1,1.9,3.3,3.8,3.6,6.5c-0.2,0.1-0.4,0.3-0.6,0.4c-1.4-2.1-2.8-4.1-4.1-6 c-2,0.3-3.9,0.6-5.8,1.1c-0.4,0.1-0.8,0.7-0.9,1.1c-0.7,1.9-1.2,3.8-1.9,5.7c-0.3,0.7-0.8,1.4-1.2,2.1c-0.2-0.1-0.4-0.2-0.7-0.2 c0.9-2.9,1.9-5.9,2.9-9c-2-0.8-3.5-2.3-3.9-4.8c-3.3,0.3-6.4,1.4-9.6,0.7c-0.1-0.2-0.1-0.4-0.2-0.6c0.6-0.3,1.1-0.7,1.7-0.8 c2.1-0.3,4.2-0.6,6.3-0.7c1.2-0.1,1.8-0.3,2.2-1.6c0.5-1.6,1.4-3,2.2-4.6c-1.7-2-4.1-3.7-5.3-6.3c0.2-0.2,0.3-0.3,0.5-0.5 c1,0.9,2,1.8,3,2.8c1,1,1.8,2.1,2.6,3c1.7-0.8,3.3-1.4,4.9-2.2c0.4-0.2,0.6-0.9,0.6-1.4c0.3-1.8,0.5-3.5,0.7-5.3 c0.1-0.6,0.4-1.2,0.7-1.8c0.2,0,0.3,0,0.5,0c0.2,0.6,0.5,1.2,0.4,1.7c-0.2,1.9-0.5,3.7-0.7,5.6c0,0.4-0.1,1.1,0.1,1.2 C-699.8-116.6-699.2-114.3-698.6-112z"></path> <path d="M-770.5-107.7c-2.5,0-5.2,0-8,0c0-0.2,0-0.4,0-0.6c2.6-1.1,5.5-0.2,8-0.5c0.6-1.7,1.2-3.3,1.6-5c0.1-0.4-0.2-1-0.5-1.4 c-1.1-1.4-2.3-2.7-3.4-4.1c-0.4-0.5-0.6-1.1-0.7-1.9c3,0.9,4.2,3.7,6.1,5.8c2.5-1.3,4.7-0.3,6.9,1c1.3-1.7,2.5-3.3,3.9-4.9 c0.5-0.5,1.4-0.7,2-1.1c-0.1,0.8,0.1,1.8-0.4,2.4c-1.2,1.6-2.7,3-3.8,4.2c0.9,1.9,1.7,3.8,2.6,5.6c0.2,0.3,0.8,0.5,1.3,0.5 c1.6,0.3,3.2,0.4,4.8,0.7c0.6,0.1,1.2,0.5,1.7,1c-2.6,0.6-5.1-0.3-7.2-0.6c-1.2,1.8-2.2,3.5-3.2,5.2c-0.2,0.3,0,1,0.2,1.5 c1,1.9,2,3.7,3,5.6c0.3,0.6,0.4,1.3,0.6,2c-0.2,0.1-0.4,0.2-0.6,0.3c-1.6-2.7-3.1-5.4-4.6-7.9c-2.2,0-4.2,0-6.7,0 c-1.6,2-2.8,5.3-5.6,7c-0.2-0.1-0.3-0.2-0.5-0.3c0.2-0.7,0.4-1.4,0.7-2c1.2-1.8,2.6-3.6,3.9-5.4c0.6-0.7,0.6-1.2,0.1-2 C-769.1-103.9-769.6-105.6-770.5-107.7z"></path> <path d="M-627.9-158.1c-2.4,0-4.6-1.5-5.3-4.2c-0.7-2.8,1.2-6.4,4.1-7.9c2.4-1.2,4.9-1.3,7.4-0.3c3.6,1.5,4.5,6,1.9,9.3 C-621.6-158.9-624-158-627.9-158.1z"></path> <path d="M-416.1,105.1c-2.6-0.5-5.3-0.9-7.9-1.5c-0.8-0.2-1.5-0.7-2.1-1.2c-1.1-0.9-1.9-2.2-1.3-3.5c0.4-0.9,1.6-1.9,2.5-2 c5.8-1.1,11.2,0.1,16.3,2.9c1.9,1.1,1.8,2.7-0.3,3.5C-411.1,104-413.5,104.4-416.1,105.1z"></path> <path d="M-373.8,107.7c-3.8,0-4.8-1.5-3.2-4c2.3-3.7,5.4-6.4,9.8-7.4c1.5-0.4,2.8,0,3.7,1.2c0.9,1.2,0.7,2.6-0.1,3.7 C-366.2,105.1-370,107.2-373.8,107.7z"></path> <path d="M-390.2,97.1c0.1-3.4,0.6-6.7,2.3-9.7c0.6-1.1,1.3-2.2,2.7-2c1.5,0.2,2,1.5,2.2,2.8c0.8,4.2,0,8.1-2.1,11.8 c-0.7,1.3-1.7,2.6-3.4,2.2c-1.7-0.4-1.6-2.2-1.8-3.6C-390.3,98.1-390.2,97.6-390.2,97.1z"></path> <path d="M-401.5,43.4c-0.1,0.8,0,1.3-0.1,1.8c-0.2,1.1-0.9,1.6-2,1.2c-0.3-0.1-0.6-0.2-0.9-0.4c-3.5-2.5-5.9-5.8-6.7-10.1 c-0.1-0.4-0.1-0.9,0-1.3c0.1-1.3,0.7-2.3,1.9-2.9c1.3-0.6,2.3,0,3.2,0.8c2.4,2.2,3.4,5.1,4.2,8.1 C-401.7,41.5-401.7,42.6-401.5,43.4z"></path> <path d="M-390.9,7.3c-1.1-2.7-2.1-5.1-3.1-7.5c-0.4-0.8-0.8-1.3-1.9-0.9c-1.9,0.6-3.2-0.2-3.5-2c-0.3-1.5,0.6-3.2,1.8-3.5 c1.4-0.3,3.6,1.1,3.5,2.6c-0.1,2,1,3.4,1.8,5c0.5,1,0.8,2.1,1.3,3.4c0.2-3,0.4-5.8,0.5-8.5c0-0.4-0.6-0.8-0.9-1.1 c-0.7-0.8-1.3-1.7-0.7-2.9c0.6-1.1,1.5-1.4,2.7-1.2c1.2,0.2,2.5,0.6,2.8,2c0.3,1.3-0.6,2-1.6,2.3c-1,0.3-1.4,1-1.4,2 c-0.1,2.6-0.3,5.2-0.1,7.9c0.7-1,1.3-2.2,2-3.1c1.1-1.3,2.3-2.5,3.4-3.9c0.4-0.5,0.8-1.1,0.9-1.8c0.2-1.2,0.6-2,1.9-2.1 c1.7-0.1,3.1,0.8,3.2,2c0.2,1.5-0.8,2.1-2,2.4c-0.3,0.1-0.7,0.2-1,0.1c-2.1-0.9-3.3,0.5-4.3,1.8c-1.4,1.8-2.5,3.8-3.8,5.6 C-389.9,6.6-390.5,7-390.9,7.3z"></path> <path d="M-393.6,39.5c1-3.9,3-7.7,7.2-9.9c0.9-0.5,2.5-0.3,3.3,0.2c0.5,0.3,0.4,2.1,0.1,3c-1.7,3.9-4.4,7-8.3,8.9 C-392.8,42.4-393.6,41.7-393.6,39.5z"></path> <path d="M-714.3,29.3c0,3-2.3,5.7-4.8,5.6c-2.2,0-4.1-2.6-4.1-5.4c-0.1-2.9,1.7-4.6,4.7-4.6C-715.9,24.8-714.3,26.5-714.3,29.3z"></path> <path d="M-431.8,59.5c-0.4-1.6-0.7-3.2-1.3-4.8c-0.2-0.5-0.9-0.7-1.2-1.2c-0.5-0.6-1.3-1.4-1.2-2c0-0.6,1-1.4,1.7-1.5 c0.9-0.1,1.8,0.4,2.7,0.8c0.1,0.1-0.1,1.3-0.5,1.7c-0.8,0.8-0.9,1.7-0.5,2.7c0.6,1.7,1.1,3.4,1.6,5.1c0.9-2.5,1.8-4.8,2.7-7.1 c0.1-0.3,0-0.7-0.1-1c-0.2-1.4,0.3-2.2,1.7-2.3c1.1-0.1,2.1,0.2,2.3,1.4c0.2,1.4-0.7,2.3-1.8,2.3c-1.5,0-2,0.9-2.3,1.9 c-0.6,1.8-0.9,3.6-1.4,5.4c-0.2,0.5-0.5,1-0.7,1.6c-0.4-0.4-0.9-0.7-1.2-1.1c-0.7-0.8-1.4-1.8-2.1-2.6c-0.9-1-1.8-2-3.5-0.8 c-1.1,0.7-2.2,0-2.6-1.2c-0.4-1.1-0.5-2.2,0.9-2.8c1.2-0.5,2.9-0.1,3.1,1C-435.4,57.4-433,57.9-431.8,59.5z"></path> <path d="M-373.3,59.5c0.4-1.8,2.2-3.3,1-5.5c-0.1-0.3,0.7-1.5,1-1.5c0.8,0.1,1.7,0.6,2.4,1.1c0.2,0.1-0.3,1.6-0.6,1.7 c-1.8,0.3-2,1.7-2.5,3c-0.3,0.8-0.6,1.7-0.7,2.6c1.7-1.7,4.5-1.9,5.9-4.1c0.2-0.3,1.4-0.3,1.9-0.1c0.4,0.2,0.8,1.2,0.7,1.6 c-0.2,0.5-1.2,1.1-1.5,1c-3.1-1.4-4.8,0.9-6.8,2.4c-0.5,0.4-1,0.6-1.5,0.9c-0.1-0.6-0.2-1.2-0.3-1.8c-0.1-0.9,0-1.8-0.1-2.7 c-0.1-0.9-0.4-1.5-1.5-1.7c-1.3-0.2-1.6-1.3-1.3-2.4c0.2-1,0.9-1.6,2-1.2c1.1,0.4,1.6,1.2,1.5,2.5c-0.1,1.4,0,2.8,0,4.3 C-373.6,59.5-373.4,59.5-373.3,59.5z"></path> <path d="M-778.6,32.1c-2,0-3.3-1.3-3.1-2.5c0.1-0.5,0.7-1.1,1.2-1.2c1.3-0.1,3.7,1.6,3.3,2.4C-777.4,31.4-778.3,31.8-778.6,32.1z"></path> <path d="M-875,21.3c-1-0.8-1.6-1.4-2.3-1.9c0.6-0.5,1.1-1.1,1.7-1.6c0.1-0.1,0.2-0.1,0.3-0.1c0.9,0,1.8,0.1,2.6,0.2 c0.1,0,0.3,1,0,1.3C-873.2,19.9-874,20.4-875,21.3z"></path> <path d="M-789.2,8c-2,0-3.3-1.1-3.2-2.5c0-0.5,0.6-1.3,1.1-1.4c1-0.2,3.4,1.9,3.1,2.7C-788.2,7.4-789,7.8-789.2,8z"></path> <path d="M-849.8-8.8c0.2,0.2,1,0.6,1.1,1.2c0.2,0.9-1.2,2.1-2.3,2c-1.1-0.1-2.1-0.3-2.4-1.6C-853.6-8.1-852.1-8.8-849.8-8.8z"></path> <path d="M-860.5,12c-1-1-1.6-1.7-2.2-2.3c0.6-0.5,1.3-1.6,1.8-1.5c0.7,0.2,1.4,1,1.8,1.8C-859,10.3-859.8,11-860.5,12z"></path> <path d="M-819.6,2.7c-0.8,0.9-1.3,1.3-1.7,1.8c-0.7-0.6-1.3-1.3-2-1.9c0.5-0.4,1-1.3,1.4-1.2C-821.2,1.4-820.6,2.1-819.6,2.7z"></path> <path class="st2" d="M-475.7,56.5c0.4,1.9,0.9,3.8,1.3,5.7c0.8,4.8,0.8,9.5-0.2,14.2c-1.1,5-3.9,8.7-8.3,11.3 c-1.9,1.1-3.7,2.2-5.7,3.2c-4.6,2.3-8.1,5.7-10.8,10.1c-0.2,0.4-0.5,0.8-0.7,1.1c-0.1,0.1-0.2,0.1-0.5,0.4c0.1-0.8,0.1-1.4,0.2-2 c1.3-7.9,5.1-14.6,10-20.8c2.4-3,4.9-5.9,7.5-8.7c3.7-3.9,6.1-8.4,6.7-13.8c0-0.2,0.1-0.4,0.2-0.6 C-476.1,56.6-476.1,56.6-475.7,56.5z"></path> <path class="st2" d="M-510.9,105.2c-17.3-2.9-32.6-9.2-42.6-24.9c0.1-0.1,0.3-0.2,0.3-0.2c5.7,3.9,12.5,5.6,18.6,8.9 c7.1,3.8,13.9,8,20.7,12.2c1.3,0.8,2.3,2.1,3.5,3.2C-510.5,104.7-510.7,105-510.9,105.2z"></path> <path class="st2" d="M-550.4,79c8.6,1.3,17.6,0.9,25.6,5.6c5.9,3.4,10.6,7.8,13.1,14.3c0.1,0.3,0.2,0.7,0.4,1.4 c-2.6-1.7-4.9-3.2-7.1-4.7c-7.8-5.2-16.1-9.2-24.9-12.6c-2.5-1-4.8-2.3-7.3-3.5C-550.6,79.3-550.5,79.1-550.4,79z"></path> <path class="st2" d="M-498.9,104.4c2.6-4.9,5.9-8.9,10.8-11.4c2.1-1.1,4.1-2.2,6.1-3.3c6.6-3.7,9.4-9.6,10-16.8c0.2-2,0.2-4,0.5-6 c0.1,0.5,0.2,1,0.3,1.4c2.1,10.2-1.1,18.7-8.6,25.7c-5.3,4.9-11.7,8-18.4,10.5C-498.3,104.4-498.5,104.4-498.9,104.4z"></path> <path class="st2" d="M-516.7,72.7c-9.8-0.9-20.1-9.7-21.5-18.2c4.6,2.4,9.2,4.5,13.6,7.2c1.8,1.1,3.2,3,4.5,4.8 C-518.9,68.3-517.9,70.4-516.7,72.7z"></path> <path class="st2" d="M-547.8,91.2c4.7,4.2,10.1,7.3,15.8,10c5.6,2.7,11.5,4.6,17.8,5.5C-522.6,112.5-541.5,103.7-547.8,91.2z"></path> <path class="st2" d="M-502.6,98.9c-0.3-3,0.1-5.8,0.8-8.6c1.3-4.8,3.8-9,7.1-12.7c4.8-5.3,9.7-10.4,14.6-15.6 c0.2,0.1,0.3,0.2,0.5,0.4c-0.9,1.5-1.7,3.2-2.8,4.5c-2.6,3.2-5.4,6.2-8,9.3c-5.5,6.6-10,13.7-11.9,22.3 C-502.3,98.7-502.4,98.7-502.6,98.9z"></path> <path class="st2" d="M-536.7,52.8c5.7,1.1,11.5,2.1,15.7,6.7c2.4,2.6,4,5.5,4.5,9.1c-0.2-0.4-0.5-0.8-0.7-1.3 c-2-4.5-5.3-7.6-9.7-9.6c-2.4-1.1-4.8-2.2-7.2-3.4C-535.1,53.9-535.9,53.3-536.7,52.8z"></path> <path class="st2" d="M-713.9,129.4c4.1-5.7,8.2-11.2,12.1-16.9c3.8-5.7,6.8-11.8,8.6-18.4c-0.2,9.5-1.1,18.8-6.1,27.1 c-3.1,5.1-7.5,8-13.6,8.2C-713.3,129.5-713.6,129.5-713.9,129.4z"></path> <path class="st2" d="M-758.4,73.5c8.1,11.5,19.5,18.9,31.4,26.3c-4,1.7-7.7,1.7-11.4,0.3c-3.8-1.4-6.8-4-9.4-7 C-752.7,87.3-755.9,80.5-758.4,73.5z"></path> <path class="st2" d="M-758,70.1c12.8,5.4,21.5,15.2,29.1,26.3C-740.2,89.4-751.2,82.1-758,70.1z"></path> <path class="st2" d="M-694.7,91.2c-2.4,13.6-10.4,24.1-18.8,34.4C-710,112.7-705,100.5-694.7,91.2z"></path> <path class="st2" d="M-714.9,122.3c-0.7-12.2,8.5-29,17.6-31.3c-4.5,4.5-8,9.4-10.6,14.9C-710.5,111.3-712.7,116.9-714.9,122.3z"></path> <path class="st2" d="M-728.8,93.3c-7.3-9.8-15.4-18.6-26.5-24.5c0.8,0.1,1.6,0.1,2.4,0.3c7.5,1.6,13.1,6.1,17.5,12.1 c2.7,3.7,4.8,7.8,7.2,11.7C-728.3,93-728.6,93.2-728.8,93.3z"></path> <path class="st2" d="M-419.4-184.9c-2,0.2-3.5-0.9-3.7-2.8C-421.4-187.8-420-186.8-419.4-184.9z"></path> <path class="st2" d="M-407.4-179.5c-1.8,0.8-3.1,0.1-3.7-2C-409.4-181.4-408.2-180.9-407.4-179.5z"></path> <path class="st2" d="M-416.4-186.9c0.2-1.5,0.4-3,0.7-4.8c1.3,1.7,1.1,3.6-0.1,4.9C-416.1-186.9-416.2-186.9-416.4-186.9z"></path> <path class="st2" d="M-412.4-174.6c-0.8-1.4-1.3-2.4-1.9-3.6C-412-178.3-411.2-176.9-412.4-174.6z"></path> <path class="st2" d="M-417.7-179c0.6,1.7,0.1,3.2-2,4c0.6-1.7,1-2.9,1.4-4.2C-418.1-179.1-417.9-179-417.7-179z"></path> <path class="st2" d="M-420.8-181.4c-0.3,2-1.3,2.8-3.2,2.5C-423.4-180.4-422.4-181.1-420.8-181.4z"></path> <path class="st2" d="M-406.6-185c-0.3,1.8-0.8,2-3.4,1.2C-408.6-184.3-407.7-184.6-406.6-185z"></path> <path class="st2" d="M-622.1-81.1c8.8-11,17.7-22,26.3-32.8C-595.5-104.5-612.7-82.7-622.1-81.1z"></path> <path class="st2" d="M-624-82.2c2.2-8.2,18.4-28.3,25.6-32.2C-599.2-111.6-619.2-86.5-624-82.2z"></path> <path class="st2" d="M-601.3-114.5c-7.7,7.1-14.9,14.7-20.5,23.9C-622.1-97.3-609.5-111.9-601.3-114.5z"></path> <path class="st2" d="M-639.3-107.4c-5.2-8.3-10.4-16.6-15.7-24.9C-649.7-130.6-640.6-116.2-639.3-107.4z"></path> <path class="st2" d="M-640.9-105.9c-7.7-7.1-12.5-15.9-16-25.6c0.1-0.1,0.3-0.2,0.4-0.3c5.4,8.5,10.7,17.1,16.1,25.6 C-640.6-106.1-640.7-106-640.9-105.9z"></path> <path class="st2" d="M-656.8-126.1c3.3,7.2,7.3,14,12.8,19.8C-651.3-111-655.2-117.8-656.8-126.1z"></path> </g> </g> <path d="M-871-167.2c2.1,3.6,1.6,7.7,3.4,11.4c0.7-0.9,1.3-1.5,1.6-2.1c1.1-1.8,2-3.7,3.1-5.5c0.5-0.8,1.3-1.4,2-2 c0.5,0.8,1.1,1.7,1.3,2.6c0.5,1.6,0.7,3.2,1.2,4.9c0.2,0.7,0.5,1.4,1,2.6c0.7-1,1.2-1.6,1.5-2.2c0.8-1.6,1.5-3.3,2.4-4.9 c0.9-1.6,1.8-1.6,2.6,0c1.1,2.3,1.9,4.6,2.8,6.9c0.2,0.5,0.4,1,0.8,1.9c0.5-0.9,0.9-1.5,1.2-2.1c0.6-1.7,1.1-3.5,1.8-5.2 c0.5-1,1.3-1.9,2-2.9c0.8,0.9,1.8,1.7,2.4,2.7c2.1,3.7,3.2,7.7,3.8,11.8c0.9,6.1,0.5,12.1-2.3,17.7c-3.3,6.6-9.1,9.8-15.7,12 c-5.1,1.7-10.3,2.5-15.7,2.5c-1.3,0-1.8,0.4-2,1.8c-0.6,7.6-0.7,15.2-0.1,22.8c0,0.3,0.1,0.6,0.2,1.3c1.6-3.3,2.8-6.3,4.4-9.2 c2-3.6,4.2-7,6.4-10.5c0.4-0.6,0.9-1.1,1.5-1.6c2.8-2.7,5.3-2,6.5,1.7c0.6,2.1,0.4,4.2-0.7,6c-1.6,2.6-3.2,5.3-5.4,7.3 c-3.5,3.3-7.5,6.1-11.3,9c-0.7,0.5-1.1,0.9-1,1.9c0.6,7.6,1.1,15.3,1.6,22.9c0,0.1,0.1,0.3,0.2,0.7c0.3-0.5,0.4-0.8,0.5-1.2 c3-8.3,6.7-16.2,12.8-22.8c2.8-3.1,6.1-5.5,10.3-6.3c3.8-0.7,5.5,0.9,4.5,4.7c-0.7,2.5-1.8,4.9-3.1,7.1c-6.7,11.3-14.8,21.3-24.6,30 c-0.5,0.5-0.9,1.3-1,2c-0.6,4.6-1,9.1-1.5,13.9c-0.9-0.1-1.5-0.2-2.3-0.3c0.2-1.4,0.3-2.8,0.5-4.1c1.4-10,1.7-20.1,1.3-30.3 c0-1.2-0.4-2-1.6-2.5c-9-4.4-15.8-11.3-20.6-20c-2.7-4.9-5.1-10-7.4-15c-0.7-1.6-1-3.5-1.1-5.3c-0.3-4.5,3.3-6.9,7.3-4.6 c2.1,1.2,4,3.2,5.5,5.2c4.2,5.7,6.8,12.3,9.6,18.8c2.1,4.8,4.2,9.6,6.3,14.3c0.3,0.7,0.8,1.4,1.5,2c-1.5-13.2-2.8-26.3-1.1-39.5 c-3.1-0.5-6.1-0.9-9-1.6c-7.4-1.7-13.8-4.9-18.1-11.4c-2.8-4.3-4.2-9.2-4.7-14.3c-0.7-7.3,0.2-14.4,2.4-21.4 c0.1-0.4,0.2-0.9,0.5-1.2c0.7-0.7,1.4-1.8,2.2-2c0.7-0.1,1.7,0.9,2.2,1.6c0.9,1.6,1.6,3.4,2.3,5.1c0.4,0.8,0.7,1.6,1.3,2.8 c0.5-0.9,0.9-1.4,1.1-1.9c0.7-1.7,1.2-3.5,2-5.1c0.5-1.2,1.4-2.3,2.9-2c1.5,0.3,1.5,1.6,1.7,2.7c0.3,1.5,0.6,3.1,1,4.5 c0.1,0.5,0.8,0.8,1.2,1.2c0.3-0.5,0.9-0.9,1-1.4c0.4-1.4,0.6-3,1.1-4.4c0.2-0.6,0.9-1.4,1.5-1.5c0.6,0,1.5,0.6,1.7,1.2 c0.8,1.8,1.3,3.8,2,5.6c0.2,0.6,0.7,1.1,1,1.6c0.5-0.5,1.2-0.8,1.5-1.4c0.9-1.7,1.6-3.4,2.5-5.1C-872-165.7-871.6-166.3-871-167.2z"></path> <path class="st2" d="M45.1,53.9c0,0,0.1,0.1,0.2,0.1c-0.3-0.4-1.5-1.8-1.5-1.9c-0.9-0.7,0,0-0.9-0.7c-2.6-2.1-4.8-4.7-6.6-7.6 c-1-1.6-1.8-3.4-2.7-5c-0.1-0.3-0.1-0.4,0.1-0.7c1.3-1.6,2.4-3.3,3.2-5.1c0.5-1.1,0.8-2.3,0.8-3.4c-0.1-2.4-2.3-3.6-3.8-3.7 c-1.2-0.1-2,0.6-2.6,1.6c-1.1,1.8-1.3,3.8-1.1,5.8c0,0.1,0,0.2,0.1,0.4c0,0,0,0,0,0.1c-0.5-0.4-1.1-0.7-1.6-1.1 c-0.9-0.5-1.9-1-2.9-1.2c-1.5-0.2-2.6,0.3-3.4,1.4c-0.9,1.2-0.9,2.7-0.2,3.9c1.1,1.6,2.7,2.4,4.6,2.8c2,0.4,4,0.2,5.9-0.6 c0.1,0,0.1-0.1,0.3-0.1c1.5,3.4,3.4,6.5,5.7,9.4c-0.7,0.2-4.3-0.7-5.7-1.4c-0.2-0.8-0.4-1.6-0.6-2.3c-0.1-0.2,0-0.4,0.2-0.5 c0.5-0.5,0.6-1.2,0.4-1.6c-0.2-0.4-0.4-0.4-0.8-0.2c-0.2,0.1-0.5,0.2-0.6,0.1c-0.3-0.1-0.4,0-0.5,0.2c-0.5,0.6-0.1,1.7,0.6,1.9 c0.2,0.1,0.4,0.2,0.4,0.4c0.2,0.5,0.3,1.1,0.5,1.7c-0.1,0-0.1,0.1-0.2,0.1c-0.7-0.4-1.3-0.7-2-1.1c-0.1,0-0.1-0.2-0.1-0.3 c-0.1-0.5-0.2-0.9-0.4-1.4c-0.1-0.2-0.1-0.3,0.1-0.5c0.5-0.6,0.5-1.2,0-1.6c-0.8,0.5-0.8,0.5-1.1,0.1c-0.7,0.5-0.7,1.3,0.1,1.8 c0.6,0.3,0.7,0.9,0.8,1.4c0,0-0.1,0.1-0.1,0.1c-0.5-0.5-1.1-1-1.6-1.5c-0.1-0.1,0-0.3,0-0.4c0.2-1-0.4-1.7-1.3-1.5c0,0.5-0.3,1-1,1 c-0.1,0.8,0.4,1.3,1.4,1.3c0.3,0,0.6,0.1,0.8,0.3c0.4,0.4,0.9,0.8,1.4,1.2c-0.6,0.2-1.1,0.3-1.6,0.2c-0.1,0-0.2-0.2-0.2-0.3 c-0.2-0.7-1-1-1.7-0.6c0.1,0.7,0.1,0.8-0.3,1.1c0.1,0.5,0.5,0.7,1,0.5c0.7-0.3,1.4-0.3,2.1-0.3c0.1,0,0.2,0,0.3-0.1 c0.8-0.4,1.4-0.2,2,0.3c0.4,0.3,0.8,0.4,1.3,0.7c-0.9,0.3-1.8,0.6-2.7,0.6c-0.1,0-0.2-0.2-0.3-0.3c-0.3-0.7-1.2-0.8-1.8-0.3 c0.2,0.3,0.2,0.6-0.1,0.9c-0.2,0.3,0.1,0.5,0.3,0.5c0.4,0,0.9-0.1,1.3-0.2c0.1,0,0.3-0.1,0.4-0.1c1.1,0,2.1-0.4,3.1-0.7 c0.2-0.1,0.4-0.1,0.6,0c2,0.8,4.1,1.3,6.2,1.5c0.2,0,0.4,0.2,0.6,0.3c1.6,1.7,2.4,2.5,4.3,3.8"></path> <path class="st2" d="M28.3,28.2c-0.3-0.2-0.5-0.6-1-0.4c-0.4,0.2-0.5,0.6-0.4,1c0.1,0.5,0.3,1,0.8,1.3c0.2,0.1,0.5,0.1,0.7,0 c0.2-0.1,0.3-0.4,0.3-0.6C28.6,29.1,28.4,28.6,28.3,28.2z"></path> <path class="st2" d="M25.4,30.7c0.3,0.1,0.7,0.3,1,0.4c0.3,0.1,0.7,0,0.8-0.4c0.1-0.2,0-0.6-0.2-0.7c-0.2-0.2-0.5-0.4-0.8-0.5 c-0.3-0.1-0.7-0.2-0.9,0.2C25.1,30.1,25.2,30.4,25.4,30.7z"></path> <path class="st2" d="M29,29.3c0.2,0.3,0.6,0.3,0.9-0.1c0.3-0.4,0.3-1.4-0.1-1.7c-0.2-0.2-0.5-0.2-0.7,0.1C28.8,28,28.7,28.9,29,29.3 z"></path> </svg> 