<svg width="33" height="34" viewBox="0 0 33 34" fill="none" xmlns="http://www.w3.org/2000/svg">
<path d="M11.4295 32.1621L11.8308 30.6824C17.097 32.1831 21.9514 31.349 26.1776 27.7789C28.8687 25.5393 30.6474 22.3927 31.1786 18.9321C31.6064 16.3348 31.3375 13.6704 30.3992 11.2109C29.4609 8.75143 27.8868 6.58496 25.8377 4.93262C23.7885 3.28027 21.3376 2.20122 18.7351 1.8056C16.1326 1.40998 13.4718 1.71196 11.0241 2.68072C8.5765 3.64948 6.42973 5.25032 4.80295 7.31985C3.17616 9.38938 2.12762 11.8535 1.76433 14.4607C1.40104 17.0679 1.73603 19.7248 2.73509 22.1602C3.73415 24.5956 5.36152 26.7223 7.45108 28.3233L6.45298 29.4784C1.41015 25.9886 -2.04828 17.8014 1.37177 9.9353C2.26544 7.96235 3.53896 6.18473 5.11962 4.70396C6.70028 3.22318 8.55713 2.06824 10.5841 1.30507C12.6111 0.541902 14.7686 0.185457 16.9334 0.256086C19.0982 0.326715 21.2278 0.823035 23.2008 1.71671C25.1737 2.61038 26.9513 3.8839 28.4321 5.46456C29.9129 7.04523 31.0678 8.90207 31.831 10.9291C32.5942 12.9561 32.9506 15.1136 32.88 17.2783C32.8093 19.4431 32.313 21.5728 31.4193 23.5457C27.3572 32.0679 18.0463 34.5038 11.4295 32.1621Z" fill="white" fill-opacity="0.15"/>
<path d="M10.6618 10.9022L9.07741 10.3368C11.6424 6.93772 17.0377 5.5348 21.4489 8.15917C23.624 9.52808 25.1662 11.705 25.7362 14.211C26.3063 16.7169 25.8575 19.3467 24.4886 21.5218C23.8108 22.5988 22.9274 23.5317 21.8891 24.2673C20.8507 25.003 19.6776 25.5269 18.4368 25.8091C15.9308 26.3792 13.301 25.9304 11.1259 24.5615C6.58915 21.4939 5.84581 15.8368 7.84549 12.2458C8.19448 12.5948 8.58883 12.9438 8.92734 13.2927C9.00063 13.3765 8.95526 13.6103 8.92734 13.7569C7.9467 16.7582 8.42132 19.5082 10.5327 21.8568C12.644 24.2055 15.3801 25.0884 18.4825 24.2997C21.585 23.511 23.5463 21.5078 24.335 18.4263C24.6164 17.3038 24.6527 16.1338 24.4415 14.996C24.2302 13.8582 23.7764 12.7792 23.1108 11.8325C22.4452 10.8858 21.5835 10.0935 20.5843 9.50964C19.5852 8.92576 18.4719 8.56395 17.3204 8.44883C16.172 8.32497 15.0104 8.45487 13.9177 8.82936C12.825 9.20384 11.8279 9.81377 10.9968 10.616L10.6618 10.9022Z" fill="white" fill-opacity="0.15"/>
</svg>
