<svg width="660" height="627" viewBox="0 0 660 627" fill="none" xmlns="http://www.w3.org/2000/svg">
<g style="mix-blend-mode:overlay" opacity="0.3">
<path d="M227.798 610.766C230.495 601.787 233.191 592.807 235.888 582.545C341.051 610.766 438.125 595.373 523.065 527.385C578.343 483.771 610.701 426.046 622.835 359.342C645.755 225.933 567.557 96.3719 434.08 48.9091C300.604 0.163555 153.645 48.9091 76.7947 164.359C-0.0553741 281.092 21.5166 444.005 148.252 538.931C141.511 546.627 134.769 553.041 128.028 560.738C28.2578 494.033 -40.5028 338.817 26.9096 188.732C101.063 28.3847 296.559 -43.4509 465.09 27.1019C632.273 97.6547 707.775 288.789 628.228 446.57C545.985 609.483 359.927 655.663 227.798 610.766Z" fill="white"/>
</g>
</svg>
