<svg width="306" height="306" viewBox="0 0 306 306" fill="none" xmlns="http://www.w3.org/2000/svg">
<path d="M63.6657 182.636C64.2011 183.448 64.7509 184.246 65.3114 185.043L67.6614 183.387C67.1188 182.614 66.5834 181.835 66.0624 181.048L63.6657 182.636ZM150.252 37.4901V71.1302C164.931 71.5039 178.186 77.6088 187.863 87.2854C197.856 97.2783 204.04 111.087 204.04 126.333C204.04 128.982 203.849 131.597 203.486 134.167C203.116 136.765 202.563 139.316 201.837 141.806C201.388 143.344 200.77 144.562 200.188 145.708C199.523 147.02 198.908 148.227 198.801 149.56C198.474 153.714 199.616 160.063 201.56 166.344C203.49 172.582 206.188 178.698 208.998 182.485C210.655 184.716 211.912 185.992 213.005 186.2C213.943 186.38 215.028 185.647 216.512 183.904C223.231 176.014 228.592 166.926 232.243 156.998C235.757 147.444 237.676 137.113 237.676 126.33C237.676 101.791 227.73 79.5779 211.65 63.4981C195.887 47.7345 174.223 37.8638 150.256 37.4865L150.252 37.4901ZM147.378 71.1302V37.4901C123.411 37.871 101.747 47.7381 85.9834 63.5017C69.9036 79.5815 59.9575 101.795 59.9575 126.333C59.9575 137.117 61.8763 147.447 65.3905 157.002C69.0412 166.93 74.4059 176.017 81.1217 183.908C82.6021 185.647 83.6909 186.38 84.6287 186.204C85.7211 185.996 86.9787 184.72 88.6352 182.489C89.3646 181.504 90.0869 180.365 90.7912 179.104C90.8091 179.071 90.8271 179.039 90.8451 179.01C92.8285 175.439 94.6575 170.929 96.0732 166.351C98.0136 160.07 99.1598 153.721 98.8329 149.567C98.7286 148.234 98.1142 147.023 97.4459 145.715C96.8638 144.565 96.2421 143.347 95.7966 141.813C95.0707 139.323 94.5174 136.772 94.1473 134.174C93.7807 131.601 93.5939 128.985 93.5939 126.34C93.5939 111.091 99.7743 97.2854 109.771 87.2926C119.451 77.6124 132.703 71.511 147.381 71.1373L147.378 71.1302ZM132.936 213.326L131.981 214.31C130.619 216.021 128.962 216.955 127.324 217.257C126.095 217.483 124.88 217.358 123.802 216.937C122.706 216.513 121.751 215.787 121.061 214.824C120.202 213.631 119.756 212.097 119.961 210.351C119.972 210.272 119.983 210.193 119.994 210.117C119.433 210.193 118.887 210.193 118.362 210.132C116.95 209.966 115.682 209.348 114.715 208.436C113.741 207.519 113.062 206.301 112.832 204.95C112.735 204.386 112.717 203.8 112.785 203.207C112.861 202.561 113.023 201.993 113.238 201.479C112.872 201.497 112.512 201.483 112.16 201.443C110.748 201.278 109.48 200.66 108.513 199.747C107.539 198.831 106.86 197.613 106.63 196.262C106.533 195.697 106.515 195.112 106.583 194.519C106.627 194.142 106.698 193.797 106.795 193.47C106.26 193.437 105.743 193.319 105.247 193.135C104.521 192.862 103.86 192.438 103.306 191.91C102.757 191.393 102.3 190.771 101.977 190.103C101.258 188.622 101.161 186.905 102.024 185.449C98.6747 183.132 95.5774 181.587 92.8645 181.253C92.2356 182.331 91.5889 183.319 90.9385 184.195C88.8472 187.013 87.0793 188.658 85.1569 189.021C83.08 189.416 81.1684 188.371 78.9442 185.758C71.9984 177.598 66.4577 168.22 62.6955 157.986C59.0663 148.116 57.0829 137.451 57.0829 126.33C57.0829 100.997 67.3488 78.0651 83.9496 61.4643C100.55 44.8635 123.483 34.5976 148.815 34.5976C174.147 34.5976 197.08 44.8635 213.68 61.4643C230.281 78.0651 240.547 100.997 240.547 126.33C240.547 137.451 238.564 148.116 234.934 157.986C231.172 168.216 225.632 177.598 218.686 185.758C216.465 188.367 214.55 189.413 212.473 189.021C210.975 188.737 209.566 187.67 208.028 185.877C206.551 186.103 204.859 186.326 203.016 186.571C193.788 187.785 180.705 189.51 172.958 194.616C173.77 195.902 174.137 197.239 174.151 198.504C174.165 199.758 173.831 200.933 173.235 201.921C172.627 202.927 171.747 203.743 170.68 204.257C169.361 204.896 167.769 205.069 166.081 204.566C166.005 204.544 165.93 204.519 165.858 204.494C165.836 205.065 165.743 205.604 165.592 206.107C165.186 207.465 164.359 208.604 163.292 209.402C162.221 210.203 160.91 210.66 159.541 210.656C158.959 210.653 158.373 210.573 157.805 210.405C157.18 210.218 156.652 209.963 156.185 209.661C156.138 210.031 156.066 210.383 155.966 210.721C155.56 212.079 154.733 213.218 153.666 214.016C152.595 214.817 151.284 215.273 149.915 215.27C149.332 215.266 148.747 215.187 148.179 215.018C147.816 214.911 147.489 214.781 147.184 214.63C147.058 215.151 146.857 215.64 146.587 216.093C146.188 216.768 145.657 217.347 145.046 217.803C144.442 218.256 143.752 218.597 143.037 218.802C141.222 219.323 139.243 218.982 137.927 217.408C136.289 216.157 134.622 214.781 132.933 213.315L132.936 213.326ZM104.377 187.171C104.198 187.695 104.284 188.303 104.553 188.856C104.726 189.212 104.97 189.542 105.265 189.822C105.556 190.096 105.89 190.315 106.253 190.451C106.831 190.67 107.511 190.66 108.215 190.297C106.91 189.183 105.628 188.134 104.377 187.171ZM110.612 192.395C110.029 193.175 109.537 193.94 109.433 194.846C109.397 195.169 109.404 195.482 109.455 195.78C109.577 196.506 109.943 197.16 110.471 197.659C111.003 198.162 111.7 198.5 112.48 198.594C112.825 198.633 113.188 198.626 113.558 198.561C114.665 198.371 115.168 197.922 115.829 197.228C114.068 195.557 112.322 193.933 110.608 192.395H110.612ZM118.096 199.391L117.593 200.074C117.396 200.34 117.259 200.516 117.126 200.692C116.418 201.612 115.757 202.478 115.635 203.534C115.599 203.858 115.606 204.17 115.656 204.469C115.779 205.194 116.145 205.848 116.673 206.348C117.205 206.851 117.902 207.189 118.682 207.282C119.027 207.322 119.39 207.314 119.76 207.25C120.967 207.045 121.456 206.524 122.221 205.715C122.343 205.586 122.473 205.45 122.638 205.277L123.292 204.393C122.48 203.613 121.668 202.83 120.856 202.047C119.936 201.159 119.016 200.272 118.096 199.388V199.391ZM125.376 206.395L124.909 207.027C124.891 207.052 124.877 207.074 124.859 207.099L124.769 207.221C124.571 207.487 124.435 207.663 124.302 207.839C123.594 208.759 122.933 209.625 122.811 210.681C122.696 211.677 122.929 212.521 123.382 213.157C123.745 213.66 124.248 214.041 124.834 214.267C125.434 214.501 126.113 214.569 126.806 214.44C127.809 214.253 128.851 213.649 129.746 212.521C129.789 212.464 129.832 212.41 129.886 212.356L130.791 211.425C129.002 209.815 127.198 208.123 125.383 206.398L125.376 206.395ZM171.248 192.309C179.552 186.775 193.095 184.99 202.642 183.732C203.846 183.574 204.985 183.423 206.038 183.276C203.274 179.212 200.684 173.236 198.815 167.192C197.137 161.759 196.027 156.229 195.887 151.928C193.526 152.751 188.984 154.188 184.55 155.518C179.57 157.009 174.658 158.403 173.109 158.673C167.008 159.729 162.121 158.231 157.234 156.732C153.4 155.557 149.566 154.382 145.236 154.594C137.299 155.101 132.484 158.094 129.559 161.953C126.645 165.798 125.541 170.552 125.107 174.601C125.193 175.022 125.401 175.396 125.692 175.69C125.948 175.945 126.271 176.147 126.641 176.265C127.036 176.394 127.489 176.434 127.981 176.366C128.934 176.233 130.019 175.694 131.122 174.594C131.69 174.03 132.361 173.189 133.03 172.284C133.928 171.062 134.798 169.736 135.394 168.759C136.095 167.616 136.81 166.488 137.751 165.611C138.829 164.605 140.116 163.98 141.812 164.091C141.83 164.091 141.848 164.095 141.869 164.095C146.67 164.336 149.936 167.735 153.465 171.411C158.714 176.88 164.629 183.038 177.309 177.882C178.046 177.584 178.88 177.94 179.178 178.673C179.476 179.409 179.12 180.243 178.387 180.541C172.397 182.977 167.751 183.222 163.943 182.237L171.24 192.302L171.248 192.309ZM139.774 215.223C139.792 215.234 139.81 215.248 139.825 215.263C139.983 215.385 140.141 215.503 140.299 215.618C140.436 215.719 140.547 215.841 140.637 215.974C141.107 216.204 141.69 216.211 142.25 216.05C142.631 215.942 143.001 215.759 143.328 215.511C143.651 215.27 143.925 214.979 144.115 214.655C144.568 213.886 144.593 212.837 143.781 211.659L129.613 196.797C129.066 196.222 129.088 195.317 129.663 194.77C130.238 194.224 131.143 194.246 131.69 194.821L145.922 209.751C146.138 209.977 146.296 210.149 146.454 210.322C147.241 211.177 147.978 211.975 148.998 212.28C149.314 212.374 149.623 212.42 149.915 212.42C150.655 212.424 151.366 212.176 151.945 211.738C152.53 211.299 152.987 210.671 153.21 209.912C153.31 209.575 153.368 209.219 153.368 208.852C153.371 207.631 152.944 207.056 152.272 206.157C152.16 206.006 152.042 205.848 151.858 205.597C151.772 205.475 151.704 205.345 151.661 205.212L137.669 190.538C137.123 189.963 137.144 189.057 137.719 188.511C138.294 187.965 139.199 187.986 139.746 188.561L155.545 205.133C155.761 205.36 155.919 205.532 156.077 205.705C156.864 206.56 157.6 207.358 158.621 207.663C158.937 207.756 159.246 207.803 159.537 207.803C160.277 207.807 160.989 207.559 161.567 207.12C162.153 206.682 162.609 206.053 162.832 205.295C162.933 204.957 162.99 204.602 162.99 204.235C162.994 203.013 162.566 202.438 161.894 201.54C161.794 201.404 161.686 201.263 161.531 201.048L145.937 184.691C145.391 184.116 145.412 183.211 145.987 182.665C146.562 182.119 147.468 182.14 148.014 182.715L163.63 199.093C163.666 199.125 163.698 199.161 163.727 199.197L163.813 199.287C164.029 199.513 164.187 199.686 164.345 199.858C165.132 200.714 165.869 201.511 166.889 201.817C167.845 202.101 168.718 202.014 169.422 201.673C169.979 201.404 170.439 200.972 170.763 200.437C171.097 199.884 171.284 199.226 171.276 198.525C171.266 197.516 170.856 196.398 169.922 195.335C169.861 195.277 169.803 195.212 169.753 195.14L158.704 179.901C155.915 178.101 153.605 175.694 151.399 173.398C148.272 170.142 145.383 167.135 141.718 166.955C141.69 166.955 141.661 166.955 141.632 166.951C140.856 166.901 140.238 167.21 139.706 167.706C139.038 168.331 138.438 169.28 137.845 170.246C137.209 171.285 136.289 172.686 135.344 173.976C134.604 174.986 133.831 175.938 133.145 176.624C131.564 178.202 129.904 178.992 128.377 179.204C127.442 179.334 126.558 179.248 125.768 178.992C124.952 178.727 124.234 178.285 123.662 177.71C122.9 176.944 122.394 175.956 122.239 174.842C122.225 174.731 122.221 174.616 122.232 174.501C122.696 170.002 123.917 164.641 127.266 160.221C128.107 159.111 129.077 158.065 130.195 157.109C127.284 156.743 124.144 156.811 120.956 156.883C114.323 157.034 107.511 157.189 101.628 153.642C101.294 157.645 100.267 162.453 98.8005 167.185C97.5608 171.199 96.0014 175.18 94.2874 178.59C102.491 180.343 112.624 190.121 122.836 199.973C128.607 205.543 134.406 211.138 139.767 215.212L139.774 215.223ZM195.851 148.956C195.894 148.924 195.94 148.895 195.987 148.87C196.21 147.203 196.893 145.863 197.626 144.422C198.158 143.376 198.718 142.273 199.085 141.012C199.767 138.673 200.292 136.251 200.644 133.764C200.985 131.349 201.165 128.87 201.165 126.333C201.165 111.878 195.304 98.791 185.833 89.3156C176.361 79.8438 163.271 73.9832 148.815 73.9832C134.359 73.9832 121.273 79.8438 111.797 89.3156C102.325 98.7874 96.4649 111.878 96.4649 126.333C96.4649 128.867 96.641 131.349 96.9859 133.764C97.3381 136.251 97.8627 138.673 98.5454 141.012C98.9119 142.273 99.476 143.376 100.004 144.422C100.806 145.999 101.542 147.451 101.693 149.341C101.718 149.643 101.733 149.952 101.743 150.272C107.202 154.339 114.154 154.181 120.913 154.026C125.197 153.929 129.408 153.832 133.274 154.749C133.357 154.767 133.439 154.795 133.515 154.828C136.522 153.164 140.303 152.036 145.064 151.734H145.085C149.915 151.49 154 152.74 158.082 153.994C162.635 155.392 167.187 156.786 172.631 155.845C174.054 155.597 178.84 154.235 183.734 152.769C189.638 151.001 195.596 149.14 195.851 148.956ZM230.978 181.924C230.454 182.708 229.904 183.48 229.354 184.246L231.686 185.927C232.254 185.14 232.814 184.343 233.357 183.538L230.978 181.924ZM148.811 27.1416L149.455 27.1452L150.094 27.1523L150.734 27.1631L151.143 27.1739L151.215 24.2993L150.788 24.2885L150.13 24.2777L149.473 24.2706L148.811 24.267L148.15 24.2706L147.496 24.2777L147.532 27.1523L148.168 27.1452L148.811 27.1416ZM153.968 27.2745L154.55 27.3069L155.182 27.3464L155.815 27.3895L156.443 27.4362L156.799 27.465L157.036 24.6011L156.663 24.5724L156.016 24.5257L155.365 24.4826L154.715 24.443L154.133 24.4107L153.968 27.2817V27.2745ZM159.616 27.7237L160.202 27.7884L160.824 27.8602L161.445 27.9357L162.067 28.0147L162.433 28.065L162.832 25.2192L162.448 25.1653L161.808 25.0826L161.169 25.0036L160.529 24.9281L159.943 24.8634L159.616 27.7201V27.7237ZM165.229 28.4962L165.757 28.5861L166.368 28.6939L166.979 28.8052L167.586 28.9202L168.021 29.0065L168.578 26.1858L168.125 26.0959L167.5 25.9774L166.871 25.8624L166.242 25.751L165.714 25.6611L165.225 28.4926L165.229 28.4962ZM170.791 29.5886L171.212 29.6856L171.812 29.8257L172.408 29.9695L173.005 30.1168L173.551 30.2569L174.266 27.4721L173.705 27.3284L173.091 27.1775L172.477 27.0302L171.858 26.8864L171.438 26.7894L170.791 29.5922V29.5886ZM176.282 30.9971L176.555 31.0762L177.141 31.2487L177.726 31.4247L178.308 31.6044L178.89 31.7876L178.991 31.82L179.879 29.0855L179.76 29.046L179.16 28.8591L178.56 28.6759L177.96 28.4962L177.356 28.3202L177.083 28.2411L176.282 31.0007V30.9971ZM181.682 32.7183L181.776 32.7506L182.347 32.9555L182.919 33.1639L183.486 33.3759L184.054 33.5879L184.341 33.6993L185.38 31.0187L185.078 30.9037L184.496 30.6845L183.91 30.4689L183.325 30.2569L182.735 30.0485L182.642 30.0162L181.686 32.7291L181.682 32.7183ZM186.968 34.7449L187.421 34.9353L187.978 35.1725L188.531 35.4132L189.085 35.6576L189.573 35.8768L190.759 33.2573L190.252 33.0309L189.685 32.7794L189.113 32.5314L188.542 32.2871L188.089 32.0967L186.968 34.7449ZM192.135 37.0769L192.358 37.1847L192.897 37.4506L193.436 37.7201L193.971 37.9932L194.507 38.2699L194.668 38.3525L196.009 35.8085L195.833 35.7151L195.283 35.4312L194.733 35.1509L194.18 34.8742L193.626 34.6012L193.404 34.4934L192.139 37.0769H192.135ZM197.155 39.6964L197.665 39.9839L198.186 40.2821L198.704 40.5839L199.221 40.8858L199.613 41.1193L201.09 38.6543L200.684 38.4136L200.152 38.101L199.62 37.792L199.085 37.4865L198.574 37.1991L197.155 39.7V39.6964ZM202.024 42.6033L202.279 42.765L202.782 43.0884L203.281 43.4154L203.781 43.746L204.277 44.0802L204.392 44.1592L206.016 41.7877L205.887 41.6978L205.376 41.3565L204.863 41.0187L204.349 40.6809L203.831 40.3468L203.576 40.1851L202.024 42.6033ZM206.717 45.7834L207.202 46.1355L207.683 46.4876L208.161 46.8434L208.639 47.2027L208.991 47.4722L210.741 45.1905L210.375 44.9102L209.886 44.5401L209.394 44.1736L208.898 43.8107L208.398 43.4477L206.717 45.7798V45.7834ZM211.215 49.2221L211.449 49.409L211.909 49.7862L212.369 50.1671L212.825 50.5516L213.278 50.9361L213.393 51.0331L215.276 48.8592L215.15 48.7514L214.683 48.3561L214.212 47.9609L213.741 47.5692L213.267 47.1811L213.034 46.9943L211.215 49.2221ZM215.513 52.9088L215.948 53.3076L216.386 53.7101L216.821 54.1161L217.252 54.5257L217.59 54.8491L219.584 52.7794L219.236 52.4452L218.79 52.0248L218.344 51.608L217.895 51.1912L217.46 50.7924L215.513 52.9088ZM219.598 56.8398L219.789 57.0338L220.202 57.4614L220.615 57.8926L221.025 58.3238L221.431 58.7586L221.553 58.8915L223.67 56.944L223.537 56.8003L223.12 56.3547L222.699 55.9091L222.275 55.4672L221.848 55.0288L221.657 54.8348L219.602 56.8434L219.598 56.8398ZM223.45 60.99L223.817 61.414L224.205 61.8668L224.589 62.3195L224.974 62.7758L225.29 63.1567L227.507 61.3278L227.18 60.9361L226.785 60.4654L226.39 59.9983L225.991 59.5347L225.624 59.1107L223.45 60.9936V60.99ZM227.065 65.3594L227.22 65.557L227.583 66.0277L227.946 66.5021L228.305 66.98L228.661 67.4579L228.779 67.6196L231.1 65.9271L230.971 65.7547L230.605 65.2624L230.234 64.7737L229.864 64.285L229.491 63.7999L229.336 63.6023L227.065 65.3666V65.3594ZM230.421 69.9192L230.734 70.372L231.068 70.8643L231.402 71.3601L231.733 71.8596L232.006 72.2764L234.417 70.7098L234.133 70.2786L233.795 69.7647L233.454 69.2545L233.109 68.7478L232.796 68.2951L230.425 69.9192H230.421ZM233.515 74.6731L233.648 74.8923L233.957 75.4061L234.262 75.92L234.564 76.4374L234.866 76.9548L234.956 77.1129L237.457 75.6936L237.36 75.5211L237.051 74.9893L236.738 74.4575L236.422 73.9293L236.102 73.4011L235.969 73.1819L233.512 74.6731H233.515ZM236.329 79.5851L236.605 80.1025L236.886 80.6343L237.162 81.1697L237.435 81.7051L237.637 82.1075L240.209 80.8283L240.001 80.4079L239.721 79.8582L239.437 79.3084L239.149 78.7622L238.873 78.2448L236.329 79.5851ZM238.858 84.6588L238.995 84.957L239.246 85.5068L239.494 86.0565L239.739 86.6099L239.979 87.1632L240.015 87.2459L242.664 86.1248L242.62 86.0242L242.372 85.4529L242.121 84.8851L241.866 84.3174L241.607 83.7533L241.471 83.455L238.858 84.6552V84.6588ZM241.093 89.869L241.126 89.9552L241.345 90.5193L241.56 91.0835L241.772 91.6512L241.984 92.219L242.092 92.5136L244.798 91.5434L244.683 91.2308L244.467 90.6451L244.248 90.063L244.025 89.4809L243.799 88.8988L243.767 88.8126L241.093 89.8654V89.869ZM243.023 95.1906L243.181 95.6685L243.368 96.247L243.551 96.8291L243.731 97.4112L243.878 97.8999L246.634 97.0806L246.483 96.5776L246.3 95.9775L246.113 95.3774L245.923 94.7809L245.764 94.303L243.03 95.1906H243.023ZM244.643 100.62L244.73 100.94L244.884 101.533L245.035 102.129L245.182 102.726L245.337 103.365L248.14 102.718L247.978 102.043L247.827 101.428L247.673 100.818L247.514 100.207L247.428 99.887L244.647 100.62H244.643ZM245.951 106.136L245.991 106.333L246.113 106.941L246.232 107.548L246.347 108.155L246.458 108.766L246.483 108.917L249.315 108.428L249.286 108.259L249.171 107.63L249.052 107.005L248.93 106.38L248.804 105.755L248.765 105.557L245.948 106.132L245.951 106.136ZM246.939 111.716L246.957 111.835L247.047 112.453L247.134 113.071L247.213 113.692L247.288 114.314L247.313 114.522L250.17 114.195L250.145 113.969L250.066 113.329L249.983 112.69L249.897 112.054L249.807 111.418L249.789 111.299L246.943 111.716H246.939ZM247.608 117.343L247.615 117.433L247.669 118.062L247.719 118.69L247.766 119.319L247.809 119.952L247.823 120.164L250.694 119.998L250.68 119.768L250.637 119.118L250.59 118.471L250.54 117.824L250.486 117.178L250.479 117.088L247.615 117.343H247.608ZM247.953 122.999L247.956 123.125L247.974 123.761L247.989 124.4L247.999 125.04L248.007 125.679V125.823H250.881V125.661L250.874 125.004L250.863 124.346L250.849 123.689L250.831 123.031L250.827 122.905L247.953 122.995V122.999ZM247.982 128.665C247.96 129.61 247.924 130.555 247.877 131.497L250.748 131.648C250.799 130.678 250.835 129.707 250.856 128.737L247.982 128.665ZM247.69 134.328C247.619 135.27 247.529 136.211 247.425 137.149L250.281 137.465C250.385 136.499 250.479 135.528 250.554 134.562L247.69 134.332V134.328ZM247.08 139.962C246.954 140.897 246.81 141.831 246.656 142.762L249.491 143.24C249.652 142.28 249.8 141.317 249.929 140.354L247.083 139.962H247.08ZM246.149 145.554C245.969 146.481 245.772 147.404 245.563 148.324L248.366 148.964C248.582 148.015 248.783 147.063 248.97 146.111L246.149 145.557V145.554ZM244.899 151.076C244.661 151.993 244.413 152.902 244.155 153.811L246.918 154.605C247.187 153.671 247.443 152.737 247.683 151.795L244.902 151.073L244.899 151.076ZM243.332 156.524C243.044 157.422 242.746 158.32 242.434 159.208L245.143 160.164C245.466 159.247 245.775 158.324 246.07 157.397L243.332 156.52V156.524ZM241.456 161.867C241.118 162.747 240.77 163.628 240.403 164.497L243.055 165.611C243.429 164.713 243.792 163.811 244.14 162.905L241.46 161.871L241.456 161.867ZM239.275 167.095C238.887 167.954 238.488 168.816 238.071 169.661L240.655 170.926C241.082 170.052 241.492 169.168 241.895 168.285L239.279 167.095H239.275ZM236.796 172.194C236.361 173.031 235.908 173.861 235.448 174.688L237.956 176.093C238.431 175.245 238.898 174.389 239.343 173.527L236.796 172.198V172.194ZM234.029 177.138C233.547 177.95 233.048 178.752 232.541 179.549L234.967 181.094C235.488 180.275 236.002 179.449 236.497 178.615L234.029 177.142V177.138ZM144.586 24.346L144.219 24.3604L143.565 24.3927L142.915 24.4287L142.264 24.4682L141.679 24.5077L141.88 27.3751L142.448 27.3356L143.08 27.2961L143.713 27.2637L144.349 27.235L144.715 27.2206L144.589 24.3496L144.586 24.346ZM138.768 24.7485L138.384 24.788L137.741 24.8563L137.097 24.9281L136.458 25.0036L135.876 25.0754L136.239 27.9285L136.803 27.8602L137.424 27.7884L138.05 27.7201L138.675 27.6554L139.059 27.6159L138.768 24.7557V24.7485ZM132.983 25.4815L132.642 25.5354L132.009 25.6396L131.381 25.7474L130.752 25.8588L130.109 25.9774L130.651 28.8017L131.262 28.6903L131.873 28.5825L132.484 28.4783L133.098 28.3776L133.439 28.3237L132.987 25.4851L132.983 25.4815ZM127.252 26.5451L127.004 26.599L126.386 26.7355L125.768 26.8757L125.15 27.0194L124.535 27.1667L124.406 27.1991L125.107 29.9874L125.218 29.9587L125.815 29.8149L126.415 29.6748L127.015 29.5383L127.618 29.4053L127.866 29.3514L127.255 26.5415L127.252 26.5451ZM121.589 27.9357L121.481 27.9644L120.874 28.1333L120.27 28.3058L119.667 28.4819L119.066 28.6615L118.79 28.7478L119.645 31.493L119.904 31.4139L120.489 31.2379L121.075 31.0654L121.664 30.8965L122.254 30.7312L122.361 30.7025L121.593 27.9321L121.589 27.9357ZM116.009 29.6497L115.488 29.8293L114.898 30.0341L114.309 30.2425L113.723 30.4545L113.271 30.6234L114.277 33.3184L114.715 33.1567L115.286 32.9483L115.858 32.7434L116.433 32.5422L116.954 32.3626L116.016 29.6461L116.009 29.6497ZM110.547 31.6798L110.234 31.8056L109.659 32.0428L109.084 32.2835L108.513 32.5279L107.942 32.7758L107.856 32.8153L109.023 35.442L109.095 35.4096L109.649 35.1689L110.205 34.9317L110.762 34.6982L111.323 34.4682L111.636 34.3424L110.547 31.6798ZM105.211 34.0191L105.125 34.0586L104.564 34.3245L104.007 34.594L103.454 34.8671L102.9 35.1437L102.591 35.3018L103.903 37.8602L104.198 37.7129L104.737 37.4434L105.276 37.1775L105.818 36.9152L106.361 36.6565L106.447 36.617L105.214 34.0191H105.211ZM100.011 36.6673L99.6234 36.8793L99.0844 37.1775L98.5454 37.4794L98.01 37.7848L97.4674 38.0974L98.9299 40.5731L98.9227 40.5767L99.4401 40.2749L99.9611 39.9767L100.482 39.682L101.007 39.391L101.395 39.179L100.008 36.6601L100.011 36.6673ZM94.9773 39.603L94.8407 39.6856L94.3197 40.0126L93.8023 40.3432L93.2849 40.6773L92.771 41.0151L92.5231 41.1804L94.1185 43.5735L94.3521 43.419L94.8515 43.092L95.3546 42.7686L95.8576 42.4488L96.3643 42.129L96.5008 42.0464L94.9773 39.6066V39.603ZM90.112 42.8261L89.7311 43.0956L89.2317 43.4513L88.7358 43.8107L88.2399 44.1736L87.7584 44.5329L89.4796 46.8362L89.9467 46.4876L90.4282 46.1355L90.9097 45.787L91.3948 45.4384L91.7757 45.1689L90.1084 42.8261H90.112ZM85.448 46.3152L85.3222 46.4158L84.8443 46.8003L84.37 47.1847L83.8957 47.5728L83.425 47.9645L83.1914 48.1621L85.0491 50.3576L85.2683 50.1743L85.7283 49.7934L86.1882 49.4161L86.6517 49.0424L87.1153 48.6687L87.241 48.5681L85.4516 46.3188L85.448 46.3152ZM80.9816 50.0701L80.6438 50.3719L80.1911 50.7816L79.7383 51.1948L79.2892 51.6116L78.8292 52.0392L80.8127 54.1197L81.2475 53.7137L81.6859 53.3112L82.1242 52.9088L82.5662 52.5099L82.904 52.2081L80.9816 50.0701ZM76.7415 54.0658L76.6445 54.1628L76.2133 54.5976L75.7857 55.036L75.3581 55.4744L74.9341 55.9163L74.7042 56.1571L76.7954 58.1298L77.011 57.8998L77.4243 57.4686L77.8375 57.041L78.2543 56.617L78.6747 56.1966L78.7717 56.0996L76.7379 54.0658H76.7415ZM72.7279 58.3022L72.444 58.6185L72.038 59.0784L71.6355 59.5383L71.2367 60.0019L70.8127 60.5013L73.0189 62.3447L73.4214 61.8703L73.8094 61.4176L74.2011 60.9684L74.5964 60.5229L74.8802 60.2067L72.7315 58.2987L72.7279 58.3022ZM68.9693 62.7507L68.9011 62.8369L68.5202 63.3184L68.1429 63.7999L67.7692 64.285L67.3991 64.7737L67.1871 65.0576L69.4904 66.7787L69.6916 66.5092L70.0545 66.0349L70.4174 65.5642L70.7839 65.0935L71.154 64.6264L71.2223 64.5401L68.9729 62.7507H68.9693ZM65.4623 67.4147L65.2252 67.7489L64.873 68.252L64.5245 68.7586L64.1795 69.2653L63.8094 69.8186L66.2097 71.3997L66.5619 70.875L66.896 70.3828L67.2338 69.8905L67.5752 69.4018L67.8123 69.0676L65.4587 67.4147H65.4623ZM62.232 72.262L62.1709 72.3591L61.8475 72.8837L61.5277 73.4083L61.2079 73.9365L60.8917 74.4647L60.7192 74.7593L63.2022 76.2074L63.3675 75.9272L63.6729 75.4133L63.9819 74.8995L64.2945 74.3892L64.6107 73.8826L64.6718 73.7856L62.232 72.262ZM59.2783 77.2962L59.0663 77.6807L58.7717 78.2232L58.4806 78.7694L58.1932 79.3156L57.9093 79.8654L60.4677 81.1769L60.7444 80.6451L61.0247 80.1133L61.3049 79.5851L61.5888 79.0569L61.8008 78.6724L59.2747 77.2998L59.2783 77.2962ZM56.6229 82.4812L56.5475 82.6393L56.2852 83.1999L56.0229 83.764L55.7641 84.3282L55.509 84.8959L55.4048 85.1367L58.0387 86.2901L58.1357 86.0673L58.3836 85.5175L58.6351 84.9678L58.8867 84.4216L59.1418 83.8754L59.2173 83.7173L56.6193 82.4848L56.6229 82.4812ZM54.2658 87.8208L54.0609 88.3311L53.831 88.9096L53.6046 89.4917L53.3818 90.0738L53.2093 90.5337L55.9043 91.5398L56.0732 91.0943L56.2888 90.5301L56.5079 89.966L56.7307 89.4054L56.9355 88.8952L54.2693 87.8244L54.2658 87.8208ZM52.2212 93.279L52.1134 93.5988L51.9158 94.1917L51.7217 94.7881L51.5313 95.3846L51.3444 95.9847L51.3229 96.0565L54.0717 96.8938L54.2729 96.2578L54.4598 95.6793L54.6502 95.1007L54.8443 94.5222L54.9521 94.2024L52.2284 93.2826L52.2212 93.279ZM50.4928 98.8449L50.4497 98.9994L50.2844 99.6067L50.1227 100.218L49.9646 100.828L49.8101 101.439L49.7526 101.669L52.5446 102.352L52.5985 102.14L52.7494 101.543L52.9039 100.951L53.062 100.358L53.2237 99.7684L53.2668 99.6139L50.4964 98.8449H50.4928ZM49.0879 104.501L48.9513 105.14L48.822 105.762L48.6962 106.387L48.574 107.012L48.5094 107.361L51.3373 107.886L51.3983 107.555L51.5169 106.948L51.6391 106.34L51.7649 105.737L51.8978 105.115L49.0879 104.504V104.501ZM48.0099 110.239L47.9237 110.789L47.8302 111.421L47.7404 112.057L47.6542 112.693L47.6003 113.117L50.4533 113.48L50.5072 113.074L50.5935 112.456L50.6833 111.838L50.7767 111.22L50.8629 110.67L48.0207 110.236L48.0099 110.239ZM47.2625 116.021L47.2122 116.542L47.1511 117.188L47.0972 117.835L47.0469 118.482L47.0146 118.924L49.882 119.125L49.9143 118.701L49.9646 118.072L50.0185 117.444L50.076 116.818L50.1263 116.297L47.2661 116.024L47.2625 116.021ZM46.8457 121.835L46.8241 122.388L46.8026 123.042L46.7846 123.699L46.7702 124.357L46.763 124.749L49.6376 124.785L49.6448 124.411L49.6592 123.771L49.6772 123.135L49.6987 122.499L49.7203 121.946L46.8493 121.838L46.8457 121.835ZM46.7559 127.659C46.7702 128.629 46.7954 129.6 46.8349 130.57L49.7059 130.451C49.6664 129.506 49.6412 128.561 49.6305 127.616L46.7559 127.659ZM46.993 133.484C47.0613 134.454 47.1403 135.421 47.2338 136.387L50.094 136.107C50.0006 135.166 49.9251 134.224 49.8568 133.283L46.9894 133.487L46.993 133.484ZM47.5607 139.287C47.6829 140.25 47.8195 141.217 47.9668 142.176L50.8055 141.727C50.6581 140.796 50.5288 139.858 50.4102 138.92L47.5572 139.287H47.5607ZM48.4591 145.047C48.6351 146.003 48.8292 146.955 49.0304 147.907L51.8403 147.3C51.6427 146.376 51.4558 145.449 51.2834 144.522L48.4555 145.047H48.4591ZM49.6844 150.749C49.9143 151.694 50.1623 152.636 50.421 153.57L53.1914 152.801C52.9398 151.892 52.7027 150.976 52.4763 150.06L49.6844 150.749ZM51.2366 156.369C51.5241 157.3 51.8223 158.223 52.135 159.143L54.855 158.216C54.5496 157.322 54.2622 156.423 53.9819 155.521L51.2366 156.369ZM53.1087 161.892C53.4465 162.805 53.7986 163.71 54.1651 164.609L56.8277 163.527C56.472 162.65 56.1307 161.77 55.8037 160.886L53.1087 161.892ZM55.297 167.296C55.6851 168.187 56.0911 169.071 56.5079 169.948L59.1059 168.716C58.7034 167.861 58.3082 167.002 57.9309 166.136L55.3006 167.293L55.297 167.296ZM57.7907 172.564C58.2327 173.43 58.6855 174.292 59.1526 175.144L61.675 173.761C61.2223 172.934 60.7839 172.097 60.3563 171.256L57.7943 172.56L57.7907 172.564ZM60.5827 177.684C61.0714 178.525 61.5744 179.355 62.0883 180.182L64.5281 178.662C64.0286 177.861 63.5399 177.052 63.0656 176.233L60.5863 177.684H60.5827Z" fill="#01D0D9"/>
<path opacity="0.5" d="M287.663 0.38208H17.9551C8.02247 0.38208 0 8.40455 0 18.3371V218.899C0 228.831 8.02247 236.854 17.9551 236.854H97.7978C96.2697 280.787 67.236 296.067 62.6517 298.36H38.9663C36.6742 298.36 35.1461 299.888 35.1461 302.18C35.1461 304.472 36.6742 306 38.9663 306H63.4157H242.584H267.034C269.326 306 270.854 304.472 270.854 302.18C270.854 299.888 269.326 298.36 267.034 298.36H243.348C238.764 296.067 209.348 280.405 208.202 236.854H288.045C297.978 236.854 306 228.831 306 218.899V18.3371C305.618 8.40455 297.596 0.38208 287.663 0.38208ZM228.831 298.36H76.7865C88.6292 289.191 104.674 270.472 105.438 236.854H200.18C201.326 270.472 217.371 289.191 228.831 298.36ZM297.978 218.899C297.978 224.629 293.393 229.214 287.663 229.214H17.9551C12.2247 229.214 7.64045 224.629 7.64045 218.899V18.3371C7.64045 12.6068 12.2247 8.02253 17.9551 8.02253H288.045C293.393 8.02253 297.978 12.6068 297.978 18.3371V218.899Z" fill="#D7E28A"/>
</svg>
