<svg width="707" height="370" viewBox="0 0 707 370" fill="none" xmlns="http://www.w3.org/2000/svg">
<g opacity="0.8">
<g style="mix-blend-mode:overlay" opacity="0.5">
<path d="M244.021 500.627C246.909 491.017 249.798 481.408 252.686 470.425C365.338 500.627 469.325 484.153 560.313 411.395C619.528 364.72 654.19 302.944 667.188 231.559C691.741 88.7875 607.974 -49.8651 464.992 -100.659C322.01 -152.825 164.586 -100.659 82.2635 22.8932C-0.0593157 147.818 23.0488 322.163 158.809 423.75C151.588 431.987 144.367 438.851 137.145 447.088C30.2701 375.702 -43.3871 209.594 28.8259 48.9763C108.26 -122.623 317.678 -199.5 498.21 -123.996C677.298 -48.4923 758.177 156.055 672.965 324.909C584.866 499.254 385.558 548.675 244.021 500.627Z" fill="white"/>
</g>
<g style="mix-blend-mode:overlay" opacity="0.2">
<path d="M287.601 406.779C289.537 400.02 291.474 393.26 293.41 385.535C368.937 406.779 438.653 395.191 499.656 344.011C539.355 311.178 562.594 267.724 571.309 217.509C587.77 117.08 531.609 19.5479 435.749 -16.1816C339.888 -52.8769 234.345 -16.1816 179.153 70.7281C123.96 158.604 139.453 281.243 230.472 352.702C225.63 358.496 220.789 363.324 215.947 369.118C144.294 318.904 94.9116 202.058 143.326 89.0758C196.582 -31.6323 336.983 -85.7095 458.019 -32.5979C578.087 20.5136 632.311 164.398 575.182 283.174C516.116 405.814 382.493 440.577 287.601 406.779Z" fill="white"/>
</g>
</g>
</svg>
