<svg width="1074" height="370" viewBox="0 0 1074 370" fill="none" xmlns="http://www.w3.org/2000/svg">
<g style="mix-blend-mode:overlay" opacity="0.3">
<path d="M370.69 437.374C375.078 422.093 379.466 406.812 383.854 389.349C554.983 437.374 712.949 411.178 851.169 295.481C941.121 221.259 993.777 123.026 1013.52 9.51105C1050.82 -217.518 923.57 -437.999 706.367 -518.769C489.164 -601.722 250.022 -518.769 124.966 -322.301C-0.0901099 -123.65 35.0134 153.587 241.246 315.127C230.276 328.225 219.307 339.14 208.337 352.238C45.9832 238.723 -65.9091 -25.4166 43.7892 -280.824C164.457 -553.696 482.582 -675.943 756.828 -555.879C1028.88 -435.816 1151.74 -110.553 1022.3 157.953C888.466 435.191 585.699 513.778 370.69 437.374Z" fill="white"/>
</g>
</svg>
