<svg width="484" height="480" viewBox="0 0 484 480" fill="none" xmlns="http://www.w3.org/2000/svg">
<g style="mix-blend-mode:overlay" opacity="0.15">
<path d="M167.052 467.572C169.03 460.698 171.007 453.824 172.985 445.967C250.104 467.572 321.292 455.788 383.581 403.74C424.118 370.351 447.847 326.16 456.746 275.094C473.554 172.963 416.208 73.7776 318.326 37.4424C220.443 0.125208 112.673 37.4424 56.3161 125.825C-0.0406065 215.19 15.7788 339.908 108.718 412.578C103.774 418.471 98.8309 423.381 93.8873 429.273C20.7224 378.207 -29.7021 259.382 19.7337 144.484C74.113 21.7299 217.477 -33.2639 341.066 20.7479C463.667 74.7596 519.035 221.082 460.701 341.872C400.389 466.59 263.946 501.943 167.052 467.572Z" fill="white"/>
</g>
</svg>
