<svg width="376" height="350" viewBox="0 0 376 350" fill="none" xmlns="http://www.w3.org/2000/svg">
<g style="mix-blend-mode:overlay" opacity="0.5">
<path d="M126.256 372.365C128.188 365.935 130.121 359.505 132.053 352.156C207.42 372.365 276.99 361.342 337.863 312.657C377.479 281.425 400.669 240.088 409.365 192.322C425.791 96.7886 369.749 4.0112 274.091 -29.9765C178.433 -64.8829 73.1121 -29.9765 18.0362 52.6964C-37.0397 136.288 -21.5798 252.948 69.2472 320.924C64.4159 326.436 59.5847 331.028 54.7535 336.54C-16.7486 288.773 -66.027 177.624 -17.7148 70.1495C35.4286 -44.674 175.534 -96.1149 296.315 -45.5925C416.129 4.92979 470.238 141.799 413.23 254.786C354.289 371.446 220.948 404.515 126.256 372.365Z" fill="white"/>
</g>
<g style="mix-blend-mode:overlay" opacity="0.2">
<path d="M141.219 309.397C142.513 304.881 143.808 300.366 145.103 295.204C195.603 309.397 242.218 301.656 283.006 267.463C309.551 245.529 325.09 216.497 330.916 182.95C341.923 115.855 304.372 50.6963 240.276 26.8261C176.18 2.31077 105.61 26.8261 68.7062 84.8887C31.8025 143.596 42.1614 225.529 103.02 273.27C99.7829 277.14 96.5458 280.366 93.3086 284.237C45.3986 250.69 12.3795 172.628 44.7512 97.1464C80.36 16.5038 174.238 -19.624 255.167 15.8587C335.448 51.3414 371.705 147.467 333.506 226.82C294.013 308.752 204.667 331.977 141.219 309.397Z" fill="white"/>
</g>
</svg>
