<svg fill="none" height="130" viewBox="0 0 145 130" width="145" xmlns="http://www.w3.org/2000/svg"><path clip-rule="evenodd" d="m138.714.313845c17.591 53.218755-11.291 110.621155-64.5096 128.213155l.3139.949c53.7427-17.764 82.9097-75.7329 65.1447-129.476zm-48.2042 99.744155c-22.5892 22.589-59.2135 22.589-81.80269 0l-.70711.707c22.9797 22.98 60.2372 22.98 83.2169 0z" fill="#01d0d9" fill-rule="evenodd"/><g fill="#007f87"><path d="m54.1147 22.7711c-.8875-1.7818 3.6133-6.1725 5.3248-4.3271 2.6624 2.7999-5.0079 5.3452-5.3248 4.3271z"/><path d="m72.3216 42c-.376 0-.7521-.2853-.7521-.7132 0-.0713 0-.2139.0752-.2852 1.8802-3.7798 1.1282-8.344-1.8802-11.4106-3.3844-3.4231-8.7994-4.1363-14.9665-1.8542-2.4066.8558-5.0389.8558-7.4456 0-6.0919-2.2108-11.5821-1.5689-14.9665 1.8542-3.0083 3.1379-3.6852 7.6308-1.8802 11.4106.1504.3566 0 .7845-.3761.9271-.376.1426-.752 0-.9777-.3566-2.1058-4.3503-1.2785-9.4137 2.1059-12.9795 3.8356-3.8511 9.8523-4.6355 16.5458-2.2108 2.0307.7845 4.3621.7845 6.3928 0 6.6935-2.4247 12.7854-1.6403 16.5458 2.2108 3.3844 3.4945 4.2117 8.6292 2.1059 12.9795 0 .214-.2257.4279-.5265.4279z"/><path d="m50.2293 28c-.3122 0-.6244-.2548-.6244-.637 0-.1274.0624-.2548.1249-.3822.1248-.1911 2.7473-4.013-.6244-9.0452-.1874-.3185-.1249-.7007.1873-.8281.2497-.1911.6244-.1274.8117.1911 3.8713 5.7966.6244 10.4466.562 10.5103-.0625.0637-.2498.1911-.4371.1911z"/><path d="m68.968 80.0754c-.1755-2.8185.6617-6.7108 2.355-8.948 6.7537-8.9251 9.7479-16.6572 8.3343-26.1744-.0205-.1335-.0402-.2656-.0613-.3962-.0689-.4345-.2874-.8298-.6164-1.115-.329-.2853-.7471-.4419-1.1792-.4418h-53.65c-.2404-.0017-.4787.0455-.701.1388-.2223.0934-.424.231-.5934.4048-.1693.1738-.3029.3804-.3928.6075s-.1344.4702-.1308.7151v.0193c.0584 1.925.3889 4.7586.3812 6.6097-.0148 6.5773-5.6029 9.2796-5.7079 11.3725-.1762 3.4372 3.7876 2.3635 5.1857 7.2261 1.7751 6.1726-.7688 13.2128 7.4908 12.7757 3.295-.1349 8.6513-1.4354 10.9464.7357 1.4637 1.3867 2.6419 7.435 3.1006 10.1122.0621.3599.2469.6859.5219.9205s.6225.3629.9812.3621h24.8047c.2366.0006.4702-.055.6821-.1623s.3964-.2633.5388-.4558.2389-.4161.2818-.6532c.0428-.237.0309-.481-.0349-.7125-.8287-2.8875-2.2549-8.4126-2.5368-12.9408z"/></g></svg>