<svg fill="none" height="130" viewBox="0 0 137 130" width="137" xmlns="http://www.w3.org/2000/svg"><path clip-rule="evenodd" d="m130.714.313845c17.591 53.218755-11.291 110.621155-64.5096 128.213155l.3139.949c53.7427-17.764 82.9097-75.7329 65.1447-129.476zm-48.2042 99.744155c-22.5892 22.589-59.2135 22.589-81.802693 0l-.707107.707c22.9797 22.98 60.2372 22.98 83.2169 0z" fill="#01d0d9" fill-rule="evenodd"/><g fill="#007f87"><path d="m57.1464 91.4025c.0579.2039.0683.4187.0302.6273-.0381.2087-.1236.4055-.2497.575-.1261.1694-.2894.3069-.477.4015-.1876.0945-.3943.1436-.6038.1434h-22.0052c-.3183.0007-.6266-.1127-.8703-.3201s-.4071-.4954-.4612-.813c-.4064-2.3613-1.4504-7.6915-2.7507-8.9196-2.0379-1.9118-6.789-.766-9.7147-.6458-7.3267.3862-5.0699-5.824-6.6391-11.2682-1.244-4.292-4.75731-3.3424-4.60102-6.3747.09377-1.8485 5.05122-4.2288 5.06372-10.0338.0062-1.6333-.2876-4.1275-.3376-5.8304-.3314-10.8883 8.4207-19.2445 19.8171-21.093-1.3711 4.1119-1.3908 8.5628-.0561 12.6869 1.3348 4.1242 3.9521 7.7 7.4606 10.1925 3.5085 2.4926 7.7196 3.7679 12.0034 3.6354 4.2839-.1326 8.4102-1.666 11.7618-4.3709.9002 7.9447-1.7754 14.5347-7.5267 22.0933-1.5004 1.9751-2.2443 5.4062-2.088 7.8941.25 3.9939 1.5128 8.8683 2.2443 11.4201z"/><path d="m58.0331 29.7314c-1.7677 0-3.1818 1.532-4.3602 2.7105 1.1784 1.1195 2.4747 2.7104 4.2424 2.7104 1.532 0 2.7104-1.2963 2.7104-2.7104 0-1.532-1.1195-2.7105-2.5926-2.7105z"/><path d="m44.2461 32.5005c0 1.5909 1.1195 2.7104 2.5926 2.7104 1.7677 0 3.1818-1.532 4.3603-2.7104-1.1785-1.1196-2.4748-2.7105-4.2425-2.7105-1.532-.0589-2.7104 1.2374-2.7104 2.7105z"/><path d="m53.5 15c-9.6633 0-17.5 7.8367-17.5 17.5s7.8367 17.5 17.5 17.5 17.5-7.8367 17.5-17.5-7.8367-17.5-17.5-17.5zm12.904 10.1347v4.5959h-1.8266v-2.3569l-2.5336 2.5337c.4714.7071.707 1.5909.707 2.5926 0 2.4747-1.9444 4.596-4.6548 4.596-2.298 0-3.9479-1.8266-5.4209-3.2997-1.3552 1.3552-2.7105 2.7694-4.596 3.1818v1.9445h1.8266v1.8266h-1.8266v2.7693h-1.8266v-2.7693h-1.8266v-1.8266h1.8266v-1.8856c-2.1801-.3535-3.6532-2.1212-3.6532-4.537 0-2.4747 1.9445-4.596 4.6549-4.596 2.298 0 3.9478 1.8266 5.4209 3.2997 1.5909-1.5909 3.1818-3.2997 5.7155-3.2997.9427 0 1.7676.2357 2.4158.7071l2.5337-2.5337h-2.3569v-1.8266h4.4781c.5303-.0589.9427.3536.9427.8839z"/></g></svg>