<svg fill="none" height="131" viewBox="0 0 140 131" width="140" xmlns="http://www.w3.org/2000/svg"><path clip-rule="evenodd" d="m133.714 1.31384c17.591 53.21876-11.291 110.62116-64.5096 128.21316l.3139.949c53.7427-17.764 82.9097-75.7329 65.1447-129.476zm-48.2042 99.74416c-22.5892 22.589-59.2135 22.589-81.80269 0l-.70711.707c22.9797 22.98 60.2372 22.98 83.2169 0z" fill="#01d0d9" fill-rule="evenodd"/><g fill="#007f87"><path d="m25.075 34.8c-.2.9 0 1.8.6 2.4.5.7 1.4 1.1 2.2 1.1h8.9c-.1.3-.2.7-.2 1-.1.6.1 1.2.5 1.6s.9.7 1.5.7h11.4c.6 0 1.1-.3 1.5-.7s.5-1 .5-1.6c-.1-.3-.1-.7-.2-1h8.3c.9 0 1.7-.4 2.3-1.1s.7-1.6.5-2.5c-.9-3.7-3.7-6.5-7.2-7.5 2-1 3.4-3.1 3.4-5.5 0-3.4-2.8-6.2-6.2-6.2s-6.2 2.8-6.2 6.2c0 2.4 1.4 4.5 3.4 5.5-.4.1-.8.3-1.2.4-.6-1.8-2.4-3.1-4.4-3.1-1.8 0-3.3 1-4.1 2.5-.5-.2-1-.4-1.5-.5 2.2-1 3.8-3.3 3.8-5.9 0-3.6-2.9-6.6-6.6-6.6-3.9.1-6.9 3-6.9 6.7 0 2.6 1.6 4.9 3.8 5.9-3.9 1-7 4.2-7.9 8.2zm13.7 4.6c.5-2.5 2.8-4.4 5.4-4.4s4.9 1.9 5.4 4.4zm9.9-17.6c0-2.2 1.8-4 4-4s4 1.8 4 4-1.8 4-4 4-4-1.8-4-4zm.1 8.3c1.1-.6 2.5-1 3.8-1 3.7 0 7 2.5 7.9 6.2.1.2 0 .4-.1.6-.1.1-.2.2-.5.2h-9.3c-.9-1.3-2.3-2.3-3.8-2.9 1-.7 1.7-1.8 2-3.1zm-4.6-3.2c1.3 0 2.4 1.1 2.4 2.4s-1.1 2.4-2.4 2.4-2.4-1.1-2.4-2.4 1.1-2.4 2.4-2.4zm-12.7-6.2c0-2.4 1.9-4.3 4.3-4.3s4.3 1.9 4.3 4.3-1.9 4.3-4.3 4.3-4.3-2-4.3-4.3zm4.3 7.8c1.3 0 2.6.3 3.8.9 0 1.6.9 3.1 2.2 3.9-1.6.5-2.9 1.6-3.8 2.9h-10c-.3 0-.4-.1-.5-.2s-.2-.3-.1-.6c.7-4 4.3-6.9 8.4-6.9z"/><path d="m62.5816 79.4993c-.1711-2.7378.6454-6.5185 2.2971-8.6916 6.5876-8.6693 9.5081-16.1799 8.1293-25.4243-.0199-.1297-.0392-.258-.0598-.3849-.0671-.422-.2803-.806-.6012-1.0831s-.7287-.4292-1.1502-.429h-52.3306c-.2345-.0017-.467.0441-.6838.1348-.2168.0906-.4136.2243-.5788.3932-.1652.1688-.2954.3694-.3832.59-.0877.2206-.1311.4568-.1276.6946v.0188c.0571 1.8698.3794 4.6223.3719 6.4203-.0145 6.3888-5.4651 9.0137-5.5675 11.0466-.1719 3.3387 3.6945 2.2958 5.0582 7.0191 1.7314 5.9956-.7499 12.8342 7.3065 12.4096 3.214-.1311 8.4386-1.3943 10.6773.7146 1.4276 1.3469 2.5768 7.222 3.0243 9.8224.0606.3496.2408.6662.5091.8941.2682.228.6071.3525.957.3518h24.1947c.2308.0005.4586-.0535.6653-.1577s.3867-.2558.5256-.4427c.1389-.187.233-.4042.2748-.6345.0418-.2302.0302-.4672-.0339-.6921-.8084-2.8047-2.1996-8.1715-2.4745-12.57z"/></g></svg>