<svg fill="none" height="132" viewBox="0 0 137 132" width="137" xmlns="http://www.w3.org/2000/svg"><path d="m68.7829 60.6257-16.5707-1.2003 13.2884 2.1911 1.6762.2794c-1.3256 3.5693-3.4734 7.094-6.3797 10.8602-1.5551 2.0005-2.3199 5.4872-2.1605 8.0149.2613 4.0583 1.5678 9.0057 2.3199 11.5969.0606.2075.0719.4263.0328.639-.0391.2126-.1274.4133-.258.5859-.1306.1727-.2998.3126-.4941.4087-.1944.096-.4086.1456-.6255.1446h-7.3421l-4.831-10.3775 2.0522 8.8469h-14.7351c-.3282-.0007-.6457-.1162-.8973-.3262-.2515-.2101-.4212-.5014-.4793-.8233-.4207-2.4006-1.4978-7.818-2.8362-9.0628-2.1032-1.9434-7.0106-.7812-10.0252-.6605-7.5652.3938-5.2389-5.9128-6.8641-11.4445-1.2747-4.3567-4.90746-3.3977-4.74813-6.4716.10197-1.8799 5.21973-4.2996 5.23253-10.1933.0063-1.6576-.2996-4.198-.3506-5.9191-.1563-4.8543 1.5639-9.5831 4.8055-13.21l1.0644.6478 10.3566 6.2811-8.4-8.4595-.9305-.9336c3.9897-4.5536 10.1081-7.6211 17.055-8.4023l-1.8737 3.674 5.4173 5.7159-1.7622 10.495c-.0075.0469-.0002.095.0208.1377s.0547.0779.0965.1009c.0418.0229.0897.0324.1371.0272.0475-.0052.0921-.0248.128-.0562l15.3214-12.5305-4.3338-6.4208c6.743 1.9688 11.9946 6.0969 15.0219 12.3589l-9.8691 8.9359 9.6875-5.2205 1.8419-.9908c1.2272 2.5838 2.0566 5.3372 2.4601 8.1674.6886 4.2348.2581 8.5754-1.2492 12.5939z" fill="#007f87"/><path d="m40.7427 42.1471c-.0434.0427-.0999.0697-.1605.0768-.0606.007-.1218-.0063-.1739-.038-.0521-.0316-.0921-.0796-.1136-.1365s-.0233-.1193-.0052-.1773c.7387-2.3607 2.5646-8.0657 3.5359-9.9189.0353-.07.0461-.1496.0307-.2264-.0153-.0767-.056-.1461-.1154-.1973l-3.8387-3.418c-.3228-.2879-.5405-.6745-.6188-1.099-.0783-.4246-.0129-.863.1861-1.2465l4.1949-8.0917c.1209-.233.3037-.4283.5286-.5646.2248-.1363.4829-.2084.7461-.2083h5.8112c.258 0 .5112.0695.7329.201s.4037.3202.5267.5463c.123.226.1826.4809.1723.7378s-.0899.5063-.2306.7218l-4.2064 6.4494c-.0472.0737-.0663.1619-.0536.2484.0126.0866.0561.1657.1225.2229l3.2465 2.816c.1991.171.3614.3803.4773.6154s.1829.4911.197.7526c.0145.2614-.025.5229-.116.7685-.091.2455-.2315.4699-.413.6592-2.0668 2.1993-8.2732 8.3439-10.463 10.5064z" fill="#007f87"/><path clip-rule="evenodd" d="m130.714 2.31384c17.591 53.21876-11.291 110.62116-64.5096 128.21316l.3139.949c53.7427-17.764 82.9097-75.7329 65.1447-129.476zm-48.2042 99.74416c-22.5892 22.589-59.2135 22.589-81.802693 0l-.707107.707c22.9797 22.98 60.2372 22.98 83.2169 0z" fill="#01d0d9" fill-rule="evenodd"/></svg>