<svg fill="none" height="130" viewBox="0 0 137 130" width="137" xmlns="http://www.w3.org/2000/svg"><path clip-rule="evenodd" d="m130.714.313845c17.591 53.218755-11.291 110.621155-64.5096 128.213155l.3139.949c53.7427-17.764 82.9097-75.7329 65.1447-129.476zm-48.2042 99.744155c-22.5892 22.589-59.2135 22.589-81.802693 0l-.707107.707c22.9797 22.98 60.2372 22.98 83.2169 0z" fill="#01d0d9" fill-rule="evenodd"/><g fill="#007f87"><path d="m43.5176 50.0625h6.4236c.247 0 .5764-.0859.8235-.1719.2471-.0859.4941-.2578.6588-.4297.1647-.1718.3294-.4297.4118-.6875.0823-.2578.1647-.5156.1647-.8593 0-.2579-.0824-.6016-.1647-.8594-.0824-.2578-.2471-.5156-.4941-.6875-.1647-.1719-.4118-.3438-.6588-.4297-.2471-.0859-.4942-.1719-.8236-.1719h-6.4235v-6.7031c0-.6016-.2471-1.1172-.5765-1.4609-.4117-.4297-.9059-.6016-1.4-.6016-.5764 0-1.0706.2578-1.4.6016-.4117.4297-.5764.9453-.5764 1.4609v6.7031h-6.4236c-.247 0-.5764.086-.8235.1719s-.4941.2578-.6588.4297-.3294.4297-.4118.6875c-.0823.2578-.1647.5156-.1647.8594 0 .2578.0824.6015.1647.8593.0824.2578.2471.5157.4941.6875.1647.1719.4118.3438.6588.4297.2471.086.4942.1719.8236.1719h6.4235v6.7031c0 .2578.0824.6016.1647.8594.0824.2578.2471.5156.4118.6875s.4117.3437.6588.5156c.2471.086.4941.1719.8235.1719.2471 0 .5765-.0859.8236-.1719.247-.0859.4941-.2578.6588-.4297.1647-.1718.3294-.4296.4117-.6875.0824-.2578.1648-.5156.1648-.8593z"/><path d="m59.2843 77.7596c-.1651-2.6648.6605-6.4123 2.3117-8.4942 6.5223-8.4942 9.4119-15.9059 8.0909-24.9831-2.2291-14.74-12.5491-22.4847-26.832-23.2342-15.6864-.8328-29.0612 9.2437-28.6484 23.151.0826 1.832.4128 4.4969.3302 6.329 0 6.2458-5.44892 8.8274-5.53148 10.826-.16512 3.2478 3.63268 2.2485 5.03618 6.912 1.7338 5.9126-.7431 12.5748 7.2653 12.1584 3.2198-.1665 8.3386-1.3324 10.5677.6662 1.4035 1.3324 2.5593 7.0786 2.9721 9.6601.0826.3332.2477.6663.4954.9161s.5779.3331.9082.3331h23.9424c.2477 0 .4954-.0833.6605-.1666.1651-.0832.4128-.2498.4953-.4163.1652-.1666.2477-.4164.2477-.583.0826-.2498 0-.4996 0-.6662-.6605-2.8314-1.9814-8.0779-2.3117-12.4083zm-17.4201-14.3236c-2.9722 0-5.9444-.916-8.4212-2.5816-2.4768-1.6655-4.4582-4.0805-5.6141-6.8287-1.1558-2.8314-1.4861-5.9126-.8256-8.8273.578-2.998 2.064-5.6628 4.128-7.828 2.1466-2.1652 4.8711-3.581 7.7607-4.1639 2.9722-.5829 6.0269-.2498 8.8339.8328 2.8071 1.1659 5.1188 3.0812 6.8525 5.6628 1.6512 2.4983 2.5594 5.4963 2.5594 8.4942 0 1.9987-.4128 3.9973-1.1559 5.8294-.743 1.8321-1.8988 3.5809-3.3024 4.9966-1.4035 1.4158-3.0547 2.5816-4.9536 3.3311s-3.8803 1.0826-5.8617 1.0826z"/></g></svg>