<svg fill="none" height="130" viewBox="0 0 137 130" width="137" xmlns="http://www.w3.org/2000/svg"><path clip-rule="evenodd" d="m130.714.313845c17.591 53.218755-11.291 110.621155-64.5096 128.213155l.3139.949c53.7427-17.764 82.9097-75.7329 65.1447-129.476zm-48.2042 99.744155c-22.5892 22.589-59.2135 22.589-81.802693 0l-.707107.707c22.9797 22.98 60.2372 22.98 83.2169 0z" fill="#01d0d9" fill-rule="evenodd"/><path d="m61.7573 77.5591c-.1732-2.7024.693-6.5027 2.4254-8.6139 6.843-8.6139 9.8747-16.1299 8.4888-25.3349-2.3387-14.9477-13.1663-22.8015-28.1516-23.5615-16.4579-.8445-30.4904 9.3739-30.0573 23.477.0866 1.8579.4331 4.5603.3464 6.4182 0 6.3337-5.7169 8.9517-5.80352 10.9785-.17325 3.2935 3.81132 2.2801 5.28382 7.0093 1.8191 5.9959-.7796 12.7519 7.6226 12.3297 3.3782-.1689 8.7487-1.3512 11.0874.6756 1.4726 1.3512 2.6853 7.1782 3.1184 9.7962.0866.3378.2598.6755.5197.9289.2599.2533.6064.3378.9528.3378h25.12c.2598 0 .5197-.0845.6929-.1689.1733-.0845.4331-.2533.5198-.4222.1732-.1689.2598-.4223.2598-.5912.0866-.2533 0-.5067 0-.6756-.693-2.8713-2.0789-8.1916-2.4254-12.583zm2.5987-37.4113c1.2993 3.4625 1.7324 7.0938 1.2126 10.7251-.5197 3.6314-1.9922 7.0938-4.1577 10.0496-.0867.0844-.1733.1689-.2599.1689-.0866.0844-.1732.0844-.2599.0844-.0866 0-.1732 0-.3464 0-.0867 0-.1733-.0844-.2599-.1689-.0866-.0844-.1732-.1689-.1732-.2533-.0867-.0845-.0867-.1689-.0867-.2534 0-.0844 0-.1689 0-.3378 0-.0844.0867-.1689.1733-.2533 2.0789-2.7024 3.3782-5.9115 3.8979-9.2895s.0866-6.756-1.1261-9.9651c-.0866-.1689-.0866-.4222 0-.5911s.2599-.3378.4331-.4223c.1733-.0844.4331-.0844.6064 0 .1732.1689.2598.3378.3465.5067zm-3.8113-5.067c.0866-.0844.1732-.0844.2598-.0844h.3465c.0866 0 .1732.0844.2599.0844.0866.0845.1732.1689.2598.2534.1733.1689.2599.4222.4331.5911.3465.5067.693 1.0979 1.0395 1.6046.0866.0844.0866.1689.0866.2533v.3378c0 .0845-.0866.1689-.1733.2534-.0866.0844-.1732.1689-.2598.1689-.0866.0844-.1733.0844-.3465.0844-.0866 0-.1732 0-.3465 0-.0866 0-.1732-.0844-.2598-.1689-.0867-.0844-.1733-.1689-.1733-.2533-.2598-.5067-.6063-1.0134-.9528-1.5201-.0866-.1689-.2599-.3378-.3465-.5067-.0866-.0845-.0866-.1689-.0866-.2534 0-.0844 0-.1689 0-.3378 0-.0844.0866-.1689.0866-.2533 0-.0845.0866-.1689.1733-.2534zm-3.6381-3.5469c.0866-.0844.1732-.1689.2599-.1689.0866-.0844.1732-.0844.3464-.0844h.3465c.1733 0 .1733.0844.2599.1689.6929.5911 1.2993 1.1823 1.9056 1.8579.1733.1689.2599.3378.1733.5911 0 .1689-.0866.4223-.2599.5067-.1732.1689-.3465.2534-.6063.1689-.1733 0-.4331-.0844-.6064-.2533-.5197-.5912-1.126-1.1823-1.819-1.689-.0866-.0845-.1732-.1689-.1732-.2534 0-.0844 0-.1689 0-.3378 0-.0844 0-.1689 0-.3378.0866 0 .1732-.0844.1732-.1689zm-4.4176-2.7024c.0866-.1689.2598-.3378.4331-.4222.1732-.0845.4331-.0845.6063.0844.7796.4223 1.5592.8445 2.3387 1.3512.1733.0845.3465.3378.3465.5067s0 .4223-.0866.5912-.3465.2533-.5197.3378c-.1733 0-.4331 0-.6064-.0845-.6929-.4222-1.3859-.8445-2.1655-1.2667-.0866-.0845-.1732-.0845-.2598-.1689-.0866-.0845-.0867-.1689-.1733-.2534 0-.0844-.0866-.1689 0-.3378 0-.1689.0867-.2533.0867-.3378zm-4.9374-1.5201c.0866-.1689.1732-.4222.3465-.5067.1732-.0844.4331-.1689.6063-.0844.8662.1689 1.7324.4222 2.5986.76.0866 0 .1733.0845.2599.1689.0866.0845.1732.1689.1732.2534 0 .0844.0866.1689.0866.3378 0 .0844 0 .1689-.0866.3378s-.0866.1689-.1732.2533c-.0866.0845-.1733.1689-.2599.1689-.0866.0845-.1732.0845-.3465.0845-.0866 0-.1732 0-.3464-.0845-.6064-.3378-1.4726-.5911-2.2522-.76-.1732-.0845-.4331-.1689-.5197-.3378s-.1732-.4223-.0866-.5912zm-26.0728 8.6139 2.8585-.9289c.1732-.0845.4331-.0845.6063-.0845.1733 0 .4331.0845.6064.1689.1732.0845.3465.2534.4331.3378.1732.1689.2598.3378.2598.5067l.9529 2.7869c0 .0844.0866.1689 0 .3378s0 .1689-.0866.3378c-.0867.0844-.0867.1689-.1733.2533-.0866.0845-.1732.0845-.2598.1689-.0867 0-.1733.0845-.3465 0-.0867 0-.1733 0-.3465-.0844-.1733-.0845-.1733-.0845-.2599-.1689-.0866-.0845-.0866-.1689-.1732-.2534l-.8662-2.7024-2.7719.8445c-.0866 0-.1732.0845-.3465 0-.0866 0-.1732 0-.3464-.0844-.0867-.0845-.1733-.0845-.2599-.1689-.0866-.0845-.0866-.1689-.1732-.2534 0-.0844-.0867-.1689 0-.3378 0-.0844 0-.1689.0866-.3378.0866-.0844.0866-.1689.1732-.2533.1733 0 .2599-.0845.4331-.0845zm4.0712 23.0548c-.1733.0845-.4331.1689-.6064.0845-.1732-.0845-.4331-.1689-.5197-.3378-1.9923-3.1247-3.2049-6.6716-3.3782-10.3029-.1732-3.6313.4331-7.3471 2.0789-10.6407.0866-.0844.0866-.1689.1733-.2533.0866-.0845.1732-.1689.2598-.1689s.1733-.0845.3465-.0845c.0866 0 .1732 0 .3465.0845.0866.0844.1732.0844.2598.1689.0867.0844.0867.1689.1733.2533 0 .0845.0866.1689.0866.3378 0 .0845 0 .1689-.0866.3378-1.4726 3.0402-2.1655 6.5027-1.9057 9.8806.2599 3.378 1.2993 6.6716 3.205 9.5429.0866.1689.1732.4222.0866.5911-.1732.2534-.2599.4223-.5197.5067zm3.7247 3.9692c-.0867.0844-.1733.1689-.2599.1689-.0866.0844-.1732.0844-.3465.0844-.0866 0-.1732 0-.3465-.0844-.0866 0-.1732-.0845-.2598-.1689-.1733-.1689-.3465-.3378-.5197-.5067-.4331-.4223-.9529-.929-1.2994-1.4357-.1732-.1689-.1732-.3378-.1732-.5911 0-.1689.0866-.4223.2599-.5067.1732-.1689.3465-.1689.6063-.1689.1733 0 .4331.0844.5197.2533.4331.4223.7796.929 1.2127 1.3512.1733.1689.3465.3378.5197.4223.0867.0844.1733.1689.1733.2533.0866.0845.0866.1689.0866.3378 0 .0845 0 .1689-.0866.3378 0 .1689-.0866.2534-.0866.2534zm4.2444 2.8713c-.0867.1689-.2599.3378-.5198.3378-.1732.0844-.4331 0-.6063-.0845-.7796-.4222-1.5592-.9289-2.2521-1.4356-.0867-.0845-.1733-.1689-.2599-.2534-.0866-.0844-.0866-.1689-.0866-.2533 0-.0845 0-.1689 0-.3378 0-.0845.0866-.1689.1732-.2534.0866-.0844.1733-.1689.2599-.1689.0866-.0844.1732-.0844.3465-.0844h.3465c.0866 0 .1732.0844.2598.1689.693.5067 1.3859.9289 2.0789 1.3512.1732.0844.3465.2533.3465.5067.0866.0844.0866.3378-.0866.5067zm4.9373 1.7734c-.0866.1689-.1732.3378-.2598.4223-.1733.0844-.3465.1688-.5197.1688-.0867 0-.1733 0-.2599 0-.8662-.2533-1.7324-.5066-2.5986-.8444-.1733-.0845-.3465-.2534-.4331-.4223s-.0866-.4222 0-.5911.2598-.3378.4331-.4223c.1732-.0844.4331-.0844.6063 0 .7796.3378 1.5592.5912 2.3388.7601.1732.0844.3465.1689.5197.3378s.1732.3378.1732.5911zm4.3311 1.3512c-.9529 0-1.8191-.0845-2.6853-.2534-.0866 0-.1732-.0844-.3465-.0844-.0866-.0845-.1732-.0844-.2598-.1689 0-.1689-.0866-.2534-.0866-.3378 0-.0845 0-.1689 0-.3378 0-.0845.0866-.1689.0866-.2533.0866-.0845.1732-.1689.2598-.2534.0867-.0844.1733-.0844.2599-.1689h.3465c.8662.0845 1.6458.1689 2.512.2534.1732 0 .4331.0844.6063.2533.1733.1689.2599.3378.2599.5911 0 .1689-.0866.4223-.2599.5912-.2598.0844-.4331.1689-.6929.1689zm0-9.2895c-2.512 0-4.9374-.76-7.0163-2.1112s-3.7247-3.2936-4.6775-5.5737c-.9528-2.2802-1.2127-4.7292-.693-7.0938.5198-2.3646 1.7324-4.5603 3.4649-6.3337 1.819-1.689 4.0711-2.8713 6.4965-3.378s5.024-.2534 7.3627.6756c2.3388.9289 4.3311 2.5335 5.717 4.5603s2.1655 4.3914 2.1655 6.8404c0 1.6045-.3465 3.2091-.9528 4.7292-.6064 1.5201-1.5592 2.8713-2.7719 3.9691-1.2127 1.1823-2.5986 2.0268-4.1578 2.7024-1.5591.6756-3.2916 1.0134-4.9373 1.0134zm16.7177 3.8847c-.3465 0-.7796-.1689-1.0394-.4222-.2599-.2534-.4331-.5912-.5198-.929l-.3464-2.8713c0-.0844 0-.1689 0-.3378 0-.0844.0866-.1689.1732-.2533.0866-.0845.1732-.1689.2599-.1689.0866-.0845.1732-.0845.3464-.0845h.3465c.0866 0 .1733.0845.2599.1689.0866.0845.1732.1689.1732.2534.0866.0844.0867.1689.0867.3378l.3464 2.7868 2.8585-.3378h.3465c.0866 0 .1732.0845.2598.1689.0867.0845.1733.1689.1733.2534.0866.0844.0866.1689.0866.2533v.3378c0 .0845-.0866.1689-.1732.2534-.0866.0844-.1733.1689-.2599.1689-.0866.0844-.1732.0844-.2599.0844l-2.945.3378s-.0867 0-.1733 0z" fill="#007f87"/></svg>