<svg fill="none" height="133" viewBox="0 0 137 133" width="137" xmlns="http://www.w3.org/2000/svg"><path d="m60.6429 81.5633c-.1727-2.7144.6512-6.4684 2.3174-8.6248 6.6445-8.6014 9.5922-16.0539 8.2012-25.226-2.254-14.8647-12.7783-22.7383-27.3292-23.4831-15.902-.8207-29.5207 9.3677-29.0822 23.4193.0576 1.8546.3829 4.5861.3753 6.3706-.0146 6.339-5.5131 8.9429-5.61878 10.9604-.17403 3.3128 3.72728 2.2782 5.10298 6.9646 1.7466 5.9495-.7594 12.7342 7.371 12.315 3.2432-.13 8.5139-1.3856 10.7724.7096 1.4403 1.3357 2.6002 7.1659 3.0527 9.7458.0611.3468.2429.6609.5135.887.2705.2261.6124.3497.9654.349h24.4069c.2329.0007.4628-.0528.6714-.1562.2085-.1034.3901-.2538.5303-.4394.1401-.1855.235-.4011.2771-.6296.042-.2285.0302-.4637-.0347-.6868-.8119-2.7876-2.2155-8.1116-2.4927-12.4754zm-25.5947-14.1533c-.0816.1676-.209.3088-.3675.4073-.1586.0985-.3418.1503-.5286.1495h-.5695l-.0202 3.2105c-.0012.1667-.0684.3261-.187.4435-.1185.1175-.2788.1834-.4459.1833h-2.9584c-.1678 0-.3287-.0665-.4474-.1848-.1187-.1184-.1854-.279-.1854-.4464v-3.2061h-.5695c-.1864-.0001-.369-.0522-.5271-.1506-.1582-.0983-.2856-.2388-.3677-.4057-.0822-.1669-.1158-.3533-.0971-.5383.0186-.185.0889-.361.2028-.5082l2.4945-3.2193c.1163-.1501.2656-.2715.4363-.3551.1706-.0836.3582-.127.5484-.127.1901 0 .3777.0434.5484.127s.3199.205.4362.3551l2.4946 3.2193c.1153.1463.1868.3221.2063.5072.0195.185-.0139.3718-.0962.5388zm0-13.212c-.0816.1675-.209.3086-.3676.407-.1585.0984-.3417.1501-.5285.1491h-.5695l-.0209 3.2105c-.0011.1667-.0683.3261-.1869.4435-.1185.1175-.2788.1834-.4459.1834h-2.9578c-.1678 0-.3287-.0666-.4474-.1849-.1187-.1184-.1854-.279-.1854-.4464v-3.2055h-.5695c-.1864-.0001-.369-.0522-.5271-.1505-.1582-.0983-.2856-.2389-.3677-.4058-.0822-.1668-.1158-.3533-.0971-.5383.0186-.1849.0889-.361.2028-.5081l2.4945-3.2194c.1163-.15.2656-.2715.4363-.3551.1706-.0835.3582-.127.5484-.127.1901 0 .3777.0435.5484.127.1707.0836.3199.2051.4362.3551l2.4946 3.2194c.1149.1462.1862.3218.2057.5065.0194.1848-.0137.3713-.0956.5382zm0-13.2121c-.0817.1674-.2092.3085-.3677.4068-.1585.0984-.3417.1502-.5284.1493h-.5695l-.0209 3.2099c-.001.1668-.0681.3264-.1867.4439-.1185.1176-.2789.1836-.4461.1836h-2.9578c-.1678 0-.3287-.0665-.4474-.1849s-.1854-.2789-.1854-.4464v-3.2054h-.5695c-.1864-.0001-.369-.0523-.5271-.1506-.1582-.0983-.2856-.2389-.3677-.4057-.0822-.1669-.1158-.3534-.0971-.5383.0186-.185.0889-.361.2028-.5082l2.4945-3.2194c.1163-.15.2656-.2715.4363-.355.1706-.0836.3582-.127.5484-.127.1901 0 .3777.0434.5484.127.1707.0835.3199.205.4362.355l2.4946 3.2194c.1152.1464.1866.3221.2061.5072.0194.185-.0138.3718-.096.5388zm10.3452 26.4241c-.0816.1676-.209.3088-.3675.4073s-.3418.1503-.5285.1495h-.5696l-.0202 3.2105c-.0012.1667-.0684.3261-.1869.4435-.1186.1175-.2789.1834-.4459.1833h-2.9584c-.1679 0-.3288-.0665-.4475-.1848-.1187-.1184-.1854-.279-.1854-.4464l.0032-3.2061h-.5695c-.1864-.0001-.369-.0522-.5271-.1506-.1582-.0983-.2856-.2388-.3677-.4057-.0822-.1669-.1158-.3533-.0972-.5383.0187-.185.089-.361.2029-.5082l2.4945-3.2193c.1163-.1501.2656-.2715.4362-.3551.1707-.0836.3583-.127.5485-.127.1901 0 .3777.0434.5484.127s.3199.205.4362.3551l2.4946 3.2193c.1148.1466.1857.3226.2046.5076.019.1851-.0149.3717-.0977.5384zm0-13.212c-.0816.1675-.209.3086-.3676.407-.1585.0984-.3417.1501-.5284.1491h-.5696l-.0209 3.2105c-.0011.1667-.0683.3261-.1869.4435-.1185.1175-.2788.1834-.4459.1834h-2.9577c-.1679 0-.3288-.0666-.4475-.1849-.1187-.1184-.1854-.279-.1854-.4464l.0032-3.2055h-.5695c-.1864-.0001-.369-.0522-.5271-.1505-.1582-.0983-.2856-.2389-.3677-.4058-.0822-.1668-.1158-.3533-.0972-.5383.0187-.1849.089-.361.2029-.5081l2.4945-3.2194c.1163-.15.2656-.2715.4362-.3551.1707-.0835.3583-.127.5485-.127.1901 0 .3777.0435.5484.127.1707.0836.3199.2051.4362.3551l2.4946 3.2194c.1144.1465.1851.3222.204.507s-.0147.3711-.0971.5377zm0-13.2121c-.0817.1674-.2092.3085-.3677.4068-.1585.0984-.3417.1502-.5283.1493h-.5696l-.0209 3.2099c-.001.1668-.0681.3264-.1866.4439-.1186.1176-.279.1836-.4462.1836h-2.9577c-.1679 0-.3288-.0665-.4475-.1849s-.1854-.2789-.1854-.4464l.0032-3.2054h-.5695c-.1864-.0001-.369-.0523-.5271-.1506-.1582-.0983-.2856-.2389-.3677-.4057-.0822-.1669-.1158-.3534-.0972-.5383.0187-.185.089-.361.2029-.5082l2.4945-3.2194c.1163-.15.2656-.2715.4362-.355.1707-.0836.3583-.127.5485-.127.1901 0 .3777.0434.5484.127.1707.0835.3199.205.4362.355l2.4946 3.2194c.1146.1467.1855.3226.2044.5076.0189.1851-.0149.3717-.0975.5384zm10.3459 26.4241c-.0818.1676-.2093.3088-.3679.4073-.1587.0985-.342.1503-.5288.1495h-.5696l-.0202 3.2105c-.0012.1667-.0684.3261-.1869.4435-.1186.1175-.2789.1834-.4459.1833h-2.9578c-.1678 0-.3288-.0665-.4475-.1848-.1186-.1184-.1853-.279-.1853-.4464v-3.2061h-.5695c-.1864 0-.3691-.0521-.5273-.1504s-.2857-.2389-.3678-.4058c-.0821-.167-.1156-.3535-.0968-.5385s.0893-.361.2034-.5081l2.4939-3.2193c.1164-.1501.2657-.2715.4364-.3551s.3584-.127.5486-.127.3778.0434.5485.127c.1708.0836.3201.205.4364.3551l2.494 3.2193c.1151.1464.1866.3222.206.5072.0195.185-.0138.3718-.0959.5388zm0-13.212c-.0818.1675-.2094.3086-.368.407s-.3419.1501-.5287.1491h-.5696l-.0208 3.2105c-.0012.1667-.0684.3261-.1869.4435-.1186.1175-.2789.1834-.446.1834h-2.9571c-.1678 0-.3288-.0666-.4475-.1849-.1186-.1184-.1853-.279-.1853-.4464v-3.2055h-.5695c-.1864.0001-.3691-.052-.5273-.1503-.1582-.0984-.2857-.239-.3678-.4059s-.1156-.3535-.0968-.5385.0893-.361.2034-.508l2.4939-3.2194c.1164-.15.2657-.2715.4364-.3551.1707-.0835.3584-.127.5486-.127s.3778.0435.5485.127c.1708.0836.3201.2051.4364.3551l2.494 3.2194c.1147.1463.1859.3218.2054.5066.0195.1847-.0136.3712-.0953.5381zm0-13.2121c-.0819.1674-.2095.3084-.3681.4068s-.3419.1501-.5286.1493h-.5696l-.0208 3.2099c-.001.1668-.0682.3264-.1867.4439-.1186.1176-.279.1836-.4462.1836h-2.9571c-.1678 0-.3288-.0665-.4475-.1849-.1186-.1184-.1853-.2789-.1853-.4464v-3.2054h-.5695c-.1864 0-.3691-.0521-.5273-.1504s-.2857-.2389-.3678-.4059c-.0821-.1669-.1156-.3534-.0968-.5384s.0893-.361.2034-.5081l2.4939-3.2194c.1164-.15.2657-.2715.4364-.355.1707-.0836.3584-.1271.5486-.1271s.3778.0435.5485.1271c.1708.0835.3201.205.4364.355l2.494 3.2194c.115.1464.1863.3222.2058.5072s-.0137.3717-.0957.5388z" fill="#007f87"/><path clip-rule="evenodd" d="m130.714 3.31384c17.591 53.21876-11.291 110.62116-64.5096 128.21316l.3139.949c53.7427-17.764 82.9097-75.7329 65.1447-129.476zm-48.2042 99.74416c-22.5892 22.589-59.2135 22.589-81.802693 0l-.707107.707c22.9797 22.98 60.2372 22.98 83.2169 0z" fill="#01d0d9" fill-rule="evenodd"/></svg>