<svg fill="none" height="132" viewBox="0 0 138 132" width="138" xmlns="http://www.w3.org/2000/svg"><g fill="#007f87"><path d="m60.9427 80.3645c-.1712-2.7357.6454-6.5191 2.2969-8.6923 6.5859-8.6687 9.5076-16.1796 8.1289-25.4234-2.2342-14.981-12.6656-22.9162-27.0882-23.6669-15.7616-.8271-29.2602 9.4411-28.8255 23.6026.057 1.8692.3794 4.622.3719 6.4205-.0144 6.3886-5.4644 9.0129-5.5692 11.0461-.1724 3.3387 3.6944 2.296 5.058 7.0191 1.7312 5.9961-.7527 12.8339 7.306 12.4114 3.2145-.131 8.4387-1.3964 10.6773.7151 1.4276 1.3462 2.5773 7.222 3.0258 9.8221.0605.3495.2408.6661.5089.894.2682.2279.6071.3524.9569.3517h24.1916c.2309.0007.4587-.0532.6654-.1574.2068-.1042.3868-.2558.5257-.4428.1389-.1871.2329-.4043.2746-.6346s.03-.4673-.0344-.6922c-.8047-2.8094-2.1959-8.1751-2.4706-12.573zm-22.653-24.7039c-13.7445 0-18.3521-6.0438-17.9532-11.8395.6561-9.5429 7.2508-15.803 19.7728-16.5829 4.3541-.2976 8.7176.4183 12.7572 2.0931 4.0395 1.6748 7.6481 4.2641 10.55 7.57 3.5752 4.2274 6.2365 15.4371.8336 20.4127-9.0503 8.3341-15.6149-1.6534-25.9604-1.6534z"/><path d="m59.8831 38.2824c-2.9285-3.0957-9.5659-7.6063-19.1048-7.0757-10.264.5726-15.67 5.1531-16.2082 12.1429-.3268 4.2453 3.4504 8.6707 14.7142 8.6707 8.4801 0 15.0447 8.4384 22.4629 2.3354 4.4314-3.6441 1.0644-12.9776-1.8641-16.0733zm-2.3753 11.996c-4.8705 4.008-11.8308-1.8119-17.3981-1.8119-9.2767 0-11.346-3.3521-10.6911-6.6736.8894-4.5119 5.7598-5.9802 12.4981-6.3555 6.2623-.348 10.7827 2.128 14.511 4.9355 2.7711 2.0867 3.9873 7.5121 1.0801 9.9055z"/><path d="m41.5641 38.9091c-4.1974-.035-7.5895 1.6357-7.5895 3.3973 0 2.5365 2.64 2.338 6.596 2.7178 5.3502.5134 11.4155 3.5257 13.4992 1.9925 1.2457-.9148.5482-3.048-.3437-3.7427-1.0632-.8258-6.2755-4.3153-12.162-4.3649z"/></g><path clip-rule="evenodd" d="m131.36 2.15662c17.591 53.21878-11.29 110.62138-64.5091 128.21238l.3139.95c53.7432-17.765 82.9092-75.7331 65.1452-129.47623zm-48.2037 99.74438c-22.5892 22.589-59.2135 22.589-81.80271 0l-.707106.707c22.979716 22.98 60.237216 22.98 83.216916 0z" fill="#01d0d9" fill-rule="evenodd"/></svg>