<svg fill="none" height="132" viewBox="0 0 137 132" width="137" xmlns="http://www.w3.org/2000/svg"><path d="m79.8856 27.2983c.0006-.2555-.0493-.5086-.1471-.7449-.0977-.2362-.2412-.4509-.4224-.6317s-.3964-.3242-.6333-.4219c-.2369-.0978-.4908-.148-.7472-.1477-14.3441.1043-26.2458 9.5625-25.8451 22.4037.0552 1.7713.3663 4.3788.3588 6.0825-.0144 6.0519-5.2685 8.5381-5.3707 10.4644-.1656 3.1631 3.5625 2.175 4.8777 6.6494 1.669 5.68-.7238 12.1581 7.0447 11.7581 3.0997-.125 8.1367-1.3238 10.2955.6769 1.3799 1.2756 2.485 6.8406 2.9171 9.3037.0585.3313.2324.6314.4912.8475.2587.2161.5856.3343.9232.3338h4.3139c.2561 0 .5097-.0503.7463-.148.2367-.0977.4516-.2409.6327-.4214s.3247-.3948.4227-.6306c.0979-.2358.1483-.4886.1482-.7438z" fill="#007f87"/><path d="m8.3969 27.2983c-.00066-.2555.0493-.5086.14702-.7449.09773-.2362.24128-.4509.42245-.6317.18116-.1808.39636-.3242.63326-.4219.23689-.0978.49087-.148.74727-.1477 14.344.1043 26.2458 9.5625 25.845 22.4037-.0552 1.7713-.3663 4.3788-.3587 6.0825.0144 6.0519 5.2685 8.5381 5.3707 10.4644.1656 3.1631-3.5625 2.175-4.8778 6.6494-1.6689 5.68.7238 12.1581-7.0447 11.7581-3.0996-.125-8.1366-1.3238-10.2955.6769-1.3798 1.2756-2.4849 6.8406-2.9171 9.3037-.0585.3313-.2324.6314-.4911.8475s-.5856.3343-.9232.3338h-4.3139c-.2562 0-.50985-.0503-.74652-.1481-.23666-.0977-.45168-.241-.63277-.4215-.18108-.1806-.32469-.3949-.42261-.6308s-.14824-.4887-.14807-.744z" fill="#007f87"/><path clip-rule="evenodd" d="m130.714 2.31384c17.591 53.21876-11.291 110.62116-64.5096 128.21316l.3139.949c53.7427-17.764 82.9097-75.7329 65.1447-129.476zm-48.2042 99.74416c-22.5892 22.589-59.2135 22.589-81.802693 0l-.707107.707c22.9797 22.98 60.2372 22.98 83.2169 0z" fill="#01d0d9" fill-rule="evenodd"/></svg>