<svg fill="none" height="132" viewBox="0 0 137 132" width="137" xmlns="http://www.w3.org/2000/svg"><g fill="#007f87"><path d="m58.8175 93.1986c.0596.2102.0703.4316.0311.6467s-.1272.4181-.257.5928-.2979.3163-.491.4138c-.193.0975-.4058.1482-.6215.1479h-22.6488c-.3276.0007-.6449-.1162-.8958-.33-.2508-.2138-.4189-.5107-.4747-.8382-.4182-2.4343-1.4928-7.9293-2.8311-9.1954-2.0976-1.971-6.9877-.7897-9.9989-.6657-7.5411.3981-5.2183-6.0042-6.8333-11.6167-1.2804-4.4248-4.8965-3.4459-4.73564-6.572.09652-1.9056 5.19894-4.3595 5.21184-10.3441.0064-1.6837-.296-4.2551-.3475-6.0106-.341-11.2252 8.667-19.8398 20.3968-21.7455-1.4112 4.2391-1.4314 8.8277-.0577 13.0794 1.3738 4.2517 4.0677 7.9381 7.6788 10.5077 3.6112 2.5697 7.9455 3.8845 12.3546 3.7478s8.6562-1.7175 12.1058-4.5061c.9266 8.1905-1.8273 14.9843-7.7469 22.7766-1.5442 2.0362-2.3099 5.5734-2.149 8.1382.2573 4.1175 1.5571 9.1427 2.3099 11.7734z"/><path d="m53.6827 15c-3.7223-.0005-7.3612 1.1186-10.4564 3.2157-3.0952 2.0972-5.5078 5.0783-6.9326 8.5662-1.4249 3.4879-1.7979 7.3261-1.072 11.0291.7258 3.703 2.518 7.1045 5.1499 9.7744 2.6319 2.6698 5.9853 4.4881 9.636 5.2248 3.6508.7368 7.4349.3589 10.8739-1.0858s6.3784-3.8913 8.4465-7.0305c2.068-3.1391 3.1719-6.8298 3.1719-10.6053 0-5.0622-1.9825-9.917-5.5113-13.4968-3.5288-3.5797-8.3151-5.5911-13.3059-5.5918zm0 32.8035c-2.632 0-5.2048-.7916-7.3932-2.2748-2.1885-1.4831-3.8941-3.5911-4.9013-6.0575-1.0072-2.4663-1.2708-5.1802-.7573-7.7985s1.7809-5.0233 3.642-6.911 4.2322-3.1732 6.8136-3.694 5.2571-.2535 7.6887.7681c2.4317 1.0216 4.51 2.7516 5.9722 4.9713 1.4623 2.2196 2.2427 4.8293 2.2427 7.4988 0 3.5798-1.402 7.013-3.8976 9.5443-2.4957 2.5312-5.8805 3.9533-9.4098 3.9533z"/><path d="m53.683 25.8794c-1.6432 0-3.2494.4942-4.6157 1.4201-1.3662.926-2.4311 2.2421-3.0599 3.7818-.6288 1.5398-.7933 3.2341-.4728 4.8687.3206 1.6347 1.1119 3.1362 2.2738 4.3146 1.1619 1.1785 2.6422 1.9811 4.2538 2.3062 1.6116.3252 3.282.1583 4.8001-.4795s2.8157-1.7178 3.7285-3.1036c.9129-1.3858 1.4002-3.015 1.4002-4.6816 0-2.2349-.8753-4.3783-2.4334-5.9586-1.558-1.5803-3.6712-2.4681-5.8746-2.4681zm0 11.3172c-.5636 0-1.1146-.1696-1.5832-.4872-.4687-.3176-.8339-.769-1.0496-1.2972-.2157-.5281-.2722-1.1093-.1622-1.67s.3814-1.0758.7799-1.48c.3986-.4042.9063-.6795 1.4591-.7911.5528-.1115 1.1258-.0542 1.6466.1645.5207.2188.9658.5893 1.2789 1.0646.3131.4754.4803 1.0342.4803 1.6059 0 .3796-.0738.7554-.217 1.1061s-.3531.6693-.6177.9378c-.2646.2684-.5788.4813-.9245.6265-.3458.1453-.7164.2201-1.0906.2201z"/></g><path clip-rule="evenodd" d="m130.714 2.31384c17.591 53.21876-11.291 110.62116-64.5096 128.21316l.3139.949c53.7427-17.764 82.9097-75.7329 65.1447-129.476zm-48.2042 99.74416c-22.5892 22.589-59.2135 22.589-81.802693 0l-.707107.707c22.9797 22.98 60.2372 22.98 83.2169 0z" fill="#01d0d9" fill-rule="evenodd"/></svg>