<svg fill="none" height="140" viewBox="0 0 137 140" width="137" xmlns="http://www.w3.org/2000/svg"><path clip-rule="evenodd" d="m130.714 10.3138c17.591 53.2188-11.291 110.6212-64.5096 128.2132l.3139.949c53.7427-17.764 82.9097-75.7329 65.1447-129.476zm-48.2042 99.7442c-22.5892 22.589-59.2135 22.589-81.802693 0l-.707107.707c22.9797 22.98 60.2372 22.98 83.2169 0z" fill="#01d0d9" fill-rule="evenodd"/><g fill="#007f87"><path d="m64.0074 99.7225c.0639.225.0753.4615.0333.6925-.042.23-.1362.447-.2753.634-.139.187-.319.338-.5259.443-.2068.104-.4347.158-.6657.158h-24.2621c-.351.001-.6909-.124-.9596-.353s-.4488-.547-.5085-.897c-.448-2.6048-1.5991-8.4846-3.0328-9.8393-2.247-2.1089-7.4854-.8449-10.7111-.7123-8.0782.426-5.5899-6.4244-7.32-12.4298-1.3716-4.7346-5.2453-3.6871-5.073-7.032.1034-2.0391 5.5693-4.6647 5.5831-11.0682.0069-1.8016-.3171-4.5529-.3722-6.4314-.3653-12.0109 9.2843-21.2286 21.8496-23.2676-1.5117 4.5358-1.5334 9.4456-.0618 13.9949s4.3574 8.4937 8.2258 11.2433c3.8683 2.7495 8.5113 4.1563 13.2345 4.0101 4.7232-.1463 9.2727-1.8378 12.9681-4.8215.9926 8.7638-1.9575 16.0332-8.2987 24.371-1.6542 2.1787-2.4745 5.9635-2.3021 8.7078.2757 4.4057 1.668 9.7826 2.4744 12.5975z"/><path d="m72.8116 33.0196c-1.386-7.2806-11.5395-8.2344-14.3116-1.3353-2.7721-6.8991-12.9256-5.9453-14.3116 1.3353-.7092 3.6562.6124 7.376 3.4812 9.7922l10.8304 9.1882 10.8304-9.1882c2.8688-2.4162 4.1904-6.136 3.4812-9.7922z"/></g></svg>