<svg fill="none" height="130" viewBox="0 0 137 130" width="137" xmlns="http://www.w3.org/2000/svg"><path clip-rule="evenodd" d="m130.714.313845c17.591 53.218755-11.291 110.621155-64.5096 128.213155l.3139.949c53.7427-17.764 82.9097-75.7329 65.1447-129.476zm-48.2042 99.744155c-22.5892 22.589-59.2135 22.589-81.802693 0l-.707107.707c22.9797 22.98 60.2372 22.98 83.2169 0z" fill="#01d0d9" fill-rule="evenodd"/><path d="m69.9345 24.946c.0873-.3499.0873-.6123 0-.9622s-.1745-.6123-.3491-.8747-.4365-.4374-.6984-.6123c-.2618-.175-.611-.175-.8729-.2625-4.4517-.0874-8.5544 3.324-11.6095 6.9104-.5238-.3499-.9602-.6123-1.484-.8747.6983-5.3359.6111-11.8089-3.0551-15.6577-.1746-.1749-.4365-.3499-.6983-.4374-.2619-.0874-.5238-.1749-.7857-.1749-.2618 0-.5237.0875-.7856.1749-.2618.0875-.5237.2625-.6983.4374-2.9679 3.149-3.5789 7.9601-3.4043 12.5961-1.3094-.1749-2.706-.3499-4.0154-.4373-.611 0-1.3093-.0875-1.9203-.0875-2.095-1.4871-4.4518-2.5367-6.896-2.4493-.3491 0-.611.0875-.8729.2625-.2618.1749-.5237.3499-.6983.6123s-.3491.5248-.3491.8747-.0873.6123 0 .9622.1745.6998.3491 1.0497c-10.1256 2.9741-17.458 10.9341-17.1088 20.9935.0873 1.7495.3491 4.3737.3491 6.0356 0 6.0357-5.23738 8.4849-5.32467 10.4093-.17458 3.1491 3.49157 2.1869 4.80097 6.648 1.6585 5.6857-.6983 12.0713 6.9832 11.7214 3.0551-.0875 8.0307-1.3121 10.2129.6997 1.3967 1.3121 2.4442 6.8229 2.8806 9.2722.0873.3499.2619.6123.5238.8747.2618.175.611.3499.8729.3499h23.1318c.2619 0 .4365-.0875.6111-.1749.1745-.0875.3491-.2625.5237-.4374.1746-.175.2619-.3499.2619-.6123 0-.175 0-.4374 0-.6123-.7856-2.6242-2.095-7.6977-2.3569-11.8089-.1745-2.5367.6111-6.1231 2.1823-8.2224 6.2849-8.135 9.0782-15.2204 7.7688-23.9677-.1746-.8747-.3491-1.7494-.5237-2.6241.5237-.175 1.0475-.3499 1.5712-.6124.2619-.1749.5237-.3498.6983-.6123.1746-.2624.2619-.5248.3492-.7872s.0873-.6123 0-.8747c-.0873-.2625-.1746-.5249-.3492-.7873-1.222-1.3996-2.7933-2.3618-4.5391-2.7991-.611-1.1372-1.3093-2.1869-2.0076-3.2365 3.0551-2.7117 6.2849-6.0357 7.3323-9.8845zm-41.5501 11.9838c-.611 1.0497-2.2695 1.2246-3.6662.4374-1.3966-.7873-2.0949-2.3618-1.4839-3.4115s2.2696-1.2246 3.6662-.4373c1.4839.7872 2.095 2.3617 1.4839 3.4114zm18.6801 30.2657c-.1746-.2625-.2619-.6123-.3491-.8748-.0873-.3499 0-.6123.0872-.9622.0873-.3499.2619-.6123.4365-.8747s.4364-.4374.6983-.6123l2.1823-1.3121c.0873 0 .0873.0875.1746.0875.4364.1749.8729.4373 1.222.7872.3492.3499.611.7873.7856 1.2246.1746.2625.2619.5249.2619.8748 0 .2624 0 .6123-.0873.8747-.0873.175-.1746.2624-.1746.4374l-1.9204 1.1371c-.2618.175-.611.2624-.8729.3499-.3491.0875-.611 0-.9601-.0875-.3492-.0874-.6111-.2624-.873-.4373-.2618-.0875-.4364-.3499-.611-.6123zm8.2926-2.0119-.6983.4374c-.0873-.5249-.1746-1.1372-.4365-1.662-.4364-1.0497-1.1348-1.9244-1.9204-2.6242l.6111-.3499c.2618-.175.611-.2624.8729-.3499.3491-.0875.611 0 .9601.0875.3492.0874.6111.2624.8729.4373.2619.175.4365.4374.6111.6998s.2618.6123.3491.8747c.0873.3499 0 .6124-.0872.9622-.0873.3499-.2619.6124-.4365.8748-.2619.2624-.4365.4373-.6983.6123zm5.9357-31.7527c-2.4441 1.8369-5.0628 3.4989-7.8561 4.811-.1746.0875-.3492.2624-.4365.4374-.0872.1749-.0872.4373 0 .6123.0873.1749.1746.3499.3492.4373.1746.0875.3492.0875.611.0875.0873 0 6.9832-1.7494 11.435.175.8729.3499 1.7458.9622 2.3569 1.7494 0 .0875.0873.0875.0873.175v.1749c0 .0875 0 .0875-.0873.175 0 .0874-.0873.0874-.1746.0874-.3492.175-.7856.3499-1.2221.5249-4.8882 1.5745-12.4825-1.4871-12.5697-1.4871-.1746-.0874-.4365-.0874-.6111 0-.1746.0875-.3491.2625-.4364.4374s-.0873.4374 0 .6123c.0873.175.1746.3499.3491.4374 0 0 3.8408 2.1868 3.2298 5.4233 0 .0875-.0873.1749-.1746.2624s-.0873.0875-.1746.0875c-1.7458 0-3.5789-2.7117-4.4518-3.8488-.1746-.2624-.3491-.5249-.611-.6998-.1746 1.662-.0873 6.2106 2.0949 7.2603.1746.0874.3492.2624.4365.4373.0873.175.0873.4374 0 .6123-.0873.175-.2619.3499-.4365.4374-.1745.0875-.4364.0875-.611 0-3.4043-1.5745-3.0551-7.5227-2.9678-8.7473-.2619.1749-.4365.4374-.6111.6998s-.3491.4373-.4364.6998c-.9602 1.487-2.095 3.149-3.4916 3.149-.0873 0-.1746 0-.2619-.0875s-.1746-.1749-.1746-.2624c-.611-3.2365 3.2297-5.4233 3.2297-5.4233.1746-.0875.2619-.2624.3492-.4374.0873-.1749.0873-.3499 0-.5248-.0873-.175-.1746-.3499-.2619-.4374-.1745-.0875-.3491-.1749-.5237-.1749-.0873 0-.1746 0-.3492.0874-.0873 0-8.9908 3.5864-13.7045.9622-.0873 0-.0873-.0874-.1746-.0874 0-.0875-.0873-.0875-.0873-.175s0-.0875 0-.1749c0-.0875 0-.0875.0873-.175 3.5789-4.4611 13.6173-1.9244 13.7046-1.9244.1745.0875.4364 0 .611-.0875.1746-.0874.3491-.2624.3491-.4373 0-.175.0873-.4374 0-.6123-.0872-.175-.2618-.3499-.4364-.4374-.0873-.0875-11.6969-5.4233-14.4902-12.6836-.1745-.3499-.2618-.6998-.3491-1.0497 0-.0874 0-.1749 0-.1749 0-.0875 0-.175.0873-.175 0-.0874.0873-.0874.1745-.0874h.1746c1.3967 0 2.706.3499 3.9281.9622 6.1103 3.0615 11.1731 12.0713 11.1731 12.2462.0873.1749.2619.3499.4365.3499.1746.0875.4364.0875.611 0s.3492-.2624.4365-.4374c.0872-.1749.0872-.4373 0-.6123-1.1348-3.5864-1.8331-7.1728-2.1823-10.9341-.2619-4.3737.1746-8.9223 2.8806-11.7214 0-.1749.0873-.2624.1746-.2624h.1745c.0873 0 .0873.0875.0873.0875 3.0552 3.2365 3.2298 8.8347 2.706 13.7332-.3491 3.0616-1.0475 6.0357-2.0077 8.9223-.0872.1749-.0872.4373 0 .6123.0873.1749.2619.3499.4365.4373.1746.0875.4364.0875.611 0 .1746-.0874.3492-.1749.4365-.3498 1.3966-2.4493 3.0551-4.8111 4.9755-6.9979 2.706-3.149 6.3722-6.2106 10.0384-6.2106h.1746.1745c.0873 0 .0873.0875.1746.0875 0 .0875.0873.0875.0873.1749v.175c-.9602 3.5864-3.928 6.7354-7.0705 9.0972z" fill="#007f87"/></svg>