<svg fill="none" height="132" viewBox="0 0 139 132" width="139" xmlns="http://www.w3.org/2000/svg"><path d="m62.3726 80.0332c-.1718-2.7504.6461-6.5436 2.2958-8.7271 6.5848-8.6992 9.5061-16.2436 8.1314-25.5236-1.2166-8.1463-4.8321-14.221-10.1935-18.1891-1.6427-3.0584-2.5707-5.6618-2.5707-8.8601v-8.1253c-.0011-.6029-.2368-1.18077-.6555-1.60709-.4187-.42631-.9862-.6663-1.5784-.66741h-3.5261c-.5925 0-1.1607.23963-1.5796.66619-.4189.42655-.6543 1.00511-.6543 1.60831v8.1253c.0051 1.3652-.1777 2.7245-.543 4.0381-1.9075-.399-3.8424-.647-5.7875-.7418-15.7679-.8329-29.2606 9.4759-28.8276 23.6899.055 1.8826.378 4.64.3712 6.4456-.0138 6.4177-5.4645 9.0491-5.5676 11.0927-.1718 3.3523 3.6911 2.3025 5.0589 7.0475 1.7253 6.0187-.7561 12.8842 7.2997 12.4573 3.2168-.133 8.4407-1.3997 10.6815.7139 1.4297 1.3577 2.5776 7.2504 3.0243 9.8609.0596.3511.2392.6695.5072.8988.2679.2293.6069.3546.9569.3539h24.1948c.2304.0002.4577-.0541.664-.1586.2062-.1046.3858-.2565.5244-.4439.1387-.1873.2327-.4049.2745-.6356.0419-.2306.0305-.4681-.0332-.6935-.8042-2.8204-2.1926-8.2093-2.4676-12.6253zm-11.2107-17.1002c-.1665-.0002-.3325-.0173-.4956-.051-.0687-.014-.1299-.0399-.1959-.0595-.1744-.0381-.3407-.1073-.4914-.2044-.0633-.035-.1293-.0651-.1891-.105-.0766-.0546-.1503-.1135-.2206-.1763-.0481-.0406-.0997-.077-.1443-.1211-.0677-.0701-.1315-.1439-.1911-.2212-.0378-.0468-.0791-.0916-.1141-.1399-.0539-.0811-.1032-.1652-.1478-.252-.0296-.0553-.0619-.1078-.088-.1658-.0371-.088-.0695-.1779-.0969-.2695-.0206-.0644-.0433-.1281-.0591-.1945-.0197-.0925-.0344-.1859-.044-.28-.0166-.1045-.0269-.2099-.0309-.3156v-25.1274c.1197-1.7974.5942-3.5517 1.3953-5.1579 1.3511-2.1518 2.4035-4.4833 3.1274-6.9286.2674-.9911.4423-2.0057.5224-3.0303h4.6809c.1657 1.9548.6488 3.868 1.4297 5.6618.6444 1.4802 1.3838 2.9157 2.2133 4.2971.8034 1.6057 1.2803 3.36 1.4022 5.1579v2.0624c-.1636-.0684-.3387-.1038-.5155-.1043h-7.7616c-.3646 0-.7143.1475-.9721.41s-.4026.6185-.4026.9897v16.3828c0 .3713.1448.7273.4026.9898s.6075.4099.9721.4099h7.7616c.1768-.0005.3519-.0359.5155-.1042v4.0955c-.0015.677-.2663 1.3259-.7364 1.8046-.4702.4788-1.1075.7484-1.7725.7498z" fill="#007f87"/><path clip-rule="evenodd" d="m132.714 2.31384c17.591 53.21876-11.291 110.62116-64.5096 128.21316l.3139.949c53.7427-17.764 82.9097-75.7329 65.1447-129.476zm-48.2042 99.74416c-22.5892 22.589-59.2135 22.589-81.80269 0l-.70711.707c22.9797 22.98 60.2372 22.98 83.2169 0z" fill="#01d0d9" fill-rule="evenodd"/></svg>