<svg fill="none" height="32" viewBox="0 0 32 32" width="32" xmlns="http://www.w3.org/2000/svg"><path clip-rule="evenodd" d="m20.2462 24.594 1.7383-.4967c.2709-.0903.5418-.2483.7449-.474l1.2642-1.4448v3.0024c0 .6773-.5643 1.2191-1.219 1.2191h-14.22224c-.67725 0-1.21905-.5644-1.21905-1.2191v-16.95376c0-.65467.56438-1.19647 1.21905-1.19647h1.82854v-.8127c0-.65467.5193-1.15132 1.1514-1.15132.6546 0 1.1513.49665 1.1513 1.15132v.8127h1.8285v-.8127c0-.65467.5193-1.15132 1.1514-1.15132s1.1513.49665 1.1513 1.15132v.8127h1.8286v-.8127c0-.65467.4966-1.15132 1.1287-1.15132s1.1513.49665 1.1513 1.15132v.8127h1.8286c.6773 0 1.2191.5418 1.2191 1.19647v6.27586l-5.0568 5.7792c-.0142.0188-.0273.0367-.0399.0538-.0477.0647-.0871.1183-.1407.1719h-6.7048c-.4063 0-.7224.3386-.7224.7224 0 .4064.3161.7224.7224.7224h6.3661l-.1354.903c-.0677.4515.0677.903.3612 1.2642.2935.3386.7224.5418 1.1739.5418.158 0 .316-.0226.4515-.0677zm-.9707-13.3192h-7.2466c-.3838 0-.7224.316-.7224.7224 0 .3837.3161.7224.7224.7224h7.2466c.4063 0 .7224-.3387.7224-.7224 0-.4064-.3161-.7224-.7224-.7224zm0 4.6278h-7.2466c-.3838 0-.7224.3161-.7224.7224 0 .3838.3161.7224.7224.7224h7.2466c.4063 0 .7224-.3386.7224-.7224 0-.4063-.3161-.7224-.7224-.7224zm.6773 7.5851c-.3161.0903-.587-.158-.5418-.4515l.2935-1.7834c0-.0903.0225-.158.0903-.2257l.4966-.5644 2.0543 1.8286-.4966.5643c-.0452.0452-.1129.0903-.1806.1129zm.9481-3.7021 2.0543 1.8285 4.2441-4.8536-2.0543-1.806zm6.2982-6.5243 1.4448 1.2642c.158.158.1806.4063.0226.5643l-.8579.9708-2.0543-1.806.8579-.9707c.158-.1581.4063-.1806.5869-.0226z" fill="#004452" fill-rule="evenodd"/></svg>