<svg fill="none" height="32" viewBox="0 0 32 32" width="32" xmlns="http://www.w3.org/2000/svg"><path d="m18.804 20.3637c-.2848.0238-.5458-.1186-.8069-.261-2.3967-1.4001-4.4375-3.3934-5.8613-5.7664-.261-.4034-.4983-.878-.4034-1.3526.1661-.9018 1.3052-1.2577 1.6374-2.112.3085-.7356-.0949-1.5662-.5695-2.20691-.7831-1.06786-1.7798-1.99333-2.91885-2.68151-.5458-.33222-1.13905-.61698-1.77976-.66444-2.87135-.14238-3.03746 4.6511-2.65777 6.52576.40341 1.9459 1.37634 3.7494 2.51539 5.3868 2.68149 3.8917 6.35969 7.1902 10.82089 8.7564 1.5662.5458 3.2511.878 4.8647.4983.8068-.1898 1.5662-.5458 2.1357-1.1628.5695-.5932.878-1.4475.7357-2.2543-.1424-.8306-.7119-1.495-1.2815-2.0883-.8305-.8543-1.756-1.6136-2.7527-2.2781-.1898-.1186-.3796-.2373-.5932-.261-.2373-.0237-.4509.0949-.6645.2136-.5932.3322-1.139.7356-1.6136 1.1865-.2136.2135-.4509.4271-.7356.4746-.0238.0237-.0475.0474-.0712.0474z" fill="#004452"/></svg>