<svg fill="none" height="32" viewBox="0 0 32 32" width="32" xmlns="http://www.w3.org/2000/svg"><path d="m15.3101 4.79034c-7.74583 0-14.02494 4.2944-14.02494 9.59146 0 5.2973 6.27911 9.5917 14.02494 9.5917 2.7133 0 5.2453-.5283 7.3919-1.4408l.5621 1.7122c.8221 2.505 2.1676 2.505 2.9897 0l2.0557-6.2624c.6591-1.1121 1.0255-2.3268 1.0255-3.6007 0-5.29706-6.2791-9.59146-14.0249-9.59146zm-4.5859 10.27746c-.74726 0-1.35309-.6055-1.35309-1.3527s.60583-1.3527 1.35309-1.3527c.7472 0 1.353.6055 1.353 1.3527s-.6058 1.3527-1.353 1.3527zm4.1967 0c-.7472 0-1.3527-.6055-1.3527-1.3527s.6055-1.3527 1.3527-1.3527 1.353.6055 1.353 1.3527-.6058 1.3527-1.353 1.3527zm4.1971 0c-.7472 0-1.3527-.6055-1.3527-1.3527s.6054-1.3527 1.3527-1.3527c.7472 0 1.3526.6055 1.3526 1.3527s-.6054 1.3527-1.3526 1.3527z" fill="#004452"/></svg>