<svg fill="none" height="86" viewBox="0 0 87 86" width="87" xmlns="http://www.w3.org/2000/svg"><path clip-rule="evenodd" d="m10.2596.502224c-.97232.092311-1.79561 1.024446-1.79136 2.007576v10.1614c0 1.0426.941 1.9766 1.97666 1.9767h19.7361v15.6283c-9.9767 17.4153-19.9739 34.8177-29.95933 52.228-.687988 1.2.322399 2.9864 1.69877 2.9958h83.08296c.7351 0 1.4343-.4487 1.7605-1.1119.3262-.6631.2625-1.5133-.1854-2.1002-10.0793-13.2423-20.148-26.4917-30.2063-39.75-.7349-.9752-2.4155-.9752-3.1504 0l-6.8875 9.0804-12.1999-21.2804v-27.8281c0-1.04251-.9412-2.007477-1.9767-2.007576h-21.7128c-.0612-.002965-.1235-.002965-.1853 0zm42.8696 52.629376c.072-.0039.1441-.0039.2161 0 .2964.0118.5863.0901.8483.2291.2619.139.4893.3352.6652.574l6.6404 8.648c.1582.2069.2741.4429.3411.6945.067.2517.0838.514.0493.7722-.0344.2581-.1193.5069-.2498.7322-.1306.2253-.3043.4226-.5111.5808-.2069.1582-.4429.2741-.6945.3411-.2517.067-.5141.0838-.7722.0493-.2581-.0344-.5069-.1192-.7322-.2498s-.4227-.3043-.5809-.5112l-6.6405-8.648c-.2272-.2826-.3724-.6223-.4195-.9818-.0472-.3595.0054-.7251.1521-1.0568.1467-.3316.3818-.6165.6795-.8234.2978-.207.6467-.3282 1.0087-.3502zm9.9452 13.1884c.1233-.0116.2474-.0116.3706 0 .2991.0035.5934.0748.8609.2085s.5012.3264.6834.5635l6.7949 8.8952c.1832.202.3227.4398.4095.6984.0869.2585.1193.5322.0952.8039-.024.2717-.104.5355-.235.7748-.1309.2392-.31.4488-.5258.6155-.2159.1667-.4639.2869-.7285.3531s-.54.077-.809.0315c-.2689-.0454-.5256-.1459-.7538-.2953-.2281-.1494-.4229-.3445-.5721-.5728l-6.8257-8.8952c-.2146-.2702-.3547-.592-.4064-.9332-.0516-.3412-.0131-.6899.1118-1.0116.125-.3217.3319-.6051.6003-.822.2685-.2169.589-.3597.9297-.4143z" fill="#004452" fill-rule="evenodd"/></svg>