<svg fill="none" height="85" viewBox="0 0 86 85" width="86" xmlns="http://www.w3.org/2000/svg"><path d="m85.2233 22.1076-10.1117 10.0873c-.5132-1.9952-1.3911-3.8782-2.5896-5.5539-.5016-.6536-1.4319-.7899-2.0999-.3078-.668.4822-.8317 1.4081-.3694 2.09 3.497 5.1228 3.4752 11.8709-.0548 16.9711l-20.0283-19.9994c-.6152-.5449-1.5403-.5449-2.1555 0-1.4134 1.4907-2.9386 2.8712-4.5623 4.1297l-.9581.7616c-2.0311 1.6888-4.2622 3.1213-6.6431 4.2652-1.6193.7297-3.9118 1.406-5.6362.4738-.8333-.4479-1.1882-.914-1.2187-1.1151 0-.0563.0671-.201.2483-.3823l5.2935-5.2828c.2285-.2041.7373-.7053 2.2606-2.2545l4.8334-4.8304c5.8914-5.8617 15.4119-5.8617 21.3033 0 .383.3954.9496.5534 1.482.4133.5324-.1402.9477-.5567 1.0863-1.0895.1387-.5327-.0209-1.0988-.4174-1.4808-.9398-.9347-1.9799-1.7628-3.1014-2.4692 2.2735-1.4218 4.3878-3.0836 6.3064-4.9568.0198-.0198.0259-.0457.0427-.0655.0167-.0198.067-.0351.096-.0625l7.8221-7.82212c.9763.61957 1.8891 1.3339 2.7252 2.13261 3.9651 3.8905 6.1008 9.62571 6.4466 16.34801zm-60.9457-21.926322c7.1486.921752 13.4579 5.125852 17.061 11.368322.2761.4843.8041.7687 1.3603.7328.5536-.0208 1.0524-.3404 1.3024-.8348 3.0116-6.00934 8.7747-10.16327 15.428-11.120085 4.6879-.766877 9.4978-.150161 13.8406 1.774645l-7.1945 7.18996c-.0183.01828-.0244.04265-.0426.06246-.0183.0198-.0655.03503-.093.06245-2.2146 2.19457-4.7588 4.02947-7.5403 5.43817-6.1574-2.2804-13.0663-1.057-18.0663 3.1989-1.9137-1.5061-4.2388-2.3973-6.669-2.5561l-15.2985-15.287779c.9851-.1337596 1.9778-.20397637 2.972-.21021494.9828-.0007037 1.9647.05983774 2.9399.18127194zm-17.76922 5.576792c2.33611-2.24775 5.18292-3.89487 8.29592-4.79991l14.9542 14.94204c-.4736.1208-.9396.2699-1.3954.4463-.505.2035-.8631.6611-.9393 1.2002-.0763.5392.1409 1.078.5697 1.4136s1.004.417 1.5091.2134c2.8503-1.152 6.0912-.7731 8.599 1.0054l-3.6773 3.6742c-1.2293 1.2537-1.9361 1.9605-2.0762 2.0824-.0427.0365-.0838.0731-.1234.1127l-5.3316 5.3224c-.8399.7485-1.2556 1.8639-1.1104 2.9796.3466 1.4942 1.379 2.7368 2.7846 3.3512 1.0463.5514 2.2143.8316 3.3969.815 1.7123-.0456 3.3956-.4521 4.9401-1.1928 2.6172-1.2462 5.0684-2.8147 7.2966-4.6689l.9398-.7433c1.3212-1.0142 2.573-2.1154 3.7473-3.2965l19.7176 19.6902c.4204.4197.6566.9894.6566 1.5835 0 .594-.2362 1.1637-.6566 1.5834-.8799.8745-2.3007.8745-3.1806 0l-15.4615-15.4371c-.383-.3954-.9496-.5534-1.482-.4132-.5323.1402-.9477.5567-1.0863 1.0894-.1387.5328.0209 1.0989.4174 1.4808l15.4615 15.4371c.4202.4195.6564.9889.6564 1.5827s-.2362 1.1632-.6564 1.5827c-.8799.8745-2.3008.8745-3.1807 0l-15.4615-15.4371c-.383-.3954-.9496-.5534-1.4819-.4132-.5324.1402-.9477.5567-1.0864 1.0894-.1386.5328.021 1.0989.4175 1.4808l15.4614 15.4371c.4203.4195.6565.9889.6565 1.5827s-.2362 1.1632-.6565 1.5827c-.8792.8762-2.3014.8762-3.1806 0l-15.4615-15.4355c-.383-.3955-.9496-.5534-1.482-.4133-.5323.1402-.9477.5567-1.0863 1.0895-.1387.5327.0209 1.0988.4174 1.4807l15.4615 15.4356c.4203.4195.6564.9889.6564 1.5827s-.2361 1.1632-.6564 1.5827c-.8792.8762-2.3015.8762-3.1807 0l-.5285-.527-5.3316-5.324-5.3315-5.3193-5.3316-5.3316-5.3315-5.3224-4.2652-4.2652c-.5986-.5765-1.5487-.5669-2.1355.0215-.5867.5885-.5936 1.5386-.0154 2.1355l3.1852 3.1806-4.7862 4.7786c-.1279.1394-.2484.2853-.361.4372-.7977-.6301-1.5571-1.3072-2.2743-2.0275-.1524-.1523-3.6179-3.8463-1.7412-11.3348 1.0801-4.3003-.821-9.4125-5.64987-15.1965-.01828-.0213-.04265-.0289-.06093-.0487s-.0198-.0381-.03656-.0533l-8.21819-8.206c.93344-3.4978 2.75657-6.69431 5.29193-9.27843zm39.15792 62.22973-3.7184 3.7108c-.8792.8761-2.3014.8761-3.1806 0-.4207-.4193-.6571-.9888-.6571-1.5827 0-.594.2364-1.1635.6571-1.5827l3.7229-3.7169 1.9072 1.9041zm-23.96-14.3586 4.7893-4.7816 3.176 3.1715-2.4707 2.4662-2.3155 2.3109c-.8793.8743-2.2997.8743-3.1791 0-.4202-.4195-.6564-.989-.6564-1.5828s.2362-1.1632.6564-1.5827zm4.2653 6.3872 5.8555-5.8449 3.1761 3.17-1.7838 1.7807-4.0687 4.0627c-.8794.8743-2.2998.8743-3.1791 0-.4204-.4198-.6566-.9895-.6566-1.5835 0-.5941.2362-1.1637.6566-1.5835zm5.8647 4.7908 5.3223-5.3133 3.1761 3.17-3.0466 3.0466-2.2636 2.2606c-.8794.8743-2.2997.8743-3.1791 0-.4203-.4195-.6565-.9889-.6565-1.5827s.2362-1.1633.6565-1.5828zm46.6311-15.1477c-7.1869 15.1126-26.8374 29.3814-35.8249 35.3405-8.9874-5.9591-28.638-20.2279-35.84317-35.3786-5.65752-11.1048-7.784046-22.2142-6.381089-31.0752l6.822849 6.8228c2.85311 3.432 6.00791 8.3507 4.98121 12.4377-2.31696 9.251 2.3352 14.025 2.5332 14.2231 1.0164 1.0292 2.1142 1.9747 3.2827 2.8272-.0076.1188-.035.2346-.035.3549-.0041 1.4038.5544 2.7507 1.5507 3.7397.7773.7733 1.7771 1.2841 2.8592 1.4609-.0953.3885-.1464.7866-.1523 1.1866-.0043 1.4038.5543 2.7508 1.5507 3.7397.9947.9935 2.3445 1.5495 3.7504 1.5446.204-.0081.4074-.0274.6093-.0579.2048 2.7446 2.4986 4.8627 5.2508 4.8487.6136-.0054 1.2217-.1167 1.7975-.329.4454 1.8603 1.8611 3.3348 3.7018 3.8555s3.819.0062 5.1729-1.3451l3.7793-3.7717c1.5998 1.1958 3.7376 1.3859 5.5232.4912 1.7857-.8948 2.9131-2.7211 2.9129-4.7184 0-.0137 0-.0274 0-.0426h.0426c1.4028.0016 2.7488-.5543 3.7416-1.5454s1.5511-2.3361 1.5519-3.7389c0-.0138 0-.0275 0-.0427h.0426c1.4028.0016 2.7488-.5543 3.7416-1.5454s1.5511-2.3361 1.5519-3.7389c0-.0137 0-.0274 0-.0427h.0426c1.756.0055 3.3997-.863 4.3848-2.3167.985-1.4537 1.1823-3.3022.5263-4.9311 2.5985-3.4415 3.9218-7.6782 3.7443-11.9868l9.5297-9.5054c-.634 8.1261-2.9287 16.0357-6.7421 23.2394z" fill="#004452"/></svg>