<svg fill="none" height="32" viewBox="0 0 32 32" width="32" xmlns="http://www.w3.org/2000/svg"><path d="m15.9999 5.33331c-2.1096 0-4.1719.62559-5.9261 1.79766-1.75408 1.17207-3.12126 2.83797-3.92859 4.78703-.80734 1.9491-1.01857 4.0938-.607 6.1629.41158 2.0692 1.42748 3.9698 2.91924 5.4615 1.49176 1.4918 3.39235 2.5077 5.46155 2.9193 2.0691.4116 4.2138.2003 6.1629-.607s3.615-2.1745 4.787-3.9286c1.1721-1.7542 1.7977-3.8165 1.7977-5.9261 0-2.829-1.1238-5.5421-3.1242-7.54249s-4.7135-3.1242-7.5425-3.1242zm-.1452 17.68399c-.2415 0-.4776-.0716-.6784-.2058s-.3573-.3249-.4497-.548-.1166-.4686-.0695-.7054c.0472-.2369.1634-.4544.3342-.6252.1708-.1707.3883-.287.6252-.3341.2368-.0472.4823-.023.7054.0694.2231.0925.4138.2489.548.4497s.2058.4369.2058.6784c-.0006.3236-.1295.6338-.3583.8627-.2289.2288-.5391.3577-.8627.3583zm1.3344-5.928s-.1202.0432-.1202.1135v.9691c0 .3223-.1281.6314-.356.8594-.2279.2279-.537.3559-.8594.3559-.3223 0-.6314-.128-.8593-.3559-.2279-.228-.356-.5371-.356-.8594v-.9691c.0054-.5377.1793-1.0601.4973-1.4938.3179-.4336.764-.7565 1.2752-.9232.3525-.1177.6576-.346.8699-.6511.2122-.3051.3202-.6705.308-1.042-.0236-.4491-.217-.8724-.5411-1.1843-.324-.3118-.7545-.4888-1.2042-.4951-.3237.0014-.6405.0942-.9139.2676-.2735.1735-.4924.4205-.6316.7128-.0693.1438-.1662.2726-.2853.3789-.119.1064-.2579.1882-.4085.2409-.3044.1064-.6385.0876-.9289-.0524-.2904-.1399-.5134-.3895-.6198-.6938s-.0875-.6385.0524-.9289c.3351-.7023.8614-1.2959 1.5186-1.71255.6571-.41669 1.4185-.63962 2.1966-.64318h.025c1.081.00627 2.1178.4297 2.8942 1.18193.7763.7523 1.2322 1.7752 1.2726 2.8555.0301.8915-.2284 1.769-.7371 2.5017-.5087.7328-1.2404 1.2818-2.0862 1.5653z" fill="#004452"/></svg>