<svg fill="none" height="132" viewBox="0 0 147 132" width="147" xmlns="http://www.w3.org/2000/svg"><g fill="#007f87"><path d="m58.818 93.1986c.0596.2102.0703.4316.0311.6467s-.1272.4181-.257.5927c-.1298.1748-.2979.3164-.491.4139-.193.0975-.4058.1482-.6215.1479h-22.6488c-.3276.0007-.6449-.1162-.8958-.33-.2508-.2138-.419-.5107-.4747-.8382-.4182-2.4343-1.4928-7.9293-2.8311-9.1954-2.0976-1.971-6.9877-.7897-9.9989-.6657-7.5411.3981-5.2183-6.0042-6.8333-11.6167-1.2804-4.4248-4.89651-3.4459-4.73565-6.572.09652-1.9056 5.19895-4.3595 5.21185-10.3441.0064-1.6837-.296-4.2551-.3475-6.0106-.341-11.2252 8.667-19.8398 20.3968-21.7455-1.4112 4.2391-1.4314 8.8277-.0577 13.0794 1.3738 4.2517 4.0677 7.9381 7.6788 10.5077 3.6112 2.5697 7.9454 3.8845 12.3546 3.7478 4.4091-.1367 8.6561-1.7175 12.1058-4.5061.9266 8.1905-1.8273 14.9843-7.7469 22.7766-1.5442 2.0362-2.3099 5.5734-2.1491 8.1382.2574 4.1175 1.5571 9.1427 2.31 11.7734z"/><path d="m53.6837 15c-3.7223-.0005-7.3612 1.1186-10.4564 3.2157-3.0953 2.0972-5.5078 5.0783-6.9327 8.5662-1.4248 3.4879-1.7978 7.3261-1.072 11.0291.7259 3.703 2.5181 7.1045 5.15 9.7744 2.6319 2.6698 5.9852 4.4881 9.636 5.2248 3.6507.7368 7.4349.3589 10.8739-1.0858s6.3784-3.8913 8.4465-7.0305c2.068-3.1391 3.1718-6.8298 3.1718-10.6053 0-5.0622-1.9824-9.917-5.5112-13.4968-3.5289-3.5797-8.3151-5.5911-13.3059-5.5918zm0 32.8035c-2.632 0-5.2049-.7916-7.3933-2.2748-2.1884-1.4831-3.894-3.5911-4.9012-6.0575-1.0072-2.4663-1.2708-5.1802-.7573-7.7985s1.7809-5.0233 3.642-6.911c1.861-1.8877 4.2322-3.1732 6.8136-3.694s5.2571-.2535 7.6887.7681 4.51 2.7516 5.9722 4.9713c1.4623 2.2196 2.2427 4.8293 2.2427 7.4988 0 3.5798-1.402 7.013-3.8976 9.5443-2.4957 2.5312-5.8805 3.9533-9.4098 3.9533z"/><path d="m53.6835 25.8789c-1.6432 0-3.2494.4942-4.6157 1.4202-1.3662.9259-2.4311 2.242-3.0599 3.7817-.6288 1.5398-.7933 3.2341-.4728 4.8688.3206 1.6346 1.1119 3.1361 2.2737 4.3146 1.1619 1.1784 2.6423 1.981 4.2539 2.3062 1.6116.3251 3.282.1582 4.8001-.4796s2.8156-1.7178 3.7285-3.1036 1.4002-3.015 1.4002-4.6816c0-2.2349-.8753-4.3783-2.4334-5.9586-1.558-1.5803-3.6712-2.4681-5.8746-2.4681zm0 11.3172c-.5636 0-1.1146-.1696-1.5833-.4872-.4686-.3176-.8339-.769-1.0495-1.2972-.2157-.5281-.2722-1.1093-.1622-1.67.1099-.5607.3814-1.0757.7799-1.48.3985-.4042.9063-.6795 1.4591-.791.5528-.1116 1.1258-.0543 1.6465.1644.5208.2188.9658.5893 1.279 1.0646.3131.4754.4802 1.0342.4802 1.6059 0 .3796-.0737.7554-.2169 1.1061s-.3531.6694-.6177.9378c-.2647.2684-.5788.4813-.9246.6265-.3457.1453-.7163.2201-1.0905.2201z"/></g><path clip-rule="evenodd" d="m140.36 2.15662c17.591 53.21878-11.29 110.62138-64.5091 128.21238l.3139.95c53.7432-17.765 82.9092-75.7331 65.1452-129.47623zm-48.2037 99.74438c-22.5892 22.589-59.2135 22.589-81.8027 0l-.70712.707c22.97972 22.98 60.23722 22.98 83.21692 0z" fill="#01d0d9" fill-rule="evenodd"/></svg>