<svg fill="none" height="85" viewBox="0 0 85 85" width="85" xmlns="http://www.w3.org/2000/svg"><path d="m42.5 0c-23.4754 0-42.5 19.0246-42.5 42.5s19.0246 42.5 42.5 42.5 42.5-19.0246 42.5-42.5-19.0246-42.5-42.5-42.5zm20.4209 39.4456-8.9887 8.7269 2.0945 12.3049c.0873.6109-.1745 1.2218-.6982 1.6581-.2618.1746-.6108.3491-.9599.3491-.2618 0-.5236-.0873-.7854-.1745l-10.9959-5.8471-11.0832 5.8471c-.5236.2618-1.2218.2618-1.7454-.0873s-.7854-.96-.6981-1.6581l2.0944-12.3049-8.9887-8.7269c-.4363-.4364-.6109-1.1345-.4363-1.6582.1745-.6108.6981-1.0472 1.309-1.1344l12.3922-1.8327 5.498-11.2577c.5236-1.1345 2.4435-1.1345 2.9671 0l5.498 11.2577 12.3921 1.8327c.6109.0872 1.1345.5236 1.3091 1.1344.4363.5237.2618 1.1345-.1746 1.5709z" fill="#004452"/></svg>