<svg fill="none" height="130" viewBox="0 0 137 130" width="137" xmlns="http://www.w3.org/2000/svg"><path clip-rule="evenodd" d="m130.714.313845c17.591 53.218755-11.291 110.621155-64.5096 128.213155l.3139.949c53.7427-17.764 82.9097-75.7329 65.1447-129.476zm-48.2042 99.744155c-22.5892 22.589-59.2135 22.589-81.802693 0l-.707107.707c22.9797 22.98 60.2372 22.98 83.2169 0z" fill="#01d0d9" fill-rule="evenodd"/><g fill="#007f87"><path d="m62.5817 78.9574c-.176-2.815.7038-6.7736 2.4632-8.9728 6.95-8.9728 10.0291-16.802 8.6215-26.3906-2.3753-15.5704-13.372-23.7515-28.5915-24.5432-16.7151-.8797-30.9669 9.7645-30.527 24.4552.088 1.9354.4399 4.7503.3519 6.6857 0 6.5976-5.80626 9.3246-5.89424 11.4359-.17595 3.4307 3.87084 2.3751 5.36644 7.3014 1.8474 6.2457-.7918 13.2832 7.7417 12.8434 3.431-.176 8.8853-1.4075 11.2606.7037 1.4956 1.4075 2.7272 7.4773 3.1671 10.2044.088.3518.2639.7037.5278.9676.264.2639.6159.3519.9678.3519h25.5124c.2639 0 .5278-.088.7038-.1759.1759-.088.4399-.2639.5278-.4399.176-.1759.2639-.4398.2639-.6158.088-.2639 0-.5278 0-.7037-.7037-2.9909-2.1113-8.533-2.4632-13.1073zm-18.5625-15.1306c-3.1671 0-6.3341-.9677-8.9734-2.727-2.6392-1.7594-4.7506-4.3105-5.9822-7.2135-1.2316-2.9909-1.5835-6.2457-.8797-9.3246.6158-3.1669 2.1993-5.9819 4.3987-8.2691 2.2873-2.2872 5.1904-3.7826 8.2695-4.3984 3.1671-.6158 6.4221-.2639 9.4132.8797 2.9911 1.2315 5.4544 3.2548 7.3019 5.9818 1.7594 2.6391 2.7272 5.806 2.7272 8.9728 0 2.1113-.4399 4.2225-1.2317 6.1578-.7917 1.9353-2.0234 3.7827-3.5189 5.2782-1.4956 1.4954-3.2551 2.727-5.2785 3.5187s-4.1347 1.1436-6.2461 1.1436z"/><path d="m41.2567 51.2166h.0812c.0812 0 .0812 0 .1623-.0812l1.2176-1.2175c.0812-.0812.0812-.1623.0812-.1623 0-.0812-.0812-.1624-.1624-.1624-.4058-.1623-.8117-.4058-1.1364-.7305-1.1363-1.1364-1.1363-2.9221 0-4.0585l5.5196-5.5196c.5682-.5681 1.2175-.8117 2.0292-.8117s1.4611.3247 2.0293.8117c1.1364 1.1364 1.1364 2.9222 0 4.0585l-1.5422 1.5423c-.0812.0811-.0812.1623-.0812.1623.1623.6494.2435 1.2987.2435 2.0293 0 .0811.0812.1623.0812.1623.0811 0 .1623 0 .2435-.0812l2.5162-2.5162c.8929-.8929 1.4611-2.1916 1.4611-3.4903 0-1.2988-.487-2.5163-1.4611-3.4903-.8928-.8929-2.1915-1.4611-3.4903-1.4611-1.2987 0-2.5162.487-3.4903 1.4611l-5.5195 5.5195c-1.9481 1.9481-1.9481 5.0325 0 6.8994.4058.6494.8117.8929 1.2175 1.1364z"/><path d="m38.091 57.223c1.2987 0 2.5163-.487 3.4903-1.461l5.5196-5.5196c.8117-.8117 1.2987-1.948 1.3798-3.0844v-.0812c0-.5682 0-1.0552-.1623-1.6234v-.0811c-.2435-.7306-.6494-1.4611-1.2175-2.0293-.3247-.3247-.7306-.6494-1.2176-.8929-.0812-.0811-.1623 0-.2435 0l-1.2175 1.2176c-.0812.0812-.0812.1623-.0812.1623 0 .0812.0812.1624.1623.1624.4059.1623.8117.4058 1.1364.7305.5682.5682.8117 1.2175.8117 2.0292 0 .7306-.3247 1.4611-.8117 2.0293l-5.5195 5.5195c-.5682.5682-1.2176.8117-2.0293.8117-.7305 0-1.461-.3247-2.0292-.8117-1.1364-1.1363-1.1364-2.9221 0-4.0585l1.5422-1.5422c.0812-.0812.0812-.1623.0812-.1623-.1624-.6494-.2436-1.2987-.2436-2.0293 0-.0811-.0811-.1623-.0811-.1623-.0812 0-.1624 0-.2435.0812l-2.5163 2.5162c-1.9481 1.9481-1.9481 5.0326 0 6.8995.8929.8928 2.1104 1.3798 3.4903 1.3798z"/></g></svg>