<svg fill="none" height="132" viewBox="0 0 140 132" width="140" xmlns="http://www.w3.org/2000/svg"><g fill="#007f87"><path d="m62.5816 79.4991c-.1711-2.7378.6454-6.5185 2.2971-8.6916 6.5876-8.6693 9.5081-16.1799 8.1293-25.4244-.0199-.1296-.0392-.2579-.0598-.3848-.0671-.422-.2803-.806-.6012-1.0831s-.7287-.4292-1.1502-.4291h-52.3306c-.2345-.0017-.467.0442-.6838.1348-.2168.0907-.4136.2244-.5788.3932-.1652.1689-.2954.3695-.3832.5901-.0877.2206-.1311.4567-.1276.6946v.0188c.0571 1.8698.3794 4.6222.3719 6.4202-.0145 6.3889-5.4651 9.0137-5.5675 11.0467-.1719 3.3387 3.6945 2.2957 5.0582 7.0191 1.7314 5.9956-.7499 12.8341 7.3065 12.4096 3.214-.1311 8.4386-1.3944 10.6773.7146 1.4276 1.3469 2.5768 7.2219 3.0243 9.8224.0606.3495.2408.6662.5091.8941.2682.2279.6071.3525.957.3517h24.1947c.2308.0006.4586-.0534.6653-.1576s.3867-.2558.5256-.4428.233-.4042.2748-.6344c.0418-.2303.0302-.4673-.0339-.6922-.8084-2.8047-2.1996-8.1715-2.4745-12.5699z"/><path d="m46.2967 43.4765c-1.2729.0257-2.5378-.2089-3.7193-.6898s-2.2554-1.1983-3.1577-2.1093c-1.7121-1.7719-2.6697-4.1548-2.6668-6.6358.003-2.481.9663-4.8616 2.6826-6.6292 1.4209-1.4382 3.3462-2.2459 5.3534-2.2459 2.0073 0 3.9326.8077 5.3535 2.2459 1.1653 1.184 1.8198 2.7888 1.8198 4.4618 0 1.6731-.6545 3.2778-1.8198 4.4619-.9646.9764-2.2717 1.5248-3.6344 1.5248s-2.6698-.5484-3.6344-1.5248c-.8013-.814-1.2514-1.9172-1.2514-3.0675s.4501-2.2536 1.2514-3.0676c.6727-.6809 1.5843-1.0634 2.5347-1.0634.9503 0 1.8619.3825 2.5346 1.0634.5674.5769.8861 1.3586.8861 2.1735s-.3187 1.5965-.8861 2.1734c-.1535.1557-.3615.2432-.5786.2432-.217.0001-.4251-.0873-.5786-.2429s-.2398-.3666-.2398-.5867c-.0001-.2202.0861-.4313.2395-.587.2611-.2654.4077-.6251.4077-1 0-.375-.1466-.7347-.4077-1.0001-.3655-.37-.8608-.5778-1.3771-.5778-.5164 0-1.0117.2078-1.3772.5778-.4941.5024-.7717 1.1831-.7717 1.8928s.2776 1.3904.7717 1.8928c.6573.6658 1.5483 1.0398 2.4773 1.0398.9289 0 1.8199-.374 2.4772-1.0398.8582-.8728 1.3402-2.0552 1.3402-3.2879s-.482-2.415-1.3402-3.2878c-1.114-1.1267-2.6231-1.7595-4.1963-1.7595s-3.0823.6328-4.1963 1.7595c-1.413 1.4631-2.2031 3.4304-2.2001 5.4785.0029 2.0481.7987 4.0131 2.2159 5.4719 2.368 2.5391 6.7429 3.0439 9.9577 1.1504.1876-.111.4111-.1418.6211-.0856.2101.0561.3895.1946.4989.385.1094.1903.1397.417.0844.63-.0554.2131-.1919.3951-.3796.506-1.5513.898-3.3085 1.3657-5.0946 1.356z"/><path d="m53.1924 40.1873c-.1589-.0008-.3141-.0485-.4467-.1373-.1326-.0887-.2368-.2147-.3001-.3625-.0632-.1478-.0827-.3111-.0561-.4699.0267-.1589.0984-.3064.2063-.4247.3385-.3558.6307-.7541.8695-1.1852.0524-.0963.1231-.181.2081-.2494.085-.0683.1826-.1188.287-.1485s.2136-.0381.3212-.0246c.1077.0135.2116.0485.3057.1031.0942.0546.1767.1277.2428.2149.066.0872.1143.1869.1421.2932.0277.1064.0343.2173.0194.3262-.0149.109-.051.2138-.1063.3085-.3026.5427-.6706 1.045-1.0956 1.4954-.0766.0827-.1691.1486-.2719.1934-.1028.0449-.2135.0678-.3254.0674z"/><path d="m65.4353 41.0665c-1.2317.0005-2.4296-.4088-3.41-1.165-.4931-.3774-.9081-.8497-1.2213-1.3899s-.5183-1.1376-.6038-1.7582c-.0855-.6207-.0496-1.2523.1057-1.8588.1552-.6065.4268-1.1761.7991-1.6762.6279-.8422 1.5599-1.3971 2.5911-1.5425 1.0312-.1453 2.0771.1306 2.9077.7673.6991.5361 1.1597 1.3319 1.2805 2.2125.1208.8805-.1082 1.7736-.6365 2.4829-.2223.2984-.5004.5495-.8184.7388-.318.1894-.6697.3133-1.0349.3648s-.7369.0295-1.0937-.0648c-.3569-.0943-.6919-.2589-.986-.4845-.1732-.1328-.2873-.3299-.3172-.548-.0299-.218.0268-.4392.1577-.6149s.3252-.2914.5402-.3217c.2151-.0303.4331.0272.6063.16.2479.1897.5598.2719.8674.2287.3076-.0433.5857-.2085.7733-.4595.2666-.3582.3821-.8091.321-1.2536s-.2938-.8462-.6468-1.1168c-.2398-.184-.513-.3183-.804-.3952-.2909-.0769-.594-.0949-.8919-.0529-.2978.0419-.5846.143-.8439.2974s-.4861.3592-.6674.6025c-.4902.6583-.7025 1.4871-.5904 2.3042s.5396 1.5556 1.1884 2.0531c.423.3245.9049.5612 1.4181.6968.5132.1355 1.0477.1671 1.573.0931.5252-.0741 1.031-.2524 1.4883-.5248s.8572-.6335 1.1768-1.0627c.8272-1.1358 1.1815-2.5555.9869-3.9537-.1946-1.3981-.9227-2.6629-2.0275-3.522-.6829-.5111-1.4735-.8546-2.3094-1.0034-.836-.1488-1.6945-.0988-2.5082.1459-.7665.1757-1.4823.5291-2.0915 1.0326-.6092.5034-1.095 1.1431-1.4195 1.869-.0807.2043-.2381.3677-.4376.4544-.1994.0866-.4247.0893-.6261.0075-.2014-.0819-.3626-.2415-.448-.4438s-.088-.4308-.0074-.6351c.4134-.9705 1.0464-1.8284 1.8479-2.5042s1.7487-1.1504 2.7649-1.3853c1.0605-.3103 2.1774-.3664 3.2629-.164s2.1097.6578 2.992 1.3304c1.4398 1.1277 2.3856 2.7835 2.6341 4.6113s-.2203 3.6814-1.3054 5.1623c-.4478.6046-1.0094 1.1131-1.6523 1.4961-.6429.3829-1.3544.6327-2.0931.7348-.2622.0365-.5265.0549-.7911.0551z"/><path d="m58.3089 26.7055c-.8854-.0031-1.7429-.3149-2.4285-.8832s-1.1576-1.3586-1.3368-2.2381c-.1716-.8545-.0022-1.7432.471-2.4714.4732-.7281 1.2117-1.2363 2.0536-1.4132.717-.1495 1.4631-.0041 2.0744.4041.6113.4083 1.0378 1.0461 1.1857 1.7732.1265.6249.0033 1.2752-.3427 1.808-.3459.5328-.8862.9046-1.5021 1.0336-.1053.022-.2138.0227-.3193.0022-.1055-.0206-.206-.062-.2958-.122-.0897-.0599-.1669-.1372-.2272-.2274s-.1025-.1916-.1241-.2984c-.0217-.1067-.0224-.2167-.0022-.3238.0203-.107.0612-.2089.1203-.3.0591-.091.1353-.1693.2242-.2305.089-.0611.1889-.1039.2942-.1259.1907-.0401.358-.1553.4651-.3204s.1452-.3665.106-.5601c-.0602-.2959-.2337-.5554-.4824-.7217s-.5523-.2256-.8442-.1651c-.4177.0878-.7841.34-1.0187.7014-.2346.3613-.3184.8023-.2329 1.2263.1192.5831.4618 1.0944.9524 1.4216s1.0892.4435 1.6643.3234c.7724-.1623 1.4497-.6286 1.8836-1.2967.4338-.6681.5887-1.4835.4307-2.2672-.2215-1.0314-.8336-1.9333-1.7043-2.5113-.8708-.5781-1.9306-.7861-2.9511-.5793-.6201.1382-1.2001.4205-1.6945.8245-.4943.404-.8895.9189-1.1546 1.5041-.2807.5214-.4386 1.1016-.4612 1.6953-.0227.5936.0905 1.1845.3307 1.7264.0926.1957.1061.4204.0373.6261-.0687.2056-.2141.3757-.405.4739-.191.0982-.4122.1167-.6164.0514s-.375-.2091-.4759-.4006c-.361-.7716-.5377-1.6186-.5159-2.4724.0219-.8538.2417-1.6904.6417-2.4419.3796-.8169.941-1.5331 1.6402-2.0921.6991-.5591 1.5167-.9458 2.3884-1.1296 1.4407-.2842 2.9339.0168 4.1579.8383s2.081 2.0978 2.3863 3.5539c.2449 1.215.0047 2.479-.6679 3.5146s-1.7228 1.7584-2.92 2.0098c-.2581.0535-.5209.0804-.7843.0802z"/><path d="m56.1565 36.3696c-.1511-.0001-.2993-.0426-.4281-.1229-.1287-.0803-.233-.1952-.3013-.332-.0683-.1367-.0979-.29-.0855-.4428s.0663-.2991.1558-.4227c.5753-.7983.767-1.0263.7993-1.0639.0698-.0855.1558-.156.2529-.2072.0971-.0513.2033-.0822.3124-.0911s.2188.0045.3227.0394.1998.0905.2822.1637c.0823.0731.1493.1623.1971.2622.0477.0998.0753.2084.081.3193.0056.1108-.0107.2217-.048.3261-.0373.1043-.0948.2-.1692.2814-.0034.0042-.1739.2092-.71.9503-.076.1056-.1755.1915-.2904.2506s-.242.0898-.3709.0896z"/><path d="m36.8763 40.5449c-.1507-.0002-.2985-.0427-.4268-.1228-.5274-.3204-1.0134-.7061-1.4469-1.1482-.1487-.1565-.231-.366-.2291-.5833.0018-.2174.0877-.4254.239-.5793.1514-.1539.3562-.2414.5705-.2438s.421.0805.5757.231c.3423.3507.7276.6553 1.1465.9063.153.0942.2713.2367.3369.4057.0655.1689.0747.355.026.5298-.0486.1747-.1524.3284-.2954.4376s-.3174.1678-.4964.167z"/><path d="m23.9202 41.7302c-.2654 0-.5304-.0186-.7932-.0558-.7387-.1021-1.4502-.3519-2.0931-.7348-.6429-.383-1.2045-.8915-1.6523-1.4962-1.0856-1.4805-1.555-3.3341-1.307-5.162.2479-1.828 1.1934-3.4841 2.6329-4.6123.8825-.6721 1.9068-1.1273 2.9922-1.3297 1.0853-.2024 2.2022-.1465 3.2627.1634 1.0161.235 1.9633.7097 2.7648 1.3855.8014.6758 1.4346 1.5336 1.848 2.504.04.1012.0599.2093.0587.3183s-.0236.2167-.0658.3169c-.0423.1002-.1036.191-.1804.2672-.0769.0762-.1678.1362-.2675.1768-.0998.0406-.2064.0608-.3138.0596-.1075-.0013-.2137-.024-.3125-.0668-.0988-.0429-.1883-.1051-.2634-.183-.0751-.078-.1343-.1702-.1743-.2713-.3245-.7259-.8104-1.3656-1.4196-1.8691-.6091-.5034-1.325-.8568-2.0914-1.0325-.8136-.2452-1.6722-.2954-2.5082-.1467s-1.6266.4922-2.3094 1.0035c-1.1051.8597-1.833 2.1252-2.0271 3.5239-.1941 1.3988.1611 2.8189.9892 3.9546.6459.8663 1.6046 1.437 2.6653 1.5866 1.0606.1496 2.1364-.1343 2.9909-.789.6488-.4975 1.0763-1.236 1.1884-2.0531s-.1002-1.6459-.5904-2.3042c-.1813-.2433-.4081-.4481-.6674-.6025s-.546-.2555-.8438-.2975c-.2979-.042-.6009-.0241-.8919.0526-.291.0768-.5642.211-.8041.3949-.1749.1339-.322.3015-.4331.4931-.111.1916-.1837.4035-.2139.6236-.0303.2202-.0175.4442.0376.6593s.1515.417.2836.5944c.0925.1248.2084.2298.341.309.1327.0792.2794.131.4319.1525s.3076.0123.4565-.0272.2887-.1084.4113-.2029c.1735-.1281.3896-.1819.6018-.15.2123.0319.4037.1471.5331.3207.1293.1736.1863.3918.1587.6076-.0277.2159-.1378.412-.3066.5464-.2943.2253-.6295.3896-.9865.4836-.357.0939-.7287.1156-1.0939.0638s-.7168-.1761-1.0347-.3657-.5958-.4409-.8179-.7395c-.5283-.7093-.7573-1.6024-.6365-2.483.1208-.8805.5814-1.6763 1.2805-2.2124.8308-.6364 1.8767-.9122 2.9078-.7667 1.0312.1455 1.9631.7004 2.591 1.5426.3725.4998.6443 1.0691.7999 1.6754.1555.6063.1918 1.2378.1067 1.8583-.0851.6206-.2898 1.218-.6026 1.7583-.3128.5402-.7274 1.0127-1.2202 1.3904-.9807.7574-2.1794 1.1674-3.412 1.1671z"/><path d="m33.4818 37.3457c-.2078.0004-.4079-.0796-.5595-.2238-.4198-.3936-.7779-.8499-1.0619-1.3532-.0507-.0961-.0822-.2014-.0928-.3099-.0105-.1085.0001-.218.0313-.3224.0311-.1043.0823-.2014.1504-.2857.0682-.0842.1521-.1541.2469-.2055.0947-.0514.1986-.0834.3055-.0941.107-.0107.215.0001.3178.0317.1029.0316.1986.0835.2817.1526.0831.0692.1519.1542.2026.2504.2025.3417.4512.6528.7389.9244.1199.1138.2033.2615.2393.4239.036.1625.0229.3321-.0374.487-.0604.1548-.1653.2877-.301.3812-.1358.0936-.2962.1435-.4604.1434z"/><path d="m53.5098 29.6628c-.0338 0-.0675-.0021-.101-.0063-.1067-.0132-.2098-.0476-.3034-.1012-.0936-.0537-.1758-.1256-.2419-.2115-.0662-.0859-.1149-.1843-.1436-.2893-.0286-.1051-.0365-.2149-.0232-.3231.0083-.455-.0346-.9095-.1279-1.3546-.0387-.2165.0089-.4398.1325-.6207.1235-.1809.3129-.3045.5263-.3438.2135-.0393.4336.009.612.1343.1783.1253.3002.3174.339.5339.1328.6079.1804 1.2317.1416 1.8531-.024.2009-.1197.386-.269.5204-.1492.1343-.3418.2086-.5414.2088z"/><path d="m31.0478 27.3685c-.2635.0001-.5263-.0272-.7842-.0816-1.1973-.2512-2.2474-.9738-2.92-2.0093-.6726-1.0356-.9129-2.2994-.668-3.5143.3056-1.456 1.1627-2.732 2.3866-3.5535 1.224-.8214 2.717-1.1226 4.1577-.8387.8716.1836 1.6892.5702 2.3883 1.1292.6991.5589 1.2606 1.275 1.6402 2.0917.4.7516.6198 1.5882.6417 2.442.0218.8538-.1549 1.7008-.5159 2.4724-.1009.1915-.2717.3353-.4759.4005-.2042.0653-.4254.0469-.6163-.0513-.191-.0982-.3364-.2683-.4051-.474-.0687-.2056-.0553-.4304.0374-.6261.2401-.5418.3533-1.1327.3306-1.7264-.0226-.5936-.1805-1.1739-.4612-1.6953-.265-.5851-.6603-1.0998-1.1546-1.5038-.4944-.4039-1.0744-.686-1.6945-.824-1.0206-.2072-2.0805.0006-2.9514.5788-.8708.5781-1.4828 1.4802-1.704 2.5117-.158.7837-.003 1.599.4308 2.267.4339.6679 1.1112 1.1341 1.8835 1.2963.285.0596.5788.0616.8646.006s.558-.1678.801-.3302c.2431-.1624.4521-.3718.6153-.6162s.2773-.519.3358-.8081c.0855-.424.0018-.865-.2329-1.2264-.2346-.3613-.601-.6136-1.0187-.7013-.2918-.06-.5951-.0004-.8437.1658s-.4222.4254-.4829.721c-.0195.0958-.0202.1946-.0021.2908.0182.0961.0548.1877.1079.2694.053.0818.1214.1522.2013.2071.0798.055.1696.0934.2641.1132.1052.022.2052.0648.2941.1259.089.0612.1652.1395.2243.2305s.0999.193.1202.3c.0202.107.0195.2171-.0021.3238-.0217.1068-.0639.2082-.1242.2984s-.1375.1675-.2272.2274c-.0898.06-.1903.1014-.2958.122-.1055.0205-.214.0198-.3193-.0022-.6159-.129-1.1562-.5008-1.5021-1.0336s-.4692-1.1831-.3427-1.8081c.1492-.7263.576-1.3631 1.1869-1.7712.611-.408 1.3564-.554 2.0732-.406.8427.1769 1.5817.6856 2.055 1.4145s.6422 1.6185.4696 2.4736c-.1785.8799-.6503 1.6707-1.336 2.2394-.6857.5686-1.5435.8805-2.4293.8832z"/><path d="m35.4263 29.8951c-.2151.0009-.422-.0846-.5752-.2378-.1533-.1533-.2405-.3618-.2427-.58.026-.6527.1416-1.2984.3437-1.9186.0297-.1056.0798-.2042.1474-.29s.1513-.1571.2462-.2099c.095-.0527.1993-.0858.307-.0973.1077-.0116.2165-.0013.3203.0302.1037.0315.2002.0835.284.1531.0837.0696.153.1554.2038.2523.0508.097.0822.2033.0922.3126s-.0015.2196-.0338.3244c-.1505.4645-.2429.9463-.2749 1.4341-.0025.219-.0896.4282-.2425.5828-.153.1546-.3595.2422-.5755.2441z"/><path d="m43.2743 21.2173c-.1544-.0001-.3056-.0445-.4362-.128s-.2353-.2028-.302-.344c-.3974-.8015-.9679-1.5018-1.6689-2.049-.689-.5651-1.2475-1.2766-1.6361-2.0844-.3886-.8077-.5978-1.6921-.6129-2.5908-.0263-.7873.1227-1.5706.436-2.2914.3134-.7208.7829-1.3607 1.3738-1.87206 1.1043-.98121 2.5445-1.48312 4.0102-1.39757 1.4656.08554 2.8395.75169 3.8256 1.85493.4039.4577.7149.9916.9153 1.5712s.2862 1.1936.2527 1.8069c-.0336.6133-.186 1.2138-.4484 1.7674-.2624.5535-.6298 1.0492-1.0812 1.4588-.3768.3425-.8165.6063-1.294.7763-.4774.17-.9833.2428-1.4885.2143s-1-.1577-1.4559-.3804c-.456-.2226-.8642-.5342-1.2012-.917-.2843-.3221-.5032-.6979-.6443-1.1058-.141-.408-.2014-.8402-.1778-1.2718.0237-.4317.131-.8543.3158-1.2439s.4435-.7384.7613-1.0265c.27-.2452.585-.434.927-.5556.342-.1217.7043-.1738 1.0661-.1534.3619.0204.7162.1129 1.0428.2722.3266.1594.6191.3824.8607.6564.4186.4757.6342 1.1005.5994 1.7372s-.3171 1.2335-.785 1.6594c-.0797.0751-.1733.1334-.2755.1714-.1021.0379-.2106.0549-.3193.0499-.1087-.0051-.2152-.032-.3135-.0793s-.1863-.114-.2589-.1962c-.0725-.0822-.1282-.1782-.1638-.2825-.0356-.1042-.0503-.2146-.0433-.3247s.0355-.2177.0839-.3165c.0485-.0988.1158-.1868.1982-.2589.0721-.0651.1308-.1441.1727-.2323.042-.0882.0664-.184.0718-.2818.0055-.0977-.0082-.1957-.0401-.2881-.032-.0924-.0816-.1776-.146-.2505-.0983-.1117-.2173-.2026-.3502-.2676-.133-.065-.2773-.1027-.4246-.1111-.1474-.0083-.2949.0129-.4342.0624-.1392.0496-.2675.1265-.3774.2264-.1575.1429-.2858.3158-.3774.509s-.1448.4028-.1566.6168c-.0117.214.0182.4283.0882.6306.0699.2023.1784.3886.3193.5484.392.4442.9419.7123 1.5288.7454.5868.0331 1.1626-.1716 1.6007-.569.2911-.2643.5281-.5841.6973-.9412s.2674-.7446.289-1.1402-.0339-.7917-.1633-1.1656c-.1293-.3739-.33-.7182-.5907-1.0134-.7028-.7792-1.6794-1.247-2.7192-1.3027s-2.0595.3052-2.8394 1.005c-.4047.3541-.7255.7961-.9385 1.2933s-.3127 1.0367-.2918 1.5783c.0099.6539.1613 1.2975.4434 1.8855.282.588.688 1.106 1.189 1.5174.8933.7028 1.619 1.6007 2.1233 2.6269.0466.0982.0738.2048.0798.3136s-.0091.2178-.0446.3207c-.0355.1028-.0906.1976-.1622.2789-.0717.0812-.1584.1474-.2552.1946-.1102.0548-.2313.0835-.354.0837z"/><path d="m44.6134 24.5155c-.1863-.0004-.3668-.0651-.512-.1834-.1452-.1184-.2463-.2833-.2867-.4677-.0883-.3413-.2032-.6749-.3437-.9977-.0444-.1006-.0687-.2092-.0713-.3194-.0027-.1103.0163-.2199.0559-.3226s.099-.1963.1746-.2755c.0757-.0792.1662-.1423.2661-.1856.1-.0433.2074-.066.3161-.0668.1088-.0008.2165.0205.317.0624.1006.0419.1919.1038.2686.1819s.1373.1709.1783.2731c.1827.4169.3301.8488.4406 1.2911.0468.2144.008.4389-.1079.6245-.116.1855-.2996.3169-.5107.3655-.0607.0136-.1227.0204-.1849.0202z"/><path d="m35.6559 34.0305c-.1517.0001-.3005-.0426-.4296-.1234-.1292-.0808-.2336-.1964-.3017-.3339-.3187-.6505-.5037-1.36-.5437-2.0852-.0008-.1092.0196-.2174.0601-.3186.0404-.1011.1002-.1932.1758-.2709.0755-.0777.1655-.1395.2647-.1819.0991-.0424.2056-.0646.3132-.0652h.0048c.1076-.0002.2141.0211.3135.0628s.1897.1028.2658.18c.076.0771.1363.1687.1774.2695.0411.1009.0621.2089.0619.318.0385.4691.1635.9267.3685 1.349.0627.1265.0924.2671.0865.4086-.006.1414-.0476.279-.1207.3995-.0731.1206-.1755.2202-.2972.2894-.1218.0691-.259.1056-.3986.1058z"/><path d="m52.906 33.7699c-.1366-.0005-.271-.0356-.3909-.1022-.1199-.0665-.2215-.1624-.2955-.279-.074-.1165-.1182-.2499-.1284-.3881-.0103-.1383.0137-.2769.0697-.4033.1711-.4147.2777-.8538.3162-1.3017.0057-.1091.0328-.2161.0797-.3145.047-.0984.1129-.1863.1938-.2586.081-.0722.1753-.1273.2776-.162.1022-.0347.2102-.0483.3177-.0401.2166.0143.4186.1153.5618.2806.1432.1654.2158.3817.2019.6013-.0493.6488-.204 1.2848-.4578 1.8824-.0654.1449-.1704.2676-.3026.3537-.1323.086-.2861.1316-.4432.1315z"/></g><path clip-rule="evenodd" d="m133.714 2.31384c17.591 53.21876-11.291 110.62116-64.5096 128.21316l.3139.949c53.7427-17.764 82.9097-75.7329 65.1447-129.476zm-48.2042 99.74416c-22.5892 22.589-59.2135 22.589-81.80269 0l-.70711.707c22.9797 22.98 60.2372 22.98 83.2169 0z" fill="#01d0d9" fill-rule="evenodd"/></svg>