<svg fill="none" height="86" viewBox="0 0 82 86" width="82" xmlns="http://www.w3.org/2000/svg"><path clip-rule="evenodd" d="m61.8793 43.6823c-1.1291 1.7192-2.258 3.4381-3.3834 5.1581-1.0306 1.5767-2.0514 3.1577-3.0716 4.7378-2.3559 3.6491-4.7088 7.2933-7.1724 10.8675-2.6208 3.7817-5.7442 6.8573-9.6097 8.7241-.8616.4189-1.7472.766-2.6806 1.0532-.7779.2393-1.5677.4308-2.3935.5744l-2.2857 3.4944-.5385.8377-4.033 6.3187-26.7109-17.4961 3.63804-5.7323.6941-1.0531 1.77116-2.6926c-.27525-.6582-.51459-1.3164-.70607-1.9866-.22738-.742-.39492-1.4839-.52656-2.2618-.27525-1.4839-.38295-3.0277-.33508-4.5954.23136-7.877.73075-15.754 1.23013-23.631.06888-1.0864.13776-2.1729.20594-3.2594.15557-2.4294 1.78312-3.9851 3.69788-4.0091 2.11816-.0239 3.69786 1.4481 3.96116 3.9732.201 1.9746.3375 3.9492.4739 5.9238.091 1.3163.1819 2.6327.292 3.9491.0171.19.0276.391.0383.5961.0643 1.2293.1364 2.6077 1.685 2.659.9693.012 2.2857-1.089 2.908-2.0224 6.8213-10.244 13.5349-20.5477 20.2485-30.85145l.0001-.00016c1.0053-1.54378 2.0584-2.824271 4.2245-2.441319 2.1062.370985 3.5183 2.489189 2.896 4.547559-.2863.90678-.8225 1.7422-1.3357 2.54182l-.0046.0072c-3.9492 6.06735-7.8984 12.12285-11.8835 18.14235l-.0047.0075c-.7288 1.1469-1.5479 2.436-.115 3.4271 1.4959 1.0531 2.4892-.0359 3.3269-1.3164 5.122-7.8625 10.256-15.701 15.4019-23.55154 1.4959-2.23788 3.1833-2.93198 5.0023-2.10624 2.4054 1.08902 2.9439 3.42264 1.2925 5.95969-4.46 6.84359-8.9387 13.67769-13.4113 20.50249-.5799.8849-1.1596 1.7696-1.7393 2.6541-.7659 1.1609-1.1847 1.9268-.6582 3.3748.3231.8616 1.1489 1.0053 1.9866.742.9792-.3299 1.3813-.9527 1.864-1.7002.0778-.1204.1576-.244.2422-.3702 4.2843-6.558 8.5805-13.1161 12.8768-19.6741 1.6634-2.5251 3.291-3.1594 5.2775-2.0704 2.0943 1.1489 2.6209 2.8483 1.0292 5.493-2.7213 4.5263-5.5858 8.9739-8.4496 13.4202-.8387 1.3023-1.6774 2.6044-2.5124 3.9084-.7778 1.2326-1.5916 2.4772-2.4054 3.6979-.0948.1459-.2159.3193-.3514.5134-.943 1.3502-2.5882 3.706-.977 4.8359 1.6872 1.182 3.1355-1.1923 4.0786-2.7385.1741-.2854.331-.5425.469-.7439.8138-1.2207 1.6275-2.4414 2.4293-3.662.3586-.5483.7167-1.0972 1.0748-1.6461 1.291-1.9791 2.5826-3.9592 3.9036-5.9172l.0266-.0395c.7116-1.0556 1.5185-2.2528 2.5823-2.7728.9933-.4907 2.7166-.6223 3.5064-.0479.9215.6223 1.5318 1.3284 1.6993 2.5251.1971 1.5001-.6277 2.7798-1.2277 3.7108-.0558.0865-.1096.17-.1605.2504-2.4282 3.7653-4.8901 7.5139-7.3512 11.2609zm-31.0178-35.17787c-.7479 1.13991-1.4959 2.27977-2.2439 3.41677-.4847-.8078-.9693-1.6126-1.454-2.41743-.4847-.8048-.9694-1.6096-1.454-2.41739-1.5438-2.60886-.9215-4.91854 1.5437-5.91182 1.831-.753936 3.4945 0 4.8947 2.30968.0872.14544.1745.29.2615.43416l.0019.00314.0015.00253.0002.00021v.00004c.234.38764.4663.77243.6922 1.16353-.7479 1.13687-1.4958 2.27673-2.2438 3.41658zm-9.1459 13.95997c.2929-.4489.5859-.8983.879-1.348 1.1918-1.8279 2.3865-3.6605 3.5967-5.4853-.3111-.5087-.6193-1.0232-.9275-1.5378-.3081-.5146-.6163-1.0292-.9274-1.5378-1.5558-2.59692-3.1713-3.27905-5.2058-2.2738-2.1301 1.0531-2.7165 2.7525-1.2326 5.4451 1.2446 2.2618 2.5251 4.5117 3.8176 6.7376zm-3.5679 6.6651c.4667 0 .9693-.2513 1.2446-.6342l1.1129-1.4959c.3591-.5146.3591-1.2327-.0119-1.7472-.5984-.8258-1.1967-1.4241-1.8669-1.831-.4667-.2992-1.0771-.2992-1.5438 0-.4906.2872-.7539.8137-.718 1.3762l.2154 2.92c.0718.7659.7898 1.4121 1.5677 1.4121zm59.8444 34.073-.6463-1.0531-1.6514-2.7764c.2872-.6342.5624-1.2805.7659-1.9506.2513-.742.4547-1.472.6223-2.2379.3231-1.4839.4906-3.0158.5146-4.6074.087-8.1425-.1229-16.3048-.3327-24.4599v-.0004c-.0209-.8101-.0417-1.6202-.0623-2.4301-.0598-2.4533-1.6155-4.0569-3.5303-4.1646-1.6874-.0958-3.0636.8018-3.7338 2.4533.4907.2632.9694.6103 1.5199 1.2565 2.7764 3.1474 3.0995 7.7668.8496 11.3091-6.4862 10.3397-13.1161 20.6076-19.8656 30.7798-1.3164 1.9745-2.7884 3.8654-4.4638 5.5528-1.0411 1.077-2.1062 2.0344-3.1833 2.896.0864.0266.1654.0606.2473.0958.0656.0282.133.0571.2075.0837.7539.2633 1.5438.4907 2.3456.6702l2.1541 3.5782.5146.8497 3.8654 6.3426 27.3691-16.431z" fill="#007f87" fill-rule="evenodd"/></svg>