<svg height="72.278" viewBox="0 0 67.506 72.278" width="67.506" xmlns="http://www.w3.org/2000/svg"><g transform="translate(-196.7 -964.545)"><g fill="#007f87"><path d="m202.3 1003.4a28.231 28.231 0 0 1 28.2-28.2h7.5v2.9a1.992 1.992 0 0 0 1.1 1.8 1.8 1.8 0 0 0 1 .2 2.016 2.016 0 0 0 1.1-.3l9-5.7a2.208 2.208 0 0 0 1-1.7 2.062 2.062 0 0 0 -1-1.7l-9-5.8a1.983 1.983 0 0 0 -2.1-.1 2.107 2.107 0 0 0 -1.1 1.8v2.9h-7.5a33.972 33.972 0 0 0 -33.8 33.9 2.8 2.8 0 1 0 5.6 0z"/><path d="m263.5 996.5a2.766 2.766 0 0 0 -2.7-2.3.75.75 0 0 0 -.5.1 2.829 2.829 0 0 0 -2.2 3.3c.2 1.2.4 2.4.5 3.7a2.906 2.906 0 0 0 2.8 2.6h.2a2.808 2.808 0 0 0 2.6-3c-.2-1.5-.4-2.9-.7-4.4z"/><path d="m254.3 988.6a2.879 2.879 0 0 0 3.9.9 3.147 3.147 0 0 0 1.3-1.7 2.236 2.236 0 0 0 -.4-2.1 40.545 40.545 0 0 0 -2.6-3.6 3.328 3.328 0 0 0 -1.9-1.1h-.3a2.352 2.352 0 0 0 -1.7.6 3.328 3.328 0 0 0 -1.1 1.9 3.067 3.067 0 0 0 .6 2.1 19.088 19.088 0 0 1 2.2 3z"/><path d="m261 1009a1.95 1.95 0 0 0 -.8-.1 2.766 2.766 0 0 0 -2.7 2.1 33.977 33.977 0 0 1 -1.2 3.4 2.823 2.823 0 0 0 5.2 2.2 20.719 20.719 0 0 0 1.4-4.2 2.96 2.96 0 0 0 -.2-2.1 3.707 3.707 0 0 0 -1.7-1.3z"/><path d="m253 1021.7a3.333 3.333 0 0 0 -2.1.9 21.6 21.6 0 0 1 -2.7 2.5 2.843 2.843 0 0 0 -.4 4 2.949 2.949 0 0 0 4 .4c1.1-.9 2.2-2 3.2-3a2.754 2.754 0 0 0 -.2-4 2.341 2.341 0 0 0 -1.8-.8z"/><path d="m226.6 1031.2a23.247 23.247 0 0 1 -3.6-.8 1.95 1.95 0 0 0 -.8-.1 3.254 3.254 0 0 0 -1.4.4 2.742 2.742 0 0 0 -1.3 1.7 2.926 2.926 0 0 0 2 3.5 29.794 29.794 0 0 0 4.3.9 2.893 2.893 0 0 0 3.2-2.4 3.014 3.014 0 0 0 -.5-2.1 3.684 3.684 0 0 0 -1.9-1.1z"/><path d="m214.2 1026.4a15.6 15.6 0 0 1 -2.8-2.3 2.732 2.732 0 0 0 -1.9-.8h-.1a3.081 3.081 0 0 0 -2 .9 3.037 3.037 0 0 0 -.8 2.1 3.081 3.081 0 0 0 .9 2 28.748 28.748 0 0 0 3.4 2.7 3.117 3.117 0 0 0 4-.7 2.76 2.76 0 0 0 -.7-3.9z"/><path d="m204 1013a2.775 2.775 0 0 0 -1.4-1.6 2.662 2.662 0 0 0 -1.2-.3 3.552 3.552 0 0 0 -1 .2 2.936 2.936 0 0 0 -1.7 3.7c.5 1.4 1.1 2.7 1.7 4a2.818 2.818 0 1 0 5-2.6 24.4 24.4 0 0 1 -1.4-3.4z"/><path d="m242 1030a2.663 2.663 0 0 0 -1.2-.3 2.92 2.92 0 0 0 -.9.2 22.992 22.992 0 0 1 -3.5 1 2.453 2.453 0 0 0 -1.7 1.2 3.083 3.083 0 0 0 -.4 2.1 2.882 2.882 0 0 0 3.3 2.2 34.528 34.528 0 0 0 4.3-1.2 2.775 2.775 0 0 0 1.6-1.4 2.57 2.57 0 0 0 .1-2.1 3.336 3.336 0 0 0 -1.6-1.7z"/></g><path d="m236.7 1016.3-5.4-5.4-5.5 5.4-5.4-5.4 5.4-5.4-5.5-5.6 5.5-5.4 5.4 5.4 5.5-5.4 5.4 5.4-5.4 5.5 5.4 5.4z" fill="#017f86"/></g></svg>