<svg fill="none" height="85" viewBox="0 0 75 85" width="75" xmlns="http://www.w3.org/2000/svg"><path clip-rule="evenodd" d="m50.0733.260762c9.6538-1.787742 22.7044 5.631398 18.3244 21.810538-2.7697 10.1556-9.0417 14.6016-15.5736 19.2318-4.8515 3.439-9.8464 6.9797-13.656 13.037-.8939 1.3408-2.7711 1.3408-3.6649 0-3.8347-6.0368-8.8305-9.574-13.6722-13.0021-6.5574-4.6428-12.8322-9.0855-15.55747-19.2667-4.46936-16.17914 8.58117-23.59828 18.23497-21.810538 9.6539 1.787748 12.7824 11.262838 12.7824 11.262838s3.1286-9.47509 12.7824-11.262838zm-21.6312 59.084738-11.7097-10.7264c-.5364-.447-1.2515-.7151-1.9666-.7151s-1.3408.3575-1.8771.8938c-.8045.8939-.8939 2.2347-.2682 3.3074l.3576.5363c1.8771 2.8604 4.0224 5.542 6.4359 8.0448l2.2347 2.3241c.3575.3576.5363.8045.4469 1.2514 0 .447-.1788.8939-.5363 1.2515-.3576.3575-.8045.5363-1.2514.4469-.447 0-.8939-.1788-1.2515-.5363l-2.0559-2.2347c-2.5922-2.771-4.9163-5.7208-7.06157-8.8494l-.17878-.2681c-1.51958-2.3241-1.34081-5.4526.44695-7.5979l.5363-.5364-4.8269-9.1175c-.53632-1.0726-1.69836-1.6983-2.86039-1.6983-.89388 0-1.69836.4469-2.324073 1.0726-.536323.7151-.8044854 1.5196-.7150981 2.4135l3.2179411 24.4921c.26816 2.3241 1.4302 4.38 3.21794 5.8102l9.38568 7.7767c.5363.4469.9832 1.162 1.0726 1.8771l.7151 5.4526c.0894.5363.5364.8939.9833.8939h13.9444c.6257 0 1.0727-.5363.9833-1.162l-2.6816-19.844c-.2682-1.7878-1.0727-3.3967-2.4135-4.5588zm45.4091-22.9719c-.5363-.7151-1.4302-1.0726-2.324-1.0726-1.1621-.0894-2.3241.6257-2.8604 1.6983l-4.827 9.0282.5364.5363c1.8771 2.1453 2.0559 5.1844.4469 7.5979l-.2682.3575c-2.0559 3.1286-4.4693 6.1678-7.0616 8.8494l-2.0559 2.2347c-.3575.3575-.8044.5363-1.2514.5363-.4469 0-.8939-.1788-1.2514-.4469-.3576-.3576-.5363-.8045-.5363-1.2515 0-.4469.1788-.8938.4469-1.2514l2.2347-2.3241c2.3241-2.5028 4.4694-5.1844 6.4359-8.0448l.3575-.5363c.7151-.9833.5363-2.3241-.2681-3.3074-.447-.5363-1.1621-.8938-1.8772-.8938s-1.4302.1787-1.9665.7151l-11.7097 10.7264c-1.2514 1.1621-2.1453 2.771-2.4135 4.4694l-2.6816 19.844c-.0894.6257.3576 1.162.9833 1.162h13.9444c.5363 0 .9832-.3575.9832-.8939l.7151-5.4526c.0894-.7151.447-1.4302 1.0727-1.8771l9.3856-7.5979c1.7878-1.4302 2.9498-3.5755 3.218-5.8102l3.2179-24.4921c.1788-.9833-.0893-1.7878-.6257-2.5029z" fill="#007f87" fill-rule="evenodd"/></svg>