<svg fill="none" height="85" viewBox="0 0 80 85" width="80" xmlns="http://www.w3.org/2000/svg"><g fill="#007f87"><path d="m6.61639 45.6251c0-18.2398 14.84211-33.0819 33.08191-33.0819h8.8517v3.3976c0 .8941.447 1.6988 1.2517 2.1458.3577.1788.8047.2683 1.1624.2683.447 0 .8941-.0895 1.3411-.3577l10.5505-6.7058c.7152-.447 1.1623-1.2517 1.1623-2.05642 0-.8047-.4471-1.60939-1.1623-2.05645l-10.5505-6.795204c-.7153-.447053-1.6988-.536464-2.5035-.089411s-1.2517 1.251745-1.2517 2.145855v3.3976h-8.8517c-21.9056.08941-39.6983 17.88213-39.6983 39.78773 0 1.7882 1.51998 3.3082 3.30819 3.3082 1.78822 0 3.3082-1.52 3.3082-3.3082z"/><path d="m78.5022 37.5783c-.3576-1.6094-1.6988-2.6823-3.2188-2.6823-.1788 0-.447 0-.6258.0894-1.7883.3576-2.9506 2.1459-2.5929 3.9341.2682 1.4305.447 2.8611.6258 4.2917.0894 1.6988 1.6094 3.0399 3.3082 3.0399h.2682c1.7883-.0894 3.2188-1.6988 3.04-3.5764-.1788-1.6988-.447-3.3976-.8047-5.0964z"/><path d="m67.7724 28.2794c.8941 1.52 3.04 2.0565 4.5599 1.073.7153-.4471 1.2518-1.1624 1.52-2.0565.1788-.8941.0894-1.7882-.447-2.5035-.8941-1.4305-1.8777-2.8611-3.04-4.2023-.5365-.7153-1.3412-1.0729-2.2353-1.2517-.0894 0-.2682 0-.3576 0-.8047 0-1.52.2682-2.0564.7153-.7153.5364-1.073 1.3411-1.2518 2.2352-.0894.8941.1788 1.7882.7153 2.4141.9835 1.1624 1.8776 2.3247 2.5929 3.5764z"/><path d="m75.5528 52.2413c-.2683-.0894-.6259-.0894-.8941-.0894-1.4306 0-2.7718.9835-3.2188 2.414-.3577 1.3412-.8941 2.7718-1.4306 4.0235-.7153 1.6988.0894 3.6659 1.7882 4.3811 1.6988.7153 3.6659-.0894 4.3811-1.7882.7153-1.6094 1.2518-3.2188 1.6988-4.9176.2683-.8941.0895-1.7882-.2682-2.5035-.447-.7152-1.1623-1.2517-2.0564-1.5199z"/><path d="m66.2535 67.0835h-.0894c-.8941 0-1.6988.447-2.3247 1.0729-.9835 1.0729-2.0565 2.0565-3.1294 2.9506-1.4306 1.1623-1.6094 3.2188-.447 4.6493 1.1623 1.3412 3.3082 1.6094 4.6493.4471 1.3412-1.073 2.5929-2.3247 3.7553-3.5764 1.2517-1.3412 1.1623-3.4871-.1789-4.6494-.6258-.5365-1.4305-.8941-2.2352-.8941z"/><path d="m35.1397 78.3492c-1.4306-.1788-2.8611-.447-4.2023-.8941-.2682-.0894-.6259-.0894-.8941-.0894-.5365 0-1.1623.1788-1.6094.4471-.8047.447-1.3411 1.1623-1.52 1.967-.447 1.7882.5365 3.5764 2.3247 4.1129 1.6094.4471 3.3082.8047 5.0964 1.0729 1.7882.2683 3.487-1.0729 3.7553-2.8611.0894-.8941-.0894-1.7882-.6259-2.4141-.6259-.7153-1.4306-1.2518-2.3247-1.3412z"/><path d="m20.5645 72.6267c-1.1623-.8047-2.3246-1.6988-3.3082-2.6823-.6258-.5365-1.4305-.8941-2.2352-.8941h-.0894c-.8941 0-1.6988.4471-2.3247 1.0729-.6259.6259-.8941 1.52-.8941 2.4141s.447 1.6988 1.0729 2.3247c1.2518 1.1623 2.5929 2.2353 4.0235 3.2188s3.5764.6258 4.6493-.8047c.9836-1.52.6259-3.5765-.8941-4.6494z"/><path d="m8.58377 56.891c-.26823-.8047-.8941-1.52-1.6988-1.8776-.44705-.1788-.8941-.3576-1.43057-.3576-.35764 0-.80469.0894-1.16234.1788-1.6988.6259-2.5929 2.5035-1.96703 4.2917.62587 1.6094 1.25175 3.2188 2.05644 4.7388.8047 1.6093 2.86114 2.2352 4.47054 1.4305 1.60939-.8047 2.23529-2.8611 1.43059-4.4705-.6259-1.2518-1.25177-2.5929-1.69883-3.9341z"/><path d="m53.288 76.9192c-.447-.1789-.8941-.3577-1.4306-.3577-.3576 0-.7152.0894-1.0729.1788-1.3411.4471-2.7717.8942-4.1129 1.1624-.8941.1788-1.6094.7153-2.0564 1.4306-.4471.7152-.6259 1.6093-.4471 2.5035.3577 1.7882 2.2353 2.9505 3.9341 2.5929 1.6988-.3577 3.3976-.8047 5.007-1.4306.8047-.2682 1.52-.8941 1.8776-1.6988.3577-.8047.4471-1.6988.0894-2.5035-.447-.8047-.9835-1.52-1.7882-1.8776z"/><path d="m54.5407 32.9287c-3.7552-2.4141-9.5669-1.6094-12.7857 1.6094l-2.1459 2.0565-2.3246-2.3247c-4.4706-4.4706-12.0705-3.8447-15.7363 1.6988-2.4141 3.7552-1.6094 9.5669 1.6094 12.7857l15.1104 15.1104c.7153.7153 1.967.7153 2.6823 0l15.2892-15.2892c4.4705-4.3811 3.9341-11.981-1.6988-15.6469z"/></g></svg>