<svg fill="none" height="85" viewBox="0 0 85 85" width="85" xmlns="http://www.w3.org/2000/svg"><path clip-rule="evenodd" d="m54.4 85h-47.6c-3.75704 0-6.8-3.043-6.8-6.8v-71.4c0-3.75704 3.04296-6.8 6.8-6.8h47.6c3.74 0 6.8 3.04296 6.8 6.8v71.4c0 3.757-3.06 6.8-6.8 6.8zm-1.7-64.6h-25.5c-.935 0-1.7.765-1.7 1.7s.765 1.7 1.7 1.7h25.5c.935 0 1.7-.765 1.7-1.7s-.765-1.7-1.7-1.7zm0 15.3h-25.5c-.935 0-1.7.765-1.7 1.7s.765 1.7 1.7 1.7h25.5c.935 0 1.7-.765 1.7-1.7s-.765-1.7-1.7-1.7zm0 15.3h-25.5c-.935 0-1.7.765-1.7 1.7s.765 1.7 1.7 1.7h25.5c.935 0 1.7-.765 1.7-1.7s-.765-1.7-1.7-1.7zm0 15.3h-25.5c-.935 0-1.7.765-1.7 1.7s.765 1.7 1.7 1.7h25.5c.935 0 1.7-.765 1.7-1.7s-.765-1.7-1.7-1.7zm-43.00998-45.407c-.66302-.663-1.73403-.663-2.39706 0-.66292.663-.66292 1.751 0 2.414l3.40004 3.4c.34.323.765.493 1.207.493.425 0 .867-.17 1.19-.493l6.8-6.8c.68-.663.68-1.751 0-2.414-.663-.663-1.734-.663-2.397 0l-5.593 5.61zm0 15.3c-.66302-.663-1.73403-.663-2.39706 0-.66292.663-.66292 1.751 0 2.414l3.40004 3.4c.34.323.765.493 1.207.493.425 0 .867-.17 1.19-.493l6.8-6.8c.68-.663.68-1.751 0-2.414-.663-.663-1.734-.663-2.397 0l-5.593 5.61zm0 15.3c-.66302-.663-1.73403-.663-2.39706 0-.66292.663-.66292 1.751 0 2.414l3.40004 3.4c.34.323.765.493 1.207.493.425 0 .867-.17 1.19-.493l6.8-6.8c.68-.663.68-1.751 0-2.414-.663-.663-1.734-.663-2.397 0l-5.593 5.61zm0 15.3c-.66302-.663-1.73403-.663-2.39706 0-.66292.663-.66292 1.751 0 2.414l3.40004 3.4c.34.323.765.493 1.207.493.425 0 .867-.17 1.19-.493l6.8-6.8c.68-.663.68-1.751 0-2.414-.663-.663-1.734-.663-2.397 0l-5.593 5.61zm70.20928-56.593c.731 0 1.377.476 1.615 1.156l3.0045 9.044h-9.239l3.0045-9.044c.238-.68.884-1.156 1.615-1.156zm5.1007 13.6h-10.2v44.2008h10.2zm-5.066 54.4c-2.873 0-5.134-2.278-5.134-5.066v-1.7332h10.2v1.7332c0 2.788-2.278 5.066-5.066 5.066z" fill="#007f87" fill-rule="evenodd"/></svg>