<svg fill="none" height="85" viewBox="0 0 84 85" width="84" xmlns="http://www.w3.org/2000/svg"><g fill="#007f87"><path d="m0 39.898h11.4143c.4122-2.423 1.6686-4.6218 3.5465-6.2073 1.878-1.5854 4.2565-2.4552 6.7142-2.4552s4.8362.8698 6.7142 2.4552c1.8779 1.5855 3.1343 3.7843 3.5465 6.2073h7.9623v-11.2756h1.7347c1.8402 0 3.6051-.731 4.9064-2.0323 1.3013-1.3012 2.0323-3.0661 2.0323-4.9064s-.731-3.6052-2.0323-4.9065-3.0662-2.0323-4.9064-2.0323h-1.7347v-14.7449h-39.898z"/><path d="m83.2651 0h-39.8979v11.4143c2.4229.4122 4.6218 1.6686 6.2072 3.5465 1.5855 1.878 2.4552 4.2565 2.4552 6.7142s-.8697 4.8362-2.4552 6.7142c-1.5854 1.8779-3.7843 3.1343-6.2072 3.5465v7.9623h11.2755v1.7347c0 1.8402.731 3.6051 2.0323 4.9064s3.0662 2.0323 4.9065 2.0323 3.6052-.731 4.9064-2.0323c1.3013-1.3013 2.0323-3.0662 2.0323-4.9064v-1.7347h14.7449z"/><path d="m0 85h39.898v-13.149c-2.423-.4122-4.6218-1.6686-6.2073-3.5466-1.5854-1.8779-2.4552-4.2564-2.4552-6.7141 0-2.4578.8698-4.8362 2.4552-6.7142 1.5855-1.878 3.7843-3.1343 6.2073-3.5465v-7.9623h-11.2756v-1.7347c0-1.8403-.731-3.6052-2.0323-4.9064-1.3012-1.3013-3.0661-2.0324-4.9064-2.0324s-3.6052.7311-4.9065 2.0324c-1.3013 1.3012-2.0323 3.0661-2.0323 4.9064v1.7347h-14.7449z"/><path d="m83.2648 84.9998v-41.6326h-11.4143c-.4122 2.4229-1.6686 4.6218-3.5466 6.2072-1.8779 1.5855-4.2564 2.4552-6.7141 2.4552s-4.8362-.8697-6.7142-2.4552c-1.878-1.5854-3.1343-3.7843-3.5465-6.2072h-7.9623v11.2755h-1.7347c-1.8402 0-3.6051.731-4.9064 2.0323s-2.0323 3.0662-2.0323 4.9065.731 3.6052 2.0323 4.9064c1.3013 1.3013 3.0662 2.0323 4.9064 2.0323h1.7347v16.4796z"/></g></svg>