<svg fill="none" height="85" viewBox="0 0 95 85" width="95" xmlns="http://www.w3.org/2000/svg"><path clip-rule="evenodd" d="m30.5281 0c16.8631 0 30.5281 13.665 30.5281 30.5281s-13.665 30.5281-30.5281 30.5281-30.5281-13.665-30.5281-30.5281 13.665-30.5281 30.5281-30.5281zm-6.2348 22.4487c0-2.4714-2.0029-4.4743-4.4743-4.4743-2.4713 0-4.4742 2.0029-4.4742 4.4743 0 2.4713 2.0029 4.4742 4.4742 4.4742 2.4714 0 4.4743-2.0029 4.4743-4.4742zm6.238 27.2459c5.5339 0 10.7382-2.1548 14.6535-6.0733.6332-.6332.63-1.654 0-2.284-.6299-.6299-1.654-.6299-2.2839 0-3.3048 3.308-7.7015 5.1268-12.3696 5.1268-4.6745 0-9.0679-1.822-12.376-5.1268-.6299-.6299-1.654-.6299-2.2839 0-.63.63-.63 1.654 0 2.284 3.9186 3.9185 9.1229 6.0733 14.6599 6.0733zm6.2349-27.2459c0 2.4713 2.0029 4.4742 4.4742 4.4742 2.4681 0 4.4742-2.0029 4.4742-4.4742 0-2.4714-2.0029-4.4743-4.4742-4.4743s-4.4742 2.0029-4.4742 4.4743zm30.7549 8.0788c0-2.187-.2294-4.3224-.5944-6.4093 15.3383 1.6185 27.2944 14.5857 27.2976 30.3537 0 16.8631-13.6682 30.5281-30.5313 30.5281-12.3631 0-22.9817-7.3558-27.7822-17.9195 17.8484-2.6167 31.6103-17.9874 31.6103-36.553zm8.5414 42.636c.6299.6299 1.654.6299 2.284 0 .6299-.63.6299-1.654 0-2.284-3.9186-3.9185-9.1229-6.0733-14.66-6.0765-5.5338 0-10.7381 2.158-14.6535 6.0765-.6299.63-.6299 1.654 0 2.284.63.6299 1.654.6299 2.284 0 3.3048-3.3113 7.6982-5.13 12.3695-5.13 4.6713.0032 9.068 1.8252 12.376 5.13zm-6.1379-26.7711c0 2.4714 2.0029 4.4743 4.4742 4.4743s4.471-2.0029 4.471-4.4743c0-2.4713-1.9997-4.4742-4.471-4.4742s-4.4742 2.0029-4.4742 4.4742z" fill="#007f87" fill-rule="evenodd"/></svg>