<?xml version="1.0" encoding="UTF-8"?> <svg xmlns="http://www.w3.org/2000/svg" width="16" height="16" viewBox="0 0 16 16" fill="none"><path d="M1 11C0.734784 11 0.48043 11.1054 0.292893 11.2929C0.105357 11.4804 0 11.7348 0 12C0 12.2652 0.105357 12.5196 0.292893 12.7071C0.48043 12.8946 0.734784 13 1 13H2V14.5C2 14.8978 2.15804 15.2794 2.43934 15.5607C2.72064 15.842 3.10218 16 3.5 16H14.5C14.8978 16 15.2794 15.842 15.5607 15.5607C15.842 15.2794 16 14.8978 16 14.5V1.5C16 1.10218 15.842 0.720644 15.5607 0.43934C15.2794 0.158035 14.8978 0 14.5 0H3.5C3.10218 0 2.72064 0.158035 2.43934 0.43934C2.15804 0.720644 2 1.10218 2 1.5V3H1C0.734784 3 0.48043 3.10536 0.292893 3.29289C0.105357 3.48043 0 3.73478 0 4C0 4.26522 0.105357 4.51957 0.292893 4.70711C0.48043 4.89464 0.734784 5 1 5H2V7H1C0.734784 7 0.48043 7.10536 0.292893 7.29289C0.105357 7.48043 0 7.73478 0 8C0 8.26522 0.105357 8.51957 0.292893 8.70711C0.48043 8.89464 0.734784 9 1 9H2V11H1ZM6 11C6.00088 10.3899 6.18776 9.79454 6.53572 9.29337C6.88367 8.79221 7.37616 8.40905 7.9475 8.195C7.57758 7.96606 7.29239 7.62275 7.13517 7.21712C6.97795 6.81149 6.95728 6.36566 7.07629 5.94722C7.1953 5.52878 7.44749 5.16056 7.79465 4.89837C8.1418 4.63619 8.56497 4.49434 9 4.49434C9.43503 4.49434 9.8582 4.63619 10.2054 4.89837C10.5525 5.16056 10.8047 5.52878 10.9237 5.94722C11.0427 6.36566 11.022 6.81149 10.8648 7.21712C10.7076 7.62275 10.4224 7.96606 10.0525 8.195C10.6238 8.40905 11.1163 8.79221 11.4643 9.29337C11.8122 9.79454 11.9991 10.3899 12 11V11.5C12 11.6326 11.9473 11.7598 11.8536 11.8536C11.7598 11.9473 11.6326 12 11.5 12H6.5C6.36739 12 6.24021 11.9473 6.14645 11.8536C6.05268 11.7598 6 11.6326 6 11.5V11Z" fill="#3F3F3F"></path></svg> 