<?xml version="1.0" encoding="UTF-8"?> <svg xmlns="http://www.w3.org/2000/svg" width="105" height="20" viewBox="0 0 105 20" fill="none"><path d="M37.672 7.39V6.032H31.302V16H32.814V11.786H36.958V10.428H32.814V7.39H37.672ZM45.9935 16L42.3395 6.032H41.1215L37.4675 16H39.0775L39.7635 13.998H43.6975L44.3835 16H45.9935ZM43.2775 12.71H40.2115L41.7655 8.286L43.2775 12.71ZM54.0468 13.018H52.5208C52.2828 14.026 51.5968 14.726 50.4908 14.726C49.9028 14.726 49.3708 14.502 49.0208 14.124C48.5308 13.592 48.4188 13.018 48.4188 11.016C48.4188 9.014 48.5308 8.44 49.0208 7.908C49.3708 7.53 49.9028 7.306 50.4908 7.306C51.5968 7.306 52.2688 8.006 52.5068 9.014H54.0468C53.6968 7.026 52.3248 5.948 50.4908 5.948C49.4548 5.948 48.5588 6.326 47.8728 7.012C46.8927 7.992 46.9068 9.098 46.9068 11.016C46.9068 12.934 46.8927 14.04 47.8728 15.02C48.5588 15.706 49.4548 16.084 50.4908 16.084C52.2968 16.084 53.7108 15.006 54.0468 13.018ZM62.4318 16V14.642H57.5738V11.646H61.7178V10.302H57.5738V7.39H62.4318V6.032H56.0618V16H62.4318ZM71.5393 13.186C71.5393 11.926 70.8113 11.184 70.0413 10.876C70.7133 10.61 71.3853 9.84 71.3853 8.762C71.3853 7.082 70.2233 6.032 68.3753 6.032H64.4973V16H68.5293C70.2933 16 71.5393 15.02 71.5393 13.186ZM70.0273 13.116C70.0273 13.998 69.4393 14.642 68.3893 14.642H66.0093V11.604H68.3893C69.4393 11.604 70.0273 12.234 70.0273 13.116ZM69.8733 8.818C69.8733 9.742 69.2153 10.246 68.2493 10.246H66.0093V7.39H68.2493C69.2153 7.39 69.8733 7.894 69.8733 8.818ZM80.5845 11.016C80.5845 9.098 80.6125 7.992 79.6325 7.012C78.9465 6.326 78.0645 5.948 77.0005 5.948C75.9365 5.948 75.0685 6.326 74.3825 7.012C73.4025 7.992 73.4165 9.098 73.4165 11.016C73.4165 12.934 73.4025 14.04 74.3825 15.02C75.0685 15.706 75.9365 16.084 77.0005 16.084C78.0645 16.084 78.9465 15.706 79.6325 15.02C80.6125 14.04 80.5845 12.934 80.5845 11.016ZM79.0725 11.016C79.0725 13.018 78.9745 13.578 78.4845 14.11C78.1345 14.488 77.5885 14.726 77.0005 14.726C76.4125 14.726 75.8665 14.488 75.5165 14.11C75.0265 13.578 74.9285 13.018 74.9285 11.016C74.9285 9.014 75.0265 8.454 75.5165 7.922C75.8665 7.544 76.4125 7.306 77.0005 7.306C77.5885 7.306 78.1345 7.544 78.4845 7.922C78.9745 8.454 79.0725 9.014 79.0725 11.016ZM89.6353 11.016C89.6353 9.098 89.6633 7.992 88.6833 7.012C87.9973 6.326 87.1153 5.948 86.0513 5.948C84.9873 5.948 84.1193 6.326 83.4333 7.012C82.4533 7.992 82.4673 9.098 82.4673 11.016C82.4673 12.934 82.4533 14.04 83.4333 15.02C84.1193 15.706 84.9873 16.084 86.0513 16.084C87.1153 16.084 87.9973 15.706 88.6833 15.02C89.6633 14.04 89.6353 12.934 89.6353 11.016ZM88.1233 11.016C88.1233 13.018 88.0253 13.578 87.5353 14.11C87.1853 14.488 86.6393 14.726 86.0513 14.726C85.4633 14.726 84.9173 14.488 84.5673 14.11C84.0773 13.578 83.9793 13.018 83.9793 11.016C83.9793 9.014 84.0773 8.454 84.5673 7.922C84.9173 7.544 85.4633 7.306 86.0513 7.306C86.6393 7.306 87.1853 7.544 87.5353 7.922C88.0253 8.454 88.1233 9.014 88.1233 11.016ZM99.6521 16L96.0821 9.938L99.3161 6.032H97.4681L93.3941 11.044V6.032H91.8821V16H93.3941V13.102L95.0741 11.086L97.8741 16H99.6521Z" fill="#231F20"></path><path fill-rule="evenodd" clip-rule="evenodd" d="M4.35697 9.27114V16.5041H1.38769V9.27351H0V6.70497H1.38842C1.38842 6.58513 1.38733 6.49137 1.38862 6.39766C1.39641 5.83073 1.37558 5.26142 1.41957 4.69736C1.4887 3.81152 1.80795 3.03858 2.55681 2.51061C3.12146 2.11254 3.76811 2.00578 4.43619 2.00115C5.08837 1.99667 5.74063 2.00635 6.39284 2.01189C6.47396 2.01259 6.57872 1.98224 6.57848 2.12808C6.57739 2.90615 6.57799 3.68417 6.57799 4.4982C6.47949 4.4982 6.39567 4.49751 6.31181 4.49833C5.84813 4.50272 5.38369 4.49287 4.92102 4.51711C4.58784 4.53454 4.38821 4.72242 4.37267 5.05894C4.34777 5.59593 4.36601 6.13497 4.36601 6.70329H6.61528C6.57747 7.10075 6.54458 7.46688 6.50741 7.83255C6.46464 8.25388 6.41004 8.67419 6.37751 9.09634C6.36621 9.24325 6.31391 9.27511 6.18118 9.27376C5.5832 9.26777 4.9851 9.27114 4.35697 9.27114Z" fill="#231F20"></path></svg> 