<?xml version="1.0" encoding="UTF-8"?> <svg xmlns="http://www.w3.org/2000/svg" width="93" height="20" viewBox="0 0 93 20" fill="none"><path fill-rule="evenodd" clip-rule="evenodd" d="M0.180887 16.1621H3.23062V7.32102H0.180887V16.1621ZM1.72773 3.05933C0.681286 3.05933 0 3.71911 0 4.58578C0 5.43617 0.664381 6.11387 1.68547 6.11387H1.70575C2.77079 6.11387 3.43179 5.43617 3.43179 4.58578C3.4115 3.71911 2.77079 3.05933 1.72773 3.05933ZM14.2292 11.0907V16.1621H11.1778V11.4312C11.1778 10.2436 10.74 9.43232 9.63437 9.43232C8.79079 9.43232 8.29039 9.9797 8.06893 10.5075C7.98948 10.6965 7.96919 10.9588 7.96919 11.2243V16.1621H4.91777C4.91777 16.1621 4.95834 8.15023 4.91777 7.32102H7.96919V8.57379C7.96243 8.58357 7.95398 8.59334 7.94721 8.60312H7.96919V8.57379C8.37323 7.97103 9.09678 7.1125 10.718 7.1125C12.7247 7.1125 14.2292 8.37667 14.2292 11.0907Z" fill="#231F20"></path><path d="M36.0232 16V14.642H31.2212V6.032H29.7092V16H36.0232ZM39.2603 16V6.032H37.7483V16H39.2603ZM49.3675 16V6.032H47.8555V13.032L43.2495 6.032H41.8635V16H43.3755V8.986L47.9815 16H49.3675ZM59.737 16L56.167 9.938L59.401 6.032H57.553L53.479 11.044V6.032H51.967V16H53.479V13.102L55.159 11.086L57.959 16H59.737ZM67.5519 16V14.642H62.6939V11.646H66.8379V10.302H62.6939V7.39H67.5519V6.032H61.1819V16H67.5519ZM76.7014 10.946C76.7014 9.504 76.7714 8.048 75.6934 6.97C75.0634 6.34 74.1534 6.032 73.1174 6.032H69.6174V16H73.1174C74.1534 16 75.0634 15.692 75.6934 15.062C76.7714 13.984 76.7014 12.388 76.7014 10.946ZM75.1894 10.946C75.1894 12.318 75.1754 13.396 74.6574 13.97C74.2374 14.432 73.6774 14.642 72.9634 14.642H71.1294V7.39H72.9634C73.6774 7.39 74.2374 7.6 74.6574 8.062C75.1754 8.636 75.1894 9.574 75.1894 10.946ZM80.4536 16V6.032H78.9416V16H80.4536ZM90.5609 16V6.032H89.0489V13.032L84.4429 6.032H83.0569V16H84.5689V8.986L89.1749 16H90.5609Z" fill="#231F20"></path></svg> 